<svg width="1361" height="900" viewBox="0 0 1361 900" fill="none" xmlns="http://www.w3.org/2000/svg">
<g opacity="0.21">
<path opacity="0.9" fill-rule="evenodd" clip-rule="evenodd" d="M1271.01 127.133L1277.88 110.238L1280.38 73.319C1280.38 73.319 1287.26 50.7922 1290.39 50.1664C1293.52 49.5407 1295.39 55.7981 1298.52 55.7981C1301.65 55.7981 1305.4 47.0377 1309.15 47.0377C1312.9 47.0377 1319.15 45.7862 1321.03 48.9149C1322.91 52.0437 1328.53 87.7111 1333.54 90.8398C1338.54 93.9686 1342.92 93.9686 1344.17 96.4716C1345.42 98.9745 1341.67 100.226 1344.79 102.729C1347.92 105.232 1357.3 104.606 1359.17 110.238C1361.05 115.87 1359.8 116.495 1356.67 120.25C1353.55 124.004 1349.79 124.004 1347.92 126.507C1346.04 129.01 1347.92 130.888 1342.29 134.642C1336.66 138.396 1334.16 139.648 1331.66 139.648C1329.16 139.648 1329.16 136.519 1326.03 139.022C1322.91 141.525 1324.16 144.654 1322.28 149.034C1320.4 153.414 1317.28 157.795 1313.53 160.298C1309.77 162.801 1307.27 158.42 1304.77 162.801C1302.27 167.181 1301.65 173.438 1301.02 177.193C1300.39 180.947 1295.39 187.205 1296.64 192.211C1297.89 197.216 1300.39 212.234 1298.52 214.737C1296.64 217.24 1306.02 226.001 1311.65 226.001C1317.28 226.001 1316.03 219.118 1320.4 219.118C1324.78 219.118 1327.28 227.878 1322.91 230.381C1318.53 232.884 1312.9 233.51 1308.52 234.761C1304.15 236.013 1304.77 239.141 1301.65 239.141C1298.52 239.141 1292.27 237.264 1289.14 247.276C1286.01 257.288 1273.51 254.785 1265.38 259.165C1257.25 263.545 1245.37 267.3 1248.49 271.68C1251.62 276.06 1281.01 254.159 1282.26 257.914C1283.51 261.668 1269.75 274.183 1264.75 275.435C1259.75 276.686 1247.87 279.815 1244.12 283.569C1240.37 287.324 1243.49 287.324 1245.37 294.833C1247.24 302.342 1244.12 317.985 1242.24 321.74C1240.37 325.494 1234.11 342.389 1231.61 342.389C1229.11 342.389 1229.11 335.506 1228.48 334.255C1227.86 333.003 1219.73 325.494 1217.85 328.623C1215.98 331.752 1221.61 343.641 1221.61 343.641C1221.61 343.641 1229.11 348.647 1230.36 351.776C1231.61 354.904 1227.86 373.677 1227.86 373.677L1226.61 388.069C1226.61 388.069 1222.23 403.712 1219.73 403.712C1217.23 403.712 1216.6 381.811 1217.85 377.431C1219.1 373.051 1215.98 368.671 1212.23 369.296C1208.47 369.922 1202.22 357.407 1202.22 351.776C1202.22 346.144 1204.72 332.377 1204.72 332.377C1204.72 332.377 1194.72 338.009 1194.09 346.144C1193.47 354.278 1198.47 372.425 1198.47 372.425L1189.72 373.051C1189.72 373.051 1198.47 377.431 1201.6 380.56C1204.72 383.689 1205.35 395.578 1209.1 401.835C1212.85 408.093 1217.23 416.227 1222.23 417.479C1227.23 418.73 1242.87 445.012 1242.24 450.017C1241.62 455.023 1240.99 460.029 1224.11 473.796C1207.22 487.562 1200.35 490.065 1197.22 495.697C1194.09 501.329 1194.09 507.586 1189.72 512.592C1185.34 517.598 1170.33 519.475 1164.7 531.364C1159.07 543.253 1160.95 541.376 1156.57 545.756C1152.2 550.137 1120.93 580.798 1117.18 610.208C1113.43 639.618 1129.69 664.648 1130.94 669.028C1132.19 673.408 1143.44 680.292 1146.57 687.175C1149.7 694.058 1157.82 719.088 1166.58 732.228C1175.33 745.369 1178.46 787.92 1170.33 792.926C1162.2 797.932 1152.82 798.557 1151.57 795.429C1150.32 792.3 1147.19 787.294 1143.44 782.914C1139.69 778.534 1135.31 776.656 1132.19 774.153C1129.06 771.65 1133.44 771.65 1130.31 767.27C1127.18 762.89 1124.06 761.013 1121.56 759.135C1119.05 757.258 1120.93 756.632 1120.31 754.129C1119.68 751.627 1112.18 751.001 1108.42 748.498C1104.67 745.995 1102.8 745.369 1102.8 739.112C1102.8 732.854 1104.05 724.094 1104.05 724.094C1104.05 724.094 1098.42 723.468 1095.92 719.714C1093.42 715.959 1099.05 694.684 1091.54 687.801C1084.04 680.917 1076.53 675.911 1072.16 673.408C1067.78 670.905 1058.4 655.262 1050.27 655.888C1042.14 656.513 1027.76 672.783 1020.26 672.783C1012.75 672.783 1009 665.899 1006.5 662.771C1004 659.642 1004 665.274 997.119 660.893C990.241 656.513 988.99 654.01 983.363 654.01C977.735 654.01 970.231 660.893 965.229 660.893C960.226 660.893 953.348 659.642 953.348 659.642C953.348 659.642 955.849 663.397 950.846 662.771C945.844 662.145 940.216 655.262 940.216 655.262C940.216 655.262 937.715 661.519 934.588 661.519C931.462 661.519 907.075 664.022 907.075 664.022L892.692 675.911L905.199 679.04C905.199 679.04 895.194 682.169 898.32 687.175C901.447 692.181 918.33 695.309 914.578 698.438C910.827 701.567 910.201 705.321 907.075 704.07C903.948 702.818 892.067 692.181 889.566 695.309C887.065 698.438 881.437 701.567 875.184 701.567C868.931 701.567 867.055 705.321 862.678 703.444C858.301 701.567 855.174 694.684 855.174 694.684L847.045 687.175L833.913 685.298C833.913 685.298 831.412 690.304 827.66 690.304C823.908 690.304 815.154 690.929 810.152 689.678C805.149 688.426 793.268 682.169 785.765 684.672C778.261 687.175 760.752 695.309 758.876 697.812C757 700.315 746.995 715.333 742.618 717.836C738.241 720.339 706.35 734.106 698.221 747.246C690.092 760.387 685.09 761.638 685.715 767.896C686.34 774.153 694.469 806.692 689.467 807.944C684.464 809.195 666.33 802.938 659.452 801.686C652.573 800.435 633.814 786.668 631.313 781.662C628.812 776.656 627.561 757.258 625.06 753.504C622.559 749.749 603.799 736.609 602.549 730.977C601.298 725.345 596.296 707.199 593.169 704.07C590.042 700.941 578.787 684.672 571.283 682.795C563.779 680.917 544.395 679.04 540.643 685.298C536.891 691.555 535.015 701.567 528.762 702.818C522.509 704.07 509.377 694.684 505 692.181C500.623 689.678 480.613 662.771 479.362 647.753C478.112 632.735 443.72 611.46 443.72 611.46V609.582L399.948 605.202L398.072 615.84L318.032 605.828L232.365 553.265L231.74 548.259L174.211 540.75L169.834 534.493L170.459 516.972C170.459 516.972 157.327 498.826 152.95 496.948C148.573 495.071 147.323 495.071 147.323 495.071V488.814C147.323 488.814 137.318 484.433 134.191 483.182C131.065 481.93 121.06 468.79 121.06 468.79L99.799 460.029L100.424 440.631L82.9156 392.449L87.2928 383.688L86.6674 376.18L77.2878 366.168L79.789 348.647L87.2928 353.653C87.2928 353.653 83.541 346.77 86.0422 344.267C88.5435 341.764 91.0446 336.132 91.0446 336.132C91.0446 336.132 83.541 338.009 79.1637 339.261C74.7865 340.512 71.0347 336.132 71.0347 332.377C71.0347 328.623 61.0297 306.722 61.0297 306.722C61.0297 306.722 61.6551 277.938 62.2804 275.435C62.9056 272.932 54.1513 254.159 56.6526 251.031C59.1538 247.902 74.7865 226.001 74.7865 226.001V195.339C74.7865 195.339 77.2878 186.579 77.9131 184.076C78.5385 181.573 76.6626 177.193 76.6626 177.193C76.6626 177.193 97.2978 145.905 105.427 127.759C113.556 109.612 122.935 73.9447 122.935 44.5347C122.935 15.1247 123.561 10.7445 127.313 10.7445C131.065 10.7445 136.692 19.5049 141.069 22.6337C145.447 25.7624 155.452 23.8851 159.204 29.5168C162.955 35.1486 159.829 52.0437 157.327 54.5466C154.826 57.0496 147.948 55.7981 148.573 58.9269C149.199 62.0556 159.204 63.9328 162.955 59.5526C166.707 55.1724 169.208 43.909 169.834 40.7803C170.459 37.6515 167.958 23.2594 167.958 23.2594C167.958 23.2594 174.211 23.2594 174.836 19.5049C175.462 15.7505 168.583 10.7445 168.583 10.7445V5.11279L286.142 34.5228L303.025 37.6515C303.025 37.6515 398.072 56.4239 433.089 60.8041C468.107 65.1843 527.511 73.9447 556.276 76.4477C585.04 78.9507 683.214 83.3309 698.221 83.3309C713.228 83.3309 737.616 83.3309 737.616 83.3309L739.492 70.816L745.119 70.1903L750.747 86.4596L760.127 87.0854L764.504 92.7171C764.504 92.7171 771.382 94.5943 780.137 93.9686C788.891 93.3428 789.516 93.3428 789.516 93.3428C789.516 93.3428 792.643 98.3488 796.395 100.226C800.147 102.103 802.648 101.478 805.774 102.103C808.901 102.729 808.901 105.858 813.278 107.109C817.655 108.361 825.159 105.858 830.162 104.606C835.164 103.355 847.045 105.858 852.673 107.735C858.3 109.612 839.541 115.244 835.164 120.25C830.787 125.256 805.149 147.157 808.901 150.911C812.653 154.666 829.536 145.28 832.663 145.905C835.789 146.531 833.913 152.163 833.913 152.163L847.045 152.789C847.045 152.789 856.425 145.28 861.427 144.028C866.429 142.777 870.181 142.777 870.181 142.777L890.191 121.501H895.819C895.819 121.501 888.315 127.133 888.315 132.765C888.315 138.396 887.69 138.396 887.69 138.396C887.69 138.396 897.07 138.396 901.447 140.899C905.824 143.402 912.703 150.286 912.703 150.286L931.462 151.537C931.462 151.537 929.586 146.531 935.839 144.654C942.092 142.777 958.975 139.022 958.975 139.022L963.978 145.905H974.608L983.988 153.414V155.917L976.484 156.543L973.983 162.175C973.983 162.175 965.229 160.298 960.851 159.672C956.474 159.046 947.095 160.298 942.092 163.426C937.09 166.555 936.464 172.812 936.464 172.812C936.464 172.812 922.082 167.806 918.33 172.812C914.578 177.818 917.08 183.45 913.953 188.456C910.827 193.462 903.948 197.842 903.323 202.222C902.697 206.603 900.822 214.112 904.573 212.86C908.325 211.609 913.328 206.603 914.578 202.222C915.829 197.842 918.956 190.333 921.457 191.585C923.958 192.836 921.457 204.1 918.956 208.48C916.454 212.86 911.452 225.375 910.827 229.129C910.201 232.884 912.703 242.27 910.827 244.773C908.951 247.276 905.824 247.276 906.449 255.411C907.075 263.545 912.077 264.171 912.077 271.054C912.077 277.938 910.827 280.441 913.328 286.698C915.829 292.955 918.33 301.09 922.082 302.967C925.834 304.845 929.586 306.722 934.588 302.967C939.591 299.213 945.844 289.201 947.095 282.944C948.345 276.686 950.846 267.3 947.72 259.791C944.593 252.282 939.591 246.65 940.216 238.516C940.841 230.381 940.216 219.743 942.717 215.989C945.219 212.234 941.467 207.228 943.343 203.474C945.219 199.719 960.226 197.217 960.226 197.217C960.226 197.217 963.353 185.953 965.854 182.824C968.355 179.696 961.477 170.935 966.479 170.309C971.482 169.684 984.613 171.561 988.99 172.812C993.368 174.064 997.745 169.684 1000.25 175.315C1002.75 180.947 1003.37 185.327 1004.62 189.082C1005.87 192.836 1009 199.719 1007.75 204.725C1006.5 209.731 1000.25 222.246 1000.25 222.246C1000.25 222.246 996.494 230.381 999.621 230.381C1002.75 230.381 1009.63 219.118 1014.63 219.743C1019.63 220.369 1024.63 227.252 1026.51 232.884C1028.38 238.516 1032.14 246.65 1032.76 250.405C1033.39 254.159 1032.76 254.159 1028.38 259.791C1024.01 265.423 1021.51 274.183 1021.51 278.563C1021.51 282.944 1007.75 291.704 1012.75 292.33C1017.75 292.955 1025.26 299.213 1029.64 299.213C1034.01 299.213 1042.14 295.458 1047.14 293.581C1052.15 291.704 1056.52 291.078 1060.28 289.827C1064.03 288.575 1065.28 282.944 1069.66 281.066C1074.03 279.189 1078.41 280.441 1082.79 277.938C1087.16 275.435 1084.66 272.306 1089.67 267.926C1094.67 263.545 1107.8 257.288 1110.93 250.405C1114.05 243.522 1114.68 237.89 1112.18 237.89C1109.68 237.89 1108.42 233.51 1110.3 229.755C1112.18 226.001 1118.43 221.621 1122.81 220.995C1127.18 220.369 1155.95 221.621 1160.95 216.615C1165.95 211.609 1170.96 200.971 1170.96 195.339C1170.96 189.708 1168.45 179.696 1176.58 171.561C1184.71 163.426 1186.59 158.42 1186.59 158.42L1232.86 145.28C1232.86 145.28 1252.25 142.151 1256.62 139.022C1261 135.893 1261 126.507 1261 126.507L1271.01 127.133Z" fill="#05A1DB" fill-opacity="0.08" stroke="#0080B0" stroke-opacity="0.71" stroke-width="1.48996"/>
<path opacity="0.9" fill-rule="evenodd" clip-rule="evenodd" d="M955.224 660.894L950.222 640.87L1018.38 630.858L1026.51 642.121L1090.92 637.741C1090.92 637.741 1095.92 642.121 1098.42 642.121C1100.92 642.121 1100.92 625.226 1100.92 625.226L1116.55 627.729C1116.55 627.729 1120.93 652.133 1125.31 659.016C1129.69 665.899 1147.82 686.549 1146.57 684.046C1145.32 681.543 1153.45 708.45 1156.57 714.708C1159.7 720.965 1170.33 736.609 1170.96 744.118C1171.58 751.627 1179.09 776.656 1174.71 784.165C1170.33 791.674 1157.82 803.563 1152.82 796.68C1147.82 789.797 1137.19 774.153 1132.81 773.528C1128.44 772.902 1132.19 772.276 1131.56 767.896C1130.94 763.516 1122.18 759.135 1122.18 759.135C1122.18 759.135 1122.81 757.258 1121.56 754.755C1120.31 752.252 1105.92 749.749 1104.05 744.743C1102.17 739.737 1102.8 724.094 1102.8 724.094C1102.8 724.094 1093.42 721.591 1093.42 717.211C1093.42 712.83 1102.8 697.187 1094.67 688.426C1086.54 679.666 1076.53 681.543 1070.28 672.783C1064.03 664.022 1059.03 655.262 1052.15 655.888C1045.27 656.513 1029.01 672.783 1020.26 672.783C1011.5 672.783 1012.13 667.777 1007.75 664.648C1003.37 661.519 993.994 654.636 987.115 654.01C980.237 653.385 977.736 659.642 970.232 660.268C962.728 660.894 955.224 662.771 955.224 660.894Z" fill="#05A1DB" fill-opacity="0.08" stroke="#0080B0" stroke-opacity="0.71" stroke-width="1.48996"/>
<path opacity="0.9" fill-rule="evenodd" clip-rule="evenodd" d="M1116.55 627.729C1116.55 627.729 1114.68 612.711 1117.18 607.705C1119.68 602.699 1127.18 584.553 1127.18 584.553C1127.18 584.553 1109.68 565.78 1105.3 560.149C1100.92 554.517 1084.66 543.253 1075.28 530.739C1065.9 518.224 1074.03 520.101 1061.53 516.972C1049.02 513.843 1047.14 514.469 1049.02 511.966C1050.9 509.463 1051.52 504.457 1051.52 504.457L993.368 509.463C993.368 509.463 995.243 540.125 998.37 547.634C1001.5 555.143 1018.38 590.81 1018.38 594.565C1018.38 598.319 1012.75 600.822 1014 609.582C1015.25 618.343 1017.75 628.98 1017.75 628.98L1025.26 642.121L1090.92 637.741C1090.92 637.741 1095.92 642.121 1098.42 642.121C1100.92 642.121 1101.55 626.477 1101.55 626.477L1116.55 627.729Z" fill="#05A1DB" fill-opacity="0.08" stroke="#0080B0" stroke-opacity="0.71" stroke-width="1.48996"/>
<path opacity="0.9" fill-rule="evenodd" clip-rule="evenodd" d="M992.742 509.463C992.742 509.463 997.119 543.879 1002.75 556.394C1008.38 568.909 1022.76 591.436 1019.63 595.816C1016.5 600.196 1014 600.822 1014.63 607.08C1015.25 613.337 1017.75 630.232 1017.75 630.232L951.472 641.495L955.224 660.894C955.224 660.894 949.596 664.022 947.095 661.519C944.593 659.016 941.467 655.262 941.467 655.262C941.467 655.262 939.591 662.145 936.464 662.145C933.338 662.145 930.211 660.894 930.211 660.894C930.211 660.894 925.209 619.594 925.209 614.588C925.209 609.582 923.958 516.972 923.958 516.972L992.742 509.463Z" fill="#05A1DB" fill-opacity="0.08" stroke="#0080B0" stroke-opacity="0.71" stroke-width="1.48996"/>
<path opacity="0.9" fill-rule="evenodd" clip-rule="evenodd" d="M873.933 518.849L924.583 516.346C924.583 516.346 924.583 607.705 925.209 616.466C925.834 625.226 930.836 662.145 930.836 662.145L908.951 662.771L900.196 670.28L895.819 668.402V661.519C895.819 661.519 892.067 661.519 890.191 657.139C888.315 652.759 890.817 647.127 890.817 647.127L856.425 643.998C856.425 643.998 846.42 648.379 845.169 645.25C843.918 642.121 847.045 630.858 848.296 626.477C849.546 622.097 857.05 614.588 858.3 609.582C859.551 604.576 855.799 603.951 855.799 601.448C855.799 598.945 859.551 593.313 857.05 589.559C854.549 585.804 852.673 586.43 852.673 581.424C852.673 576.418 852.047 573.289 850.797 568.283C849.546 563.277 873.308 519.475 873.933 518.849Z" fill="#05A1DB" fill-opacity="0.08" stroke="#0080B0" stroke-opacity="0.71" stroke-width="1.48996"/>
<path opacity="0.9" fill-rule="evenodd" clip-rule="evenodd" d="M1127.18 583.927C1127.18 583.927 1106.55 561.4 1104.05 558.897C1101.55 556.394 1092.79 547.008 1087.79 543.879C1082.79 540.751 1069.66 521.352 1069.66 521.352C1069.66 521.352 1057.15 517.598 1052.77 512.592C1048.4 507.586 1050.9 501.954 1054.02 500.077C1057.15 498.2 1074.66 490.691 1077.16 490.691C1079.66 490.691 1105.92 487.562 1105.92 487.562L1114.05 496.948L1141.57 493.194C1141.57 493.194 1154.7 506.96 1159.08 510.715C1163.45 514.469 1176.58 520.101 1176.58 520.101C1176.58 520.101 1167.2 522.604 1165.95 527.61C1164.7 532.616 1164.7 540.125 1159.7 544.505C1154.7 548.885 1145.32 557.646 1142.19 561.4C1139.07 565.155 1127.81 584.553 1127.18 583.927Z" fill="#05A1DB" fill-opacity="0.08" stroke="#0080B0" stroke-opacity="0.71" stroke-width="1.48996"/>
<path opacity="0.9" fill-rule="evenodd" clip-rule="evenodd" d="M1140.94 493.194L1114.68 496.948L1105.92 487.562C1105.92 487.562 1082.79 487.562 1075.91 491.317C1069.03 495.071 1066.53 495.697 1062.15 496.948C1057.77 498.2 1052.77 501.329 1052.77 501.329L1024.01 506.335C1024.01 506.335 1020.88 497.574 1029.01 490.691C1037.14 483.808 1047.77 478.176 1050.27 475.673C1052.77 473.17 1052.77 467.538 1058.4 464.41C1064.03 461.281 1069.03 466.913 1072.78 461.281C1076.53 455.649 1082.16 446.263 1082.16 446.263C1082.16 446.263 1110.3 443.134 1122.18 441.257C1134.06 439.38 1220.36 421.233 1220.36 421.233L1222.86 416.853C1222.86 416.853 1237.24 436.251 1239.11 440.631C1240.99 445.012 1244.74 458.152 1235.99 464.41C1227.23 470.667 1215.35 484.434 1211.6 485.059C1207.85 485.685 1199.1 490.691 1197.84 495.071C1196.59 499.451 1194.09 511.966 1190.34 513.843C1186.59 515.721 1178.46 519.475 1178.46 519.475C1178.46 519.475 1164.08 518.849 1159.7 512.592C1155.32 506.335 1142.19 494.445 1140.94 493.194Z" fill="#05A1DB" fill-opacity="0.08" stroke="#0080B0" stroke-opacity="0.71" stroke-width="1.48996"/>
<path opacity="0.9" fill-rule="evenodd" clip-rule="evenodd" d="M1221.89 418.805C1222.33 414.823 1219.23 416.593 1216.14 413.053C1213.04 409.514 1209.95 403.761 1208.18 400.222C1206.41 396.682 1206.85 387.39 1203.31 382.523C1199.78 377.656 1186.07 375.443 1182.98 370.576C1179.88 365.709 1183.86 358.63 1180.32 354.205C1176.78 349.78 1170.15 345.356 1166.62 344.913C1163.08 344.471 1164.85 347.568 1160.87 348.453C1156.89 349.338 1147.16 349.78 1147.16 349.78C1147.16 349.78 1143.62 359.957 1142.3 361.727C1140.97 363.497 1138.76 364.382 1136.11 367.921C1133.45 371.461 1137.87 372.789 1133.9 375.886C1129.92 378.983 1122.84 380.753 1122.84 380.753C1122.84 380.753 1115.77 389.602 1113.56 395.355C1111.35 401.107 1108.25 404.646 1107.81 407.301C1107.37 409.956 1112.23 410.398 1107.37 412.611C1102.5 414.823 1093.66 422.345 1088.79 422.788C1083.93 423.23 1075.09 425 1073.32 424.557C1071.55 424.115 1070.67 420.575 1070.67 420.575C1070.67 420.575 1066.69 420.133 1063.59 423.673C1060.5 427.212 1058.73 431.194 1056.96 431.637C1055.19 432.079 1051.65 442.699 1048.12 443.584C1044.58 444.469 1036.62 451.991 1036.62 451.991C1036.62 451.991 1058.29 447.566 1061.38 447.566C1064.48 447.566 1084.37 445.796 1091.89 444.911C1099.41 444.026 1113.11 442.256 1120.63 441.371C1128.15 440.486 1169.27 432.079 1172.36 431.637C1175.46 431.194 1222.77 418.805 1221.89 418.805Z" fill="#05A1DB" fill-opacity="0.08" stroke="#0080B0" stroke-opacity="0.71" stroke-width="1.48996"/>
<path opacity="0.9" fill-rule="evenodd" clip-rule="evenodd" d="M1174.13 347.125L1178.55 338.719L1188.28 344.913L1181.65 353.32L1174.13 347.125Z" fill="#05A1DB" fill-opacity="0.08" stroke="#0080B0" stroke-opacity="0.71" stroke-width="1.48996"/>
<path opacity="0.9" fill-rule="evenodd" clip-rule="evenodd" d="M1198.45 373.231C1198.45 373.231 1190.49 339.604 1195.8 336.949C1201.1 334.294 1204.2 332.967 1204.2 332.967C1204.2 332.967 1200.22 347.568 1202.43 354.648C1204.64 361.727 1204.64 365.709 1208.18 367.479C1211.72 369.249 1218.35 374.116 1218.35 374.116C1218.35 374.116 1216.58 401.992 1219.67 401.992C1222.77 401.992 1228.08 376.328 1228.08 374.116C1228.08 371.904 1230.73 360.4 1230.73 360.4L1214.37 360.842L1205.08 322.79L1117.98 338.719L1123.73 351.108C1123.73 351.108 1136.11 337.834 1146.28 337.834C1156.45 337.834 1157.33 338.276 1159.98 340.046C1162.64 341.816 1164.85 345.356 1164.85 345.356C1164.85 345.356 1174.57 350.223 1174.13 348.895C1173.69 347.568 1178.55 340.489 1178.55 340.489L1189.17 345.356L1181.65 353.32C1181.65 353.32 1181.21 360.4 1181.21 363.054C1181.21 365.709 1179.88 369.249 1182.98 371.019C1186.07 372.789 1199.78 374.116 1198.45 373.231Z" fill="#05A1DB" fill-opacity="0.08" stroke="#0080B0" stroke-opacity="0.71" stroke-width="1.48996"/>
<path opacity="0.9" fill-rule="evenodd" clip-rule="evenodd" d="M1205.97 321.02L1213.93 362.169L1229.84 360.4C1229.84 360.4 1233.38 352.878 1229.84 349.78C1226.31 346.683 1223.21 347.126 1221.89 342.701C1220.56 338.276 1217.46 328.984 1216.14 326.329C1214.81 323.675 1213.93 316.153 1213.93 316.153L1205.97 321.02Z" fill="#05A1DB" fill-opacity="0.08" stroke="#0080B0" stroke-opacity="0.71" stroke-width="1.48996"/>
<path opacity="0.9" fill-rule="evenodd" clip-rule="evenodd" d="M1216.58 265.269L1241.34 277.215L1240.46 283.852C1240.46 283.852 1240.01 286.507 1239.57 289.162C1239.13 291.817 1244.44 293.144 1244.88 295.799C1245.32 298.454 1243.11 299.339 1243.11 302.436C1243.11 305.533 1245.32 314.383 1243.99 317.038C1242.67 319.692 1235.15 327.657 1235.15 329.869C1235.15 332.082 1236.03 334.736 1236.03 334.736C1236.03 334.736 1232.94 344.028 1231.17 342.258C1229.4 340.488 1231.17 336.949 1229.4 335.179C1227.63 333.409 1223.65 329.427 1221.89 329.427C1220.12 329.427 1218.79 330.312 1218.79 330.312L1213.48 317.923C1213.48 317.923 1218.79 313.94 1219.67 309.073C1220.56 304.206 1223.65 302.879 1221 299.781C1218.35 296.684 1215.25 297.569 1214.81 292.702C1214.37 287.835 1213.04 276.773 1213.48 273.676C1213.93 270.578 1216.58 264.384 1216.58 265.269Z" fill="#05A1DB" fill-opacity="0.08" stroke="#0080B0" stroke-opacity="0.71" stroke-width="1.48996"/>
<path opacity="0.9" fill-rule="evenodd" clip-rule="evenodd" d="M1217.91 265.711L1242.22 277.658L1240.46 285.18C1240.46 285.18 1246.2 280.755 1251.51 278.985C1256.82 277.215 1264.77 276.33 1267.43 274.561C1270.08 272.791 1282.02 265.269 1282.02 263.056C1282.02 260.844 1282.9 258.189 1282.9 258.189C1282.9 258.189 1266.1 263.056 1263.89 265.269C1261.68 267.481 1252.39 276.773 1249.74 274.561C1247.09 272.348 1241.78 270.578 1241.78 268.366C1241.78 266.154 1240.01 239.606 1240.46 233.853C1240.9 228.101 1240.9 209.075 1240.46 207.305C1240.01 205.535 1235.15 192.704 1234.27 190.934C1233.38 189.164 1228.96 184.739 1228.08 182.085C1227.19 179.43 1224.98 163.501 1224.54 159.076C1224.1 154.652 1221.44 150.227 1221.44 150.227L1186.51 157.749C1186.51 157.749 1185.19 162.616 1180.76 167.041C1176.34 171.465 1172.36 175.89 1171.48 183.855C1170.59 191.819 1172.81 198.898 1167.94 207.305C1163.08 215.712 1166.62 218.81 1159.1 218.81C1151.58 218.81 1133.9 221.022 1131.68 221.022C1129.47 221.022 1124.61 218.81 1119.75 221.464C1114.88 224.119 1107.81 228.101 1109.13 231.641C1110.46 235.181 1115.32 239.163 1115.32 239.163L1109.58 252.88C1109.58 252.88 1098.96 258.632 1099.41 262.171C1099.85 265.711 1107.81 266.596 1111.34 266.154C1114.88 265.711 1187.84 251.995 1187.84 251.995C1187.84 251.995 1198.45 246.243 1202.87 249.782C1207.29 253.322 1209.06 256.862 1211.27 259.074C1213.48 261.287 1219.23 265.711 1217.91 265.711Z" fill="#05A1DB" fill-opacity="0.08" stroke="#0080B0" stroke-opacity="0.71" stroke-width="1.48996"/>
<path opacity="0.9" fill-rule="evenodd" clip-rule="evenodd" d="M1241.34 236.066C1241.34 236.066 1258.14 233.853 1261.68 232.526C1265.22 231.199 1280.69 229.429 1282.46 230.756C1284.23 232.084 1286.44 236.508 1286.44 240.048C1286.44 243.588 1287.33 246.685 1282.46 250.225C1277.6 253.765 1262.56 259.074 1259.03 261.286C1255.49 263.499 1248.42 266.596 1248.42 268.366C1248.42 270.136 1248.42 270.578 1248.42 270.578L1242.67 269.251C1242.67 269.251 1240.46 260.844 1240.46 255.092C1240.46 249.34 1241.78 236.951 1241.34 236.066Z" fill="#05A1DB" fill-opacity="0.08" stroke="#0080B0" stroke-opacity="0.71" stroke-width="1.48996"/>
<path opacity="0.9" fill-rule="evenodd" clip-rule="evenodd" d="M1289.98 228.544L1293.96 233.854L1297.94 238.278C1297.94 238.278 1295.28 238.721 1293.52 240.933C1291.75 243.145 1291.3 248.897 1289.09 248.455C1286.88 248.012 1286.88 244.03 1286.88 240.048C1286.88 236.066 1284.23 232.084 1284.23 232.084C1284.23 232.084 1281.13 228.101 1289.98 228.544Z" fill="#05A1DB" fill-opacity="0.08" stroke="#0080B0" stroke-opacity="0.71" stroke-width="1.48996"/>
<path opacity="0.9" fill-rule="evenodd" clip-rule="evenodd" d="M1241.78 235.623C1241.78 235.623 1278.04 229.429 1282.02 228.986C1286 228.544 1291.3 226.774 1293.07 230.756C1294.84 234.738 1298.82 240.048 1301.92 238.278C1305.01 236.508 1303.69 234.296 1306.34 233.411C1308.99 232.526 1313.85 234.296 1316.95 232.969C1320.05 231.641 1326.24 228.101 1325.79 225.447C1325.35 222.792 1325.35 218.367 1322.26 218.367C1319.16 218.367 1319.16 225.447 1314.74 225.447C1310.32 225.447 1298.38 219.695 1297.94 216.597C1297.49 213.5 1301.03 209.518 1300.15 205.978C1299.26 202.438 1300.59 197.571 1297.05 197.571C1293.52 197.571 1289.98 205.978 1285.56 206.42C1281.14 206.863 1265.66 208.633 1262.12 209.518C1258.58 210.403 1241.78 214.385 1241.78 214.385V235.623Z" fill="#05A1DB" fill-opacity="0.08" stroke="#0080B0" stroke-opacity="0.71" stroke-width="1.48996"/>
<path opacity="0.9" fill-rule="evenodd" clip-rule="evenodd" d="M1297.49 197.129C1297.49 197.129 1294.84 190.934 1295.73 189.164C1296.61 187.394 1289.98 187.394 1287.77 182.97C1285.56 178.545 1270.97 127.661 1270.97 127.661L1264.33 126.776L1259.03 139.165C1259.03 139.165 1267.43 148.9 1266.54 152.882C1265.66 156.864 1261.24 161.731 1260.35 164.828C1259.47 167.926 1256.82 211.288 1256.82 211.288C1256.82 211.288 1286.88 208.19 1288.65 205.978C1290.42 203.766 1298.82 197.571 1297.49 197.129Z" fill="#05A1DB" fill-opacity="0.08" stroke="#0080B0" stroke-opacity="0.71" stroke-width="1.48996"/>
<path opacity="0.9" fill-rule="evenodd" clip-rule="evenodd" d="M1243.11 214.385L1257.26 210.845L1260.8 165.271C1260.8 165.271 1269.2 156.864 1267.87 152.882C1266.54 148.9 1259.91 140.05 1259.91 140.05L1222.33 148.457C1222.33 148.457 1227.19 161.731 1225.87 166.156C1224.54 170.581 1226.31 180.757 1228.96 184.297C1231.61 187.837 1240.01 198.456 1239.13 201.111C1238.25 203.766 1241.78 215.712 1243.11 214.385Z" fill="#05A1DB" fill-opacity="0.08" stroke="#0080B0" stroke-opacity="0.71" stroke-width="1.48996"/>
<path opacity="0.9" fill-rule="evenodd" clip-rule="evenodd" d="M1296.17 188.279C1296.17 188.279 1292.63 187.837 1289.98 184.74C1287.32 181.642 1270.52 127.219 1270.52 127.219C1270.52 127.219 1278.48 110.847 1278.92 108.192C1279.37 105.538 1277.16 74.5649 1279.81 70.1402C1282.46 65.7155 1288.65 50.2291 1291.3 50.2291C1293.96 50.2291 1294.4 55.5387 1297.49 55.5387C1300.59 55.5387 1305.01 46.2469 1307.66 45.8044C1310.32 45.362 1316.95 43.5921 1319.6 48.0168C1322.26 52.4414 1329.77 87.3965 1332.87 89.6088C1335.96 91.8212 1342.15 93.1486 1342.59 94.9184C1343.04 96.6883 1342.15 101.555 1344.36 102.883C1346.57 104.21 1356.74 105.538 1358.07 109.077C1359.4 112.617 1360.28 117.927 1355.86 121.467C1351.44 125.006 1347.9 124.564 1347.02 126.334C1346.13 128.104 1347.46 130.758 1341.27 135.626C1335.08 140.493 1329.77 137.395 1326.68 138.723C1323.58 140.05 1324.91 148.015 1320.93 152.882C1316.95 157.749 1309.88 159.961 1306.78 162.616C1303.68 165.271 1295.73 189.164 1296.17 188.279Z" fill="#05A1DB" fill-opacity="0.08" stroke="#0080B0" stroke-opacity="0.71" stroke-width="1.48996"/>
<path opacity="0.9" fill-rule="evenodd" clip-rule="evenodd" d="M1217.46 266.596C1217.46 266.596 1205.97 247.128 1200.66 248.012C1195.36 248.897 1179.88 254.65 1171.92 255.977C1163.96 257.304 1122.4 263.941 1122.4 263.941C1122.4 263.941 1108.25 267.481 1104.27 266.154C1100.29 264.826 1098.97 261.729 1098.97 261.729C1098.97 261.729 1091.89 266.596 1090.12 269.251C1088.35 271.906 1084.37 276.773 1084.37 276.773C1084.37 276.773 1088.35 305.091 1089.68 310.401C1091.01 315.71 1095.87 340.488 1095.87 340.488C1095.87 340.488 1110.46 339.161 1127.26 336.506C1144.07 333.851 1204.2 322.79 1204.2 322.79C1204.2 322.79 1204.64 320.135 1207.29 317.923C1209.95 315.71 1211.72 321.02 1214.37 317.48C1217.02 313.94 1224.1 302.879 1222.77 301.109C1221.44 299.339 1219.68 300.224 1217.02 296.242C1214.37 292.259 1212.6 277.215 1213.04 274.118C1213.48 271.021 1217.91 267.039 1217.46 266.596Z" fill="#05A1DB" fill-opacity="0.08" stroke="#0080B0" stroke-opacity="0.71" stroke-width="1.48996"/>
<path opacity="0.9" fill-rule="evenodd" clip-rule="evenodd" d="M1084.37 276.331C1084.37 276.331 1072.44 278.1 1068.9 280.313C1065.36 282.525 1064.92 286.95 1060.5 288.72C1056.07 290.49 1059.61 289.605 1051.65 291.374C1043.69 293.144 1039.27 299.339 1033.52 299.339C1027.78 299.339 1028.22 294.472 1021.14 293.587C1014.07 292.702 1010.09 290.932 1002.57 293.144C995.057 295.357 986.656 297.569 986.656 297.569C986.656 297.569 985.329 324.117 987.982 331.197C990.635 338.276 992.846 358.187 992.846 362.169C992.846 366.152 994.615 380.311 994.615 380.311L1003.02 378.983C1003.02 378.983 1007.44 384.293 1010.97 385.62C1014.51 386.948 1028.22 389.16 1032.2 389.16C1036.18 389.16 1037.95 385.62 1039.72 385.62C1041.48 385.62 1053.42 391.815 1053.42 391.815C1053.42 391.815 1057.84 378.541 1058.73 374.116C1059.61 369.691 1071.11 360.4 1075.09 356.86C1079.07 353.32 1087.47 342.258 1087.47 342.258C1087.47 342.258 1091.01 315.71 1091.01 312.17C1091.01 308.631 1083.93 277.658 1084.37 276.331Z" fill="#05A1DB" fill-opacity="0.08" stroke="#0080B0" stroke-opacity="0.71" stroke-width="1.48996"/>
<path opacity="0.9" fill-rule="evenodd" clip-rule="evenodd" d="M1091.01 312.17L1097.64 342.258L1116.21 338.719L1123.73 351.108C1123.73 351.108 1137.43 337.391 1143.18 337.391C1148.93 337.391 1158.66 335.621 1161.31 340.488C1163.96 345.356 1160.87 349.338 1156.89 349.338C1152.91 349.338 1146.28 349.338 1146.28 349.338L1142.3 364.824L1136.11 368.806C1136.11 368.806 1140.97 367.921 1136.55 373.231C1132.13 378.541 1122.4 381.196 1122.4 381.196L1115.32 393.585L1109.13 406.416C1109.13 406.416 1114 409.071 1110.46 411.283C1106.92 413.496 1102.94 415.708 1099.85 417.478C1096.75 419.248 1076.86 425.442 1074.65 424.557C1072.43 423.672 1075.09 424.557 1070.22 420.133C1065.36 415.708 1055.63 411.283 1054.75 407.301C1053.86 403.319 1052.1 398.452 1052.1 391.372C1052.1 384.293 1058.73 375.886 1059.17 371.904C1059.61 367.921 1086.14 345.798 1087.47 343.143C1088.79 340.488 1091.01 311.728 1091.01 312.17Z" fill="#05A1DB" fill-opacity="0.08" stroke="#0080B0" stroke-opacity="0.71" stroke-width="1.48996"/>
<path opacity="0.9" fill-rule="evenodd" clip-rule="evenodd" d="M921.658 465.707L919.889 461.282C919.889 461.282 951.283 459.07 964.106 458.628C976.928 458.185 1038.39 451.106 1038.39 451.106C1038.39 451.106 1047.23 446.238 1049.88 443.141C1052.54 440.044 1056.08 434.292 1058.73 431.195C1061.38 428.097 1069.78 420.133 1069.78 420.133C1069.78 420.133 1060.94 415.708 1058.29 411.283C1055.63 406.859 1057.4 399.779 1052.1 393.585C1046.79 387.39 1044.58 384.735 1040.6 385.178C1036.62 385.62 1036.62 389.16 1033.08 389.16C1029.55 389.16 1024.24 387.39 1019.38 386.505C1014.51 385.62 1010.97 386.063 1009.21 383.85C1007.44 381.638 1003.9 378.541 1003.9 378.541L995.941 378.983L995.499 385.62C995.499 385.62 985.771 388.275 982.676 394.47C979.581 400.664 979.139 407.744 974.275 409.956C969.411 412.168 962.337 414.381 959.684 414.381C957.031 414.381 957.915 417.036 953.051 418.363C948.188 419.69 939.344 420.575 932.712 421.903C926.08 423.23 922.542 425.442 919.889 428.54C917.236 431.637 919.005 437.832 919.005 437.832L914.583 439.601L912.373 447.123C912.373 447.123 904.856 448.451 902.645 448.451C900.434 448.451 896.897 450.663 896.897 450.663C896.897 450.663 898.223 459.955 896.897 462.167C895.57 464.38 891.149 469.689 891.149 469.689C891.149 469.689 903.087 467.034 907.067 467.034C911.046 467.034 921.658 466.15 921.658 465.707Z" fill="#05A1DB" fill-opacity="0.08" stroke="#0080B0" stroke-opacity="0.71" stroke-width="1.48996"/>
<path opacity="0.9" fill-rule="evenodd" clip-rule="evenodd" d="M921.215 461.725C921.215 461.725 1025.12 454.203 1031.31 453.318C1037.5 452.433 1082.16 446.238 1082.16 446.238C1082.16 446.238 1073.32 460.84 1071.55 463.052C1069.78 465.265 1066.24 462.61 1059.61 463.937C1052.98 465.265 1057.84 468.804 1051.65 474.556C1045.46 480.309 1034.85 483.848 1030.43 490.928C1026.01 498.007 1025.12 506.414 1025.12 506.414C1025.12 506.414 1000.36 510.396 992.846 510.396C985.329 510.396 959.683 513.494 946.861 514.821C934.038 516.148 900.434 517.033 893.801 517.918C887.169 518.803 873.904 517.033 873.904 517.033C873.904 517.033 873.462 499.335 879.652 494.025C885.843 488.715 890.706 471.017 890.706 471.017L922.542 466.15L921.215 461.725Z" fill="#05A1DB" fill-opacity="0.08" stroke="#0080B0" stroke-opacity="0.71" stroke-width="1.48996"/>
<path opacity="0.9" fill-rule="evenodd" clip-rule="evenodd" d="M892.475 646.677C892.475 646.677 887.612 655.084 889.822 657.296C892.033 659.508 897.339 662.606 897.339 662.606C897.339 662.606 896.013 663.491 896.897 665.703C897.781 667.915 899.992 669.243 899.992 669.243L894.686 677.65L904.414 678.534C904.414 678.534 895.57 683.402 898.223 687.826C900.876 692.251 910.604 696.676 912.373 697.118C914.141 697.561 912.815 702.87 909.278 703.755C905.74 704.64 893.802 695.791 891.591 695.791C889.38 695.791 887.17 701.1 883.19 701.1C879.211 701.1 872.136 700.215 872.136 700.215C872.136 700.215 871.252 705.968 865.061 703.755C858.871 701.543 858.429 699.33 854.892 694.021C851.354 688.711 850.028 686.941 843.838 686.056C837.647 685.172 836.321 687.826 830.131 689.154C823.94 690.481 814.655 691.809 811.118 690.039C807.58 688.269 797.411 683.844 792.547 683.844C787.683 683.844 784.146 685.172 784.146 685.172C784.146 685.172 787.683 670.57 789.01 664.375C790.336 658.181 791.663 642.695 789.894 640.482C788.125 638.27 782.819 634.288 783.261 629.863C783.704 625.438 777.956 614.819 777.956 614.819L777.071 582.519L851.797 583.404C851.797 583.404 859.756 589.598 858.871 592.253C857.987 594.908 856.66 600.218 856.66 600.218C856.66 600.218 860.198 600.66 859.313 605.97C858.429 611.279 852.681 618.359 850.912 623.226C849.144 628.093 844.28 643.579 846.933 644.907C849.586 646.234 857.987 643.137 865.503 643.579C873.02 644.022 892.033 646.677 892.475 646.677Z" fill="#05A1DB" fill-opacity="0.08" stroke="#0080B0" stroke-opacity="0.71" stroke-width="1.48996"/>
<path opacity="0.9" fill-rule="evenodd" clip-rule="evenodd" d="M853.565 584.289C853.565 584.289 854.007 579.421 853.123 575.882C852.238 572.342 849.585 574.554 850.47 568.36C851.354 562.165 874.789 519.688 874.789 519.688C874.789 519.688 874.789 513.936 875.673 505.972C876.557 498.007 884.958 486.946 884.958 486.946L868.598 485.176C868.598 485.176 873.904 476.326 874.346 474.556C874.789 472.787 762.037 476.769 762.037 476.769L762.922 566.147L775.302 571.457L775.744 582.076L853.565 584.289Z" fill="#05A1DB" fill-opacity="0.08" stroke="#0080B0" stroke-opacity="0.71" stroke-width="1.48996"/>
<path opacity="0.9" fill-rule="evenodd" clip-rule="evenodd" d="M875.231 474.999L869.483 486.946L884.517 487.388C884.517 487.388 888.938 474.556 891.149 471.017C893.36 467.477 897.339 451.991 897.339 451.991L889.38 451.548C889.38 451.548 886.285 438.716 883.19 434.734C880.095 430.752 864.177 418.363 864.177 418.363L865.062 397.567L855.776 394.912C855.776 394.912 848.259 381.638 844.722 377.656C841.185 373.674 831.899 366.152 832.342 362.612C832.784 359.072 834.11 352.435 834.11 352.435C834.11 352.435 825.267 344.913 818.634 344.913C812.002 344.913 795.2 346.683 789.894 346.683C784.588 346.683 730.644 344.913 730.644 344.913C730.644 344.913 732.855 358.187 737.719 362.169C742.583 366.152 748.331 365.267 748.331 368.806C748.331 372.346 745.236 380.311 747.447 383.408C749.657 386.505 756.732 390.93 757.616 394.027C758.5 397.124 761.154 455.088 760.711 460.84C760.269 466.592 761.154 477.211 761.154 477.211L875.231 474.999Z" fill="#05A1DB" fill-opacity="0.08" stroke="#0080B0" stroke-opacity="0.71" stroke-width="1.48996"/>
<path opacity="0.9" fill-rule="evenodd" clip-rule="evenodd" d="M986.214 294.472C986.214 294.472 984.445 318.365 986.214 326.329C987.982 334.294 992.846 343.143 992.846 351.993C992.846 360.842 995.057 386.063 995.057 386.063C995.057 386.063 987.098 389.16 985.329 392.257C983.561 395.355 987.54 405.531 978.255 408.186C968.969 410.841 959.242 415.266 959.242 415.266C959.242 415.266 946.419 419.248 940.671 419.69C934.923 420.133 922.1 426.327 922.1 426.327C922.1 426.327 923.427 411.726 928.29 403.319C933.154 394.912 927.848 367.037 927.848 363.054C927.848 359.072 922.984 333.851 922.984 325.887C922.984 317.923 923.427 304.649 923.427 304.649C923.427 304.649 928.29 306.861 932.712 305.533C937.134 304.206 940.671 297.569 940.671 297.569L986.214 294.472Z" fill="#05A1DB" fill-opacity="0.08" stroke="#0080B0" stroke-opacity="0.71" stroke-width="1.48996"/>
<path opacity="0.9" fill-rule="evenodd" clip-rule="evenodd" d="M941.113 298.454L986.213 294.914L987.097 296.242L1011.86 291.374L1021.14 279.87C1021.14 279.87 1022.03 274.561 1024.24 267.924C1026.45 261.287 1032.64 259.959 1033.08 255.534C1033.52 251.11 1029.54 240.048 1028.22 235.181C1026.89 230.314 1024.68 221.907 1018.05 221.022C1011.42 220.137 1000.8 229.871 1000.8 229.871C1000.8 229.871 997.267 225.004 1001.25 219.252C1005.23 213.5 1008.32 208.19 1008.32 203.323C1008.32 198.456 1004.78 193.146 1004.34 188.279C1003.9 183.412 1009.21 180.315 1003.02 177.66C996.825 175.005 975.159 169.696 971.18 170.581C967.2 171.465 967.642 176.775 966.316 181.2C964.989 185.624 962.779 194.916 962.336 196.686C961.894 198.456 947.745 201.996 945.976 203.766C944.208 205.536 943.323 216.155 941.113 220.137C938.902 224.119 940.67 238.278 941.113 243.588C941.555 248.897 951.282 256.862 949.071 264.384C946.861 271.906 953.935 279.428 948.187 286.065C942.439 292.702 942.439 300.224 941.113 298.454Z" fill="#05A1DB" fill-opacity="0.08" stroke="#0080B0" stroke-opacity="0.71" stroke-width="1.48996"/>
<path opacity="0.9" fill-rule="evenodd" clip-rule="evenodd" d="M910.161 279.87C910.161 279.87 914.141 290.489 916.352 294.472C918.562 298.454 923.868 303.764 923.868 303.764C923.868 303.764 923.426 324.117 923.426 329.427C923.426 334.736 929.616 370.134 929.616 377.213C929.616 384.293 928.29 399.337 927.406 405.531C926.521 411.726 922.984 426.77 922.984 426.77L920.331 431.637V437.389L915.467 440.486L913.256 447.123C913.256 447.123 900.876 447.123 899.107 448.451C897.339 449.778 891.148 451.106 891.148 451.106C891.148 451.106 886.727 435.619 883.632 433.407C880.537 431.194 864.177 417.036 864.177 417.036L866.387 396.24H855.333C855.333 396.24 850.912 388.718 847.374 382.08C843.837 375.443 836.321 370.134 834.994 365.267C833.668 360.4 835.436 344.913 836.321 342.701C837.205 340.488 840.742 338.719 840.742 338.719L842.511 321.462C842.511 321.462 848.701 316.595 851.354 314.383C854.007 312.17 857.544 308.188 857.544 308.188L858.429 296.242C858.429 296.242 854.007 293.144 852.68 291.374C851.354 289.605 848.259 283.41 848.259 283.41L910.161 279.87Z" fill="#05A1DB" fill-opacity="0.08" stroke="#0080B0" stroke-opacity="0.71" stroke-width="1.48996"/>
<path opacity="0.9" fill-rule="evenodd" clip-rule="evenodd" d="M911.489 279.87C911.489 278.1 914.584 271.463 913.258 268.366C911.931 265.269 907.51 259.959 907.067 255.977C906.625 251.995 911.931 247.128 911.931 243.588C911.931 240.048 911.047 236.066 911.489 232.084C911.931 228.101 920.774 206.863 921.659 203.323C922.543 199.783 921.217 190.934 921.217 190.934C921.217 190.934 915.469 202.438 913.7 204.651C911.931 206.863 904.414 213.057 904.414 213.057C904.414 213.057 902.646 206.42 903.53 203.766C904.414 201.111 908.836 193.589 908.836 193.589C908.836 193.589 905.741 190.049 904.857 186.952C903.972 183.855 901.761 175.89 901.761 175.89C901.761 175.89 886.286 169.696 877.885 167.041C869.484 164.386 847.376 152.882 847.376 152.882L834.111 151.554C834.111 151.554 835.879 146.687 832.342 146.687C828.805 146.687 816.866 152.882 816.866 152.882C816.866 152.882 807.581 151.554 805.37 152.882C803.159 154.209 803.602 171.023 803.602 171.023C803.602 171.023 797.411 178.102 796.085 180.757C794.758 183.412 794.316 214.827 798.738 217.482C803.159 220.137 808.023 220.579 811.56 223.677C815.098 226.774 823.941 232.526 826.594 236.951C829.247 241.375 831.458 244.915 831.458 251.552C831.458 258.189 833.669 270.578 837.206 273.676C840.743 276.773 849.586 284.737 849.586 284.737L911.489 279.87Z" fill="#05A1DB" fill-opacity="0.08" stroke="#0080B0" stroke-opacity="0.71" stroke-width="1.48996"/>
<path opacity="0.9" fill-rule="evenodd" clip-rule="evenodd" d="M901.319 174.563C901.319 174.563 905.298 186.952 906.625 189.607C907.951 192.262 910.162 193.146 910.162 193.146C910.162 193.146 915.468 190.049 915.468 186.952C915.468 183.855 914.141 178.103 918.121 175.005C922.1 171.908 934.039 172.35 935.807 172.35C937.576 172.35 936.249 163.059 943.766 161.731C951.283 160.404 958.8 157.306 962.779 157.749C966.759 158.191 970.296 163.501 972.065 162.616C973.833 161.731 972.949 158.191 975.602 157.749C978.255 157.306 982.676 158.634 983.561 156.422C984.445 154.209 981.792 148.457 976.928 147.13C972.065 145.802 964.548 146.245 964.548 146.245C964.548 146.245 967.201 142.705 960.568 140.05C953.936 137.395 951.725 143.59 947.303 143.59C942.882 143.59 940.229 143.59 937.134 145.802C934.039 148.015 934.481 150.669 931.828 151.112C929.175 151.554 912.815 151.554 912.815 151.554C912.815 151.554 907.509 144.032 903.53 142.263C899.55 140.493 891.149 141.378 889.38 139.165C887.612 136.953 886.285 132.086 889.38 128.546C892.476 125.006 896.455 121.909 896.455 121.909H891.591L870.81 143.59C870.81 143.59 864.619 143.59 860.64 144.917C856.66 146.245 848.259 152.439 848.259 152.439C848.259 152.439 864.619 162.174 869.041 163.501C873.463 164.828 878.326 168.368 884.074 169.253C889.823 170.138 901.319 174.12 901.319 174.563Z" fill="#05A1DB" fill-opacity="0.08" stroke="#0080B0" stroke-opacity="0.71" stroke-width="1.48996"/>
<path opacity="0.9" fill-rule="evenodd" clip-rule="evenodd" d="M831.899 252.437C831.899 252.437 831.899 271.906 835.879 273.676C839.858 275.445 846.933 281.198 848.702 282.967C850.47 284.737 849.586 289.162 851.797 291.374C854.007 293.587 858.871 297.569 858.871 297.569C858.871 297.569 858.871 308.631 856.66 309.958C854.45 311.285 843.838 317.48 843.396 320.577C842.953 323.675 842.069 335.621 840.743 338.276C839.416 340.931 837.205 342.701 837.205 342.701L835.437 351.55C835.437 351.55 826.151 345.798 823.498 345.355C820.845 344.913 796.084 346.683 792.105 346.683C788.125 346.683 752.753 345.798 752.753 345.798L730.644 344.471C730.644 344.471 725.781 322.347 724.454 317.922C723.128 313.498 714.727 288.277 713.842 285.622C712.958 282.967 716.938 273.233 714.285 270.136C711.632 267.039 709.863 259.517 711.189 257.747C712.516 255.977 739.93 255.092 745.678 254.649C751.426 254.207 788.568 253.765 792.105 253.765C795.642 253.765 832.784 252.88 831.899 252.437Z" fill="#05A1DB" fill-opacity="0.08" stroke="#0080B0" stroke-opacity="0.71" stroke-width="1.48996"/>
<path opacity="0.9" fill-rule="evenodd" clip-rule="evenodd" d="M832.342 252.437C832.342 252.437 831.015 235.623 823.941 232.526C816.866 229.429 816.866 223.234 809.349 221.464C801.832 219.695 802.717 223.677 798.737 217.482C794.758 211.288 795.642 202.438 795.642 198.456C795.642 194.474 796.969 185.182 797.411 181.642C797.853 178.102 805.37 175.448 805.812 172.35C806.254 169.253 801.832 153.767 804.043 152.882C806.254 151.997 809.791 154.209 809.791 150.227C809.791 146.245 818.635 137.395 820.845 133.856C823.056 130.316 829.246 123.236 835.437 119.697C841.627 116.157 860.198 113.502 856.218 109.52C852.239 105.538 847.375 108.192 843.396 106.865C839.416 105.538 838.09 103.768 834.11 103.768C830.131 103.768 818.635 108.192 815.097 107.75C811.56 107.307 812.886 105.095 808.907 103.325C804.928 101.555 800.506 101.998 798.737 101.555C796.969 101.113 792.989 95.3608 790.778 93.591C788.568 91.8211 766.017 94.0334 766.017 94.0334C766.017 94.0334 763.364 87.8389 759.385 87.3964C755.405 86.9539 751.426 86.9539 751.426 86.9539L745.678 71.4675H740.372L737.277 82.5292L698.809 82.0868C698.809 82.0868 698.809 104.21 698.809 106.865C698.809 109.52 704.999 121.024 704.557 128.104C704.115 135.183 707.652 158.191 707.652 161.289C707.652 164.386 708.536 168.368 709.421 171.908C710.305 175.448 705.441 182.527 706.768 187.394C708.094 192.261 713.842 197.129 713.842 197.129L713.4 257.304L832.342 252.437Z" fill="#05A1DB" fill-opacity="0.08" stroke="#0080B0" stroke-opacity="0.71" stroke-width="1.48996"/>
<path opacity="0.9" fill-rule="evenodd" clip-rule="evenodd" d="M699.251 82.9717C699.251 82.9717 697.483 107.308 698.809 110.847C700.136 114.387 704.557 115.714 705 125.006C705.442 134.298 707.653 156.864 707.653 160.404C707.653 163.943 711.632 172.35 710.306 174.563C708.979 176.775 707.21 179.872 707.21 179.872C707.21 179.872 683.334 178.545 672.722 177.218C662.11 175.89 637.349 174.12 628.948 174.12C620.547 174.12 589.153 172.35 582.079 171.465C575.004 170.581 546.706 170.58 546.706 170.58C546.706 170.58 551.128 135.625 551.57 131.643C552.012 127.661 553.78 96.6883 554.223 91.8211C554.665 86.9539 555.549 74.5648 555.549 74.5648C555.549 74.5648 616.125 78.1046 621.431 79.8744C626.737 81.6443 662.11 80.7594 668.3 82.0868C674.49 83.4142 699.694 82.9717 699.251 82.9717Z" fill="#05A1DB" fill-opacity="0.08" stroke="#0080B0" stroke-opacity="0.71" stroke-width="1.48996"/>
<path opacity="0.9" fill-rule="evenodd" clip-rule="evenodd" d="M706.325 180.757C706.325 180.757 706.325 188.722 708.536 191.377C710.747 194.031 715.611 198.899 715.611 198.899L712.958 255.092C712.958 255.092 710.747 255.977 710.747 257.747C710.747 259.517 716.495 270.136 716.495 272.791C716.495 275.446 714.284 284.295 714.284 284.295C714.284 284.295 702.346 275.888 697.924 275.446C693.503 275.003 684.659 274.118 684.659 274.118L679.354 277.215C679.354 277.215 677.585 271.021 666.531 269.694C655.477 268.366 624.968 266.596 606.397 266.154C587.826 265.711 562.623 262.614 556.875 262.614C551.127 262.614 539.631 263.941 539.631 263.941C539.631 263.941 544.494 230.756 544.052 225.889C543.61 221.022 547.589 198.456 547.147 190.492C546.705 182.527 548.032 170.138 548.032 170.138C548.032 170.138 589.153 171.908 598.438 172.793C607.723 173.678 639.559 173.678 650.171 174.563C660.783 175.448 688.197 178.103 693.503 178.103C698.809 178.103 706.768 180.315 706.325 180.757Z" fill="#05A1DB" fill-opacity="0.08" stroke="#0080B0" stroke-opacity="0.71" stroke-width="1.48996"/>
<path opacity="0.9" fill-rule="evenodd" clip-rule="evenodd" d="M535.209 324.117L579.425 330.754L581.636 361.284C581.636 361.284 641.327 361.727 645.749 361.727C650.171 361.727 690.407 363.939 694.387 363.939C698.366 363.939 740.814 363.939 740.814 363.939C740.814 363.939 734.181 359.515 731.528 346.241C728.875 332.966 725.78 316.595 723.127 312.613C720.474 308.631 719.148 296.684 716.495 292.702C713.842 288.72 714.284 283.852 714.284 283.852C714.284 283.852 702.346 273.676 694.387 273.676C686.428 273.676 680.68 277.658 680.68 277.658C680.68 277.658 675.816 271.021 672.279 270.136C668.741 269.251 638.675 267.039 633.369 267.039C628.063 267.039 597.996 266.154 594.016 265.269C590.037 264.384 567.929 262.171 559.97 262.171C552.011 262.171 544.052 262.614 541.841 263.499C539.63 264.384 537.42 298.896 536.535 300.666C535.651 302.436 534.767 323.675 535.209 324.117Z" fill="#05A1DB" fill-opacity="0.08" stroke="#0080B0" stroke-opacity="0.71" stroke-width="1.48996"/>
<path opacity="0.9" fill-rule="evenodd" clip-rule="evenodd" d="M583.405 359.957C583.405 359.957 643.096 361.284 654.593 362.169C666.089 363.054 696.156 365.709 704.999 364.382C713.842 363.054 740.372 363.939 740.372 363.939L747.004 367.921C747.004 367.921 744.794 378.541 746.562 381.196C748.331 383.85 757.616 390.045 758.501 394.47C759.385 398.894 757.616 423.673 757.616 428.982C757.616 434.292 760.711 460.397 760.711 460.397C760.711 460.397 723.128 459.513 712.074 459.513C701.02 459.513 659.014 459.07 653.266 459.07C647.518 459.07 604.186 457.743 599.322 456.858C594.459 455.973 574.561 455.088 574.561 455.088C574.561 455.088 577.657 416.151 577.657 410.398C577.657 404.646 583.405 359.957 583.405 359.957Z" fill="#05A1DB" fill-opacity="0.08" stroke="#0080B0" stroke-opacity="0.71" stroke-width="1.48996"/>
<path opacity="0.9" fill-rule="evenodd" clip-rule="evenodd" d="M549.358 455.973C549.358 455.973 571.908 452.875 575.445 453.318C578.983 453.76 637.348 458.185 642.212 458.185C647.075 458.185 708.094 459.512 712.515 459.512C716.937 459.512 759.384 459.955 759.384 459.955C759.384 459.955 763.364 502.432 762.922 508.184C762.48 513.936 763.364 565.262 763.364 565.262C763.364 565.262 754.521 556.856 747.446 556.856C740.372 556.856 728.875 557.298 725.78 557.741C722.685 558.183 721.359 561.723 717.379 562.165C713.4 562.608 697.924 561.723 693.502 560.838C689.081 559.953 689.965 555.971 686.428 555.971C682.891 555.971 683.333 557.298 677.585 556.856C671.836 556.413 674.932 551.546 667.857 550.661C660.783 549.776 657.245 551.988 653.266 551.103C649.286 550.219 642.654 540.042 637.79 539.599C632.926 539.157 629.389 539.157 626.294 538.272C623.199 537.387 621.872 537.829 620.546 531.192C619.219 524.555 626.294 475.441 622.757 474.999C619.219 474.556 548.474 470.574 548.474 470.574L549.358 455.973Z" fill="#05A1DB" fill-opacity="0.08" stroke="#0080B0" stroke-opacity="0.71" stroke-width="1.48996"/>
<path opacity="0.9" fill-rule="evenodd" clip-rule="evenodd" d="M544.937 470.132L623.642 475.441C623.642 475.441 622.315 513.936 621.431 517.918C620.547 521.901 615.683 534.732 623.642 537.387C631.601 540.042 635.138 539.599 638.675 540.042C642.213 540.484 650.614 551.103 653.267 551.103C655.92 551.103 665.205 548.006 668.742 548.891C672.28 549.776 672.28 554.643 674.933 555.971C677.586 557.298 684.66 555.528 686.429 555.528C688.198 555.528 692.619 561.28 696.599 561.28C700.578 561.28 716.054 561.723 718.707 561.723C721.36 561.723 723.128 557.741 726.666 557.741C730.203 557.741 742.141 552.873 748.331 555.528C754.522 558.183 762.038 569.245 766.018 569.245C769.997 569.245 775.303 571.457 775.303 571.457C775.303 571.457 776.63 591.368 777.514 593.58C778.398 595.793 775.745 612.164 777.956 616.589C780.167 621.014 781.494 626.766 784.146 632.518C786.799 638.27 793.874 639.597 792.105 646.677C790.337 653.756 785.031 684.287 785.031 684.287C785.031 684.287 765.576 691.366 762.481 694.021C759.385 696.676 750.984 713.047 743.91 716.587C736.835 720.127 726.223 728.533 714.727 733.843C703.231 739.153 686.429 760.391 685.987 764.816C685.545 769.241 690.408 795.789 690.85 798.443C691.293 801.098 697.483 806.408 689.966 807.293C682.449 808.178 657.688 802.868 651.056 797.558C644.423 792.249 632.043 781.63 628.948 775.878C625.853 770.125 629.832 757.736 625.411 752.869C620.989 748.002 610.819 742.25 606.398 735.613C601.976 728.976 600.207 716.587 594.459 707.295C588.711 698.003 585.174 688.711 574.12 685.171C563.066 681.632 553.781 679.862 546.264 682.517C538.747 685.171 542.284 701.543 532.115 701.543C521.945 701.543 506.911 696.233 501.605 690.039C496.3 683.844 489.667 674.552 487.456 668.8C485.245 663.048 486.572 658.181 484.361 655.084C482.15 651.986 485.245 647.119 478.171 643.137C471.096 639.155 465.348 638.27 464.022 634.288C462.695 630.305 456.063 621.456 452.083 618.801C448.104 616.146 442.356 609.067 442.356 609.067L443.682 605.527L535.21 612.164L544.937 470.132Z" fill="#05A1DB" fill-opacity="0.08" stroke="#0080B0" stroke-opacity="0.71" stroke-width="1.48996"/>
<path opacity="0.9" fill-rule="evenodd" clip-rule="evenodd" d="M403.003 439.159L547.59 455.088L548.917 469.247L545.379 470.132L535.21 612.164L444.567 604.642L442.798 609.067L399.466 605.527L397.697 616.146L378.242 613.049L403.003 439.159Z" fill="#05A1DB" fill-opacity="0.08" stroke="#0080B0" stroke-opacity="0.71" stroke-width="1.48996"/>
<path opacity="0.9" fill-rule="evenodd" clip-rule="evenodd" d="M403.003 442.256L378.685 613.934L317.666 604.642L233.213 555.086L231.887 550.218C231.887 550.218 238.519 546.679 238.962 544.909C239.404 543.139 238.519 532.52 239.404 528.538C240.288 524.555 246.921 521.458 247.805 518.803C248.689 516.148 247.363 513.051 249.131 511.724C250.9 510.396 260.185 509.954 259.743 502.874C259.301 495.795 253.553 492.255 250.9 486.503C248.247 480.751 248.247 473.671 249.574 470.574C250.9 467.477 250.9 459.512 251.342 456.858C251.784 454.203 248.689 446.681 255.322 443.584C261.954 440.486 268.586 449.778 271.239 448.008C273.892 446.238 277.872 428.097 277.872 425.442C277.872 422.788 278.314 419.248 278.314 419.248L403.003 442.256Z" fill="#05A1DB" fill-opacity="0.08" stroke="#0080B0" stroke-opacity="0.71" stroke-width="1.48996"/>
<path opacity="0.9" fill-rule="evenodd" clip-rule="evenodd" d="M167.773 2C167.773 2 211.989 17.4864 219.948 19.6987C227.907 21.9111 286.714 36.5125 286.714 36.5125C286.714 36.5125 281.408 68.8127 278.313 80.7594C275.218 92.706 270.354 127.661 270.354 127.661C270.354 127.661 250.015 121.024 244.267 120.139C238.519 119.254 217.295 116.599 209.778 116.599C202.261 116.599 185.901 120.139 180.153 118.812C174.405 117.484 174.847 111.29 167.773 111.29C160.698 111.29 156.719 111.29 149.202 111.29C141.685 111.29 141.243 104.653 140.359 100.67C139.474 96.6883 143.896 92.2636 140.801 89.1663C137.706 86.069 121.788 80.3169 121.788 80.3169C121.788 80.3169 123.557 45.8044 123.999 39.6098C124.441 33.4153 124.441 13.5042 126.652 12.6192C128.863 11.7343 136.379 20.1412 141.243 21.4686C146.107 22.796 157.161 23.2385 159.372 28.9906C161.583 34.7427 161.14 53.7688 158.487 54.6538C155.835 55.5387 147.876 55.5387 148.318 57.751C148.76 59.9634 156.719 65.7155 160.698 62.1757C164.678 58.636 169.984 49.3441 170.868 43.1496C171.752 36.955 168.215 26.7782 169.541 25.0084C170.868 23.2385 174.847 26.3358 174.847 21.4686C174.847 16.6015 168.215 10.4069 168.215 10.4069L167.773 2Z" fill="#05A1DB" fill-opacity="0.08" stroke="#0080B0" stroke-opacity="0.71" stroke-width="1.48996"/>
<path opacity="0.9" fill-rule="evenodd" clip-rule="evenodd" d="M120.904 79.432C120.904 79.432 141.243 86.5115 141.685 88.7238C142.128 90.9362 139.475 96.2458 140.801 100.67C142.128 105.095 140.801 108.192 145.223 109.077C149.644 109.962 163.794 107.308 169.542 109.962C175.29 112.617 170.868 116.599 179.711 118.369C188.555 120.139 202.704 116.599 214.2 116.157C225.696 115.714 270.797 128.104 270.797 128.104C270.797 128.104 273.007 137.838 271.681 141.82C270.354 145.802 250.015 167.483 250.015 172.793C250.015 178.102 259.743 176.775 254.437 188.722C249.131 200.668 245.151 227.659 244.709 231.641C244.267 235.623 242.056 249.34 242.056 249.34C242.056 249.34 185.902 237.393 174.848 234.738C163.794 232.084 122.23 220.137 112.061 217.482C101.891 214.827 75.8035 206.863 75.8035 206.863C75.8035 206.863 76.6877 190.934 77.13 188.722C77.572 186.509 76.2457 178.545 76.2457 178.545C76.2457 178.545 93.0478 154.209 96.1428 148.457C99.238 142.705 114.714 104.21 115.598 101.555C116.482 98.9006 123.115 78.5471 123.115 78.5471L120.904 79.432Z" fill="#05A1DB" fill-opacity="0.08" stroke="#0080B0" stroke-opacity="0.71" stroke-width="1.48996"/>
<path opacity="0.9" fill-rule="evenodd" clip-rule="evenodd" d="M173.964 234.739L307.938 265.269C307.938 265.269 278.756 416.593 278.314 419.69C277.871 422.788 274.776 450.221 272.566 450.221C270.355 450.221 262.838 438.717 256.206 442.699C249.573 446.681 252.668 462.167 252.226 465.707C251.784 469.247 247.805 472.344 247.805 472.344L149.645 325.887L173.964 234.739Z" fill="#05A1DB" fill-opacity="0.08" stroke="#0080B0" stroke-opacity="0.71" stroke-width="1.48996"/>
<path opacity="0.9" fill-rule="evenodd" clip-rule="evenodd" d="M74.9194 221.907L74.4772 205.978L175.732 237.393L148.76 327.657L249.131 474.556C249.131 474.556 249.573 484.733 251.342 487.388C253.11 490.043 264.607 498.45 260.627 503.759C256.648 509.069 251.784 510.839 250.015 513.051C248.247 515.263 254.879 517.918 248.247 520.573C241.614 523.228 240.288 521.458 239.403 525.883C238.519 530.307 242.498 545.351 239.403 547.564C236.308 549.776 231.887 550.661 231.887 550.661L173.964 539.157L168.658 535.174L170.426 517.033C170.426 517.033 160.256 504.202 157.604 501.547C154.951 498.892 148.76 495.352 148.76 495.352V490.043C148.76 490.043 140.359 489.6 133.727 483.848C127.094 478.096 130.189 472.786 121.346 469.689C112.503 466.592 101.891 465.707 101.449 461.725C101.007 457.743 99.2383 447.123 99.6805 439.601C100.123 432.079 81.5517 397.567 83.3204 394.469C85.0891 391.372 86.8577 383.408 87.2999 379.426C87.7421 375.443 80.2252 371.019 78.8988 367.036C77.5723 363.054 78.8988 348.895 78.8988 348.895L86.4156 353.32C86.4156 353.32 84.6469 348.895 86.4156 346.683C88.1842 344.471 91.7216 337.834 91.7216 337.834C91.7216 337.834 84.6469 340.931 78.0145 339.603C71.382 338.276 69.1713 322.79 68.7291 321.02C68.287 319.25 61.2124 301.551 61.2124 301.551C61.2124 301.551 62.0966 278.1 62.5389 273.676C62.9811 269.251 57.2329 255.534 57.2329 252.88C57.2329 250.225 62.9811 246.685 64.7496 243.588C66.5183 240.49 63.8653 238.278 65.634 235.181C67.4026 232.084 74.9194 228.101 75.3615 225.889C75.8037 223.677 74.9194 208.19 74.9194 208.19V221.907Z" fill="#05A1DB" fill-opacity="0.08" stroke="#0080B0" stroke-opacity="0.71" stroke-width="1.48996"/>
<path opacity="0.9" fill-rule="evenodd" clip-rule="evenodd" d="M369.841 306.418L532.998 324.56L547.147 201.111L388.854 180.315L369.841 306.418Z" fill="#05A1DB" fill-opacity="0.08" stroke="#0080B0" stroke-opacity="0.71" stroke-width="1.48996"/>
<path opacity="0.9" fill-rule="evenodd" clip-rule="evenodd" d="M375.146 275.446L369.398 306.418L418.036 311.728L403.002 441.814L278.755 419.248L308.38 264.384C308.38 264.384 320.76 264.826 322.529 264.826C324.298 264.826 337.12 269.251 345.079 270.578C353.038 271.906 353.48 273.676 358.344 274.118C363.208 274.561 374.704 274.561 375.146 275.446Z" fill="#05A1DB" fill-opacity="0.08" stroke="#0080B0" stroke-opacity="0.71" stroke-width="1.48996"/>
<path opacity="0.9" fill-rule="evenodd" clip-rule="evenodd" d="M418.478 311.728L578.983 330.754C578.983 330.754 581.194 377.213 580.752 381.195C580.31 385.178 579.867 386.063 579.867 386.063C579.867 386.063 577.214 405.974 576.772 413.053C576.33 420.133 574.561 451.99 574.561 451.99C574.561 451.99 553.78 457.743 548.474 455.53C543.168 453.318 403.445 439.601 403.445 439.601L418.478 311.728Z" fill="#05A1DB" fill-opacity="0.08" stroke="#0080B0" stroke-opacity="0.71" stroke-width="1.48996"/>
<path opacity="0.9" fill-rule="evenodd" clip-rule="evenodd" d="M287.599 35.1852L303.075 38.7249C303.075 38.7249 302.19 57.3086 302.19 65.7155C302.19 74.1224 304.843 88.7239 309.265 92.2636C313.686 95.8034 314.571 102.883 317.666 107.308C320.761 111.732 326.509 115.272 325.625 121.024C324.74 126.776 327.836 133.413 323.856 139.608C319.877 145.802 313.687 149.785 318.55 151.554C323.414 153.324 333.142 153.767 333.142 153.767C333.142 153.767 334.026 166.156 337.121 171.465C340.216 176.775 342.427 186.067 348.175 188.279C353.923 190.492 366.746 192.704 372.494 191.819C378.242 190.934 380.895 188.722 383.548 189.607C386.201 190.492 387.527 194.916 387.527 194.916L374.262 275.003C374.262 275.003 358.345 275.446 353.481 272.791C348.617 270.136 330.931 267.481 322.087 265.269C313.244 263.056 307.938 266.154 307.938 266.154L243.825 248.455C243.825 248.455 246.478 213.5 248.247 208.633C250.015 203.766 257.09 186.067 256.206 181.642C255.321 177.218 252.668 178.545 250.9 174.563C249.131 170.581 272.123 144.917 272.565 140.493C273.008 136.068 269.47 131.201 270.355 127.661C271.239 124.121 288.483 34.7427 287.599 35.1852Z" fill="#05A1DB" fill-opacity="0.08" stroke="#0080B0" stroke-opacity="0.71" stroke-width="1.48996"/>
<path opacity="0.9" fill-rule="evenodd" clip-rule="evenodd" d="M304.401 40.4948C304.401 40.4948 373.378 52.4414 386.643 54.2113C399.908 55.9812 448.988 63.0607 457.389 64.8305C465.79 66.6004 503.373 71.91 516.196 72.3525C529.019 72.795 555.106 74.5649 555.106 74.5649C555.106 74.5649 554.222 117.042 552.011 129.873C549.8 142.705 547.59 201.111 547.59 201.111L390.622 179.872L387.085 193.146C387.085 193.146 385.759 190.049 382.221 190.049C378.684 190.049 374.262 191.819 366.746 191.819C359.229 191.819 349.944 193.589 345.964 187.394C341.985 181.2 333.584 153.324 333.584 153.324C333.584 153.324 318.108 153.767 317.224 150.227C316.339 146.687 324.298 140.493 325.183 137.395C326.067 134.298 324.74 130.316 324.74 126.334C324.74 122.351 327.393 122.794 326.509 118.369C325.625 113.945 319.877 110.405 317.224 107.308C314.571 104.21 315.897 101.998 312.802 97.5732C309.707 93.1485 306.612 90.4937 304.401 84.2992C302.19 78.1046 305.728 40.9372 304.401 40.4948Z" fill="#05A1DB" fill-opacity="0.08" stroke="#0080B0" stroke-opacity="0.71" stroke-width="1.48996"/>
<g opacity="0.9">
<path opacity="0.9" fill-rule="evenodd" clip-rule="evenodd" d="M1 672.783C1 672.783 1 668.402 6.6278 667.777C12.2556 667.151 14.1315 669.654 14.1315 669.654L11.005 675.911L1 672.783Z" fill="#05A1DB" fill-opacity="0.08" stroke="#0080B0" stroke-opacity="0.71" stroke-width="1.48996"/>
<path opacity="0.9" fill-rule="evenodd" clip-rule="evenodd" d="M50.3993 685.298C52.9005 684.672 52.2752 688.426 56.6524 690.304C61.0296 692.181 62.9055 690.929 62.9055 693.432C62.9055 695.935 61.6549 697.187 61.6549 697.187C61.6549 697.187 53.5258 695.31 51.0246 694.684C48.5233 694.058 50.3993 686.549 50.3993 685.298Z" fill="#05A1DB" fill-opacity="0.08" stroke="#0080B0" stroke-opacity="0.71" stroke-width="1.48996"/>
<path opacity="0.9" fill-rule="evenodd" clip-rule="evenodd" d="M77.2881 705.947L76.6628 698.438L87.2931 699.064L77.2881 705.947Z" fill="#05A1DB" fill-opacity="0.08" stroke="#0080B0" stroke-opacity="0.71" stroke-width="1.48996"/>
<path opacity="0.9" fill-rule="evenodd" clip-rule="evenodd" d="M92.295 709.702C93.5457 706.573 101.049 705.947 104.801 709.702C108.553 713.456 112.93 717.211 112.93 717.211H96.0469L92.295 709.702Z" fill="#05A1DB" fill-opacity="0.08" stroke="#0080B0" stroke-opacity="0.71" stroke-width="1.48996"/>
<path opacity="0.9" fill-rule="evenodd" clip-rule="evenodd" d="M132.315 735.357C132.315 735.357 147.323 748.498 145.447 753.504C143.571 758.51 133.566 761.013 132.315 763.516C131.065 766.018 131.065 771.025 124.812 770.399C118.559 769.773 116.057 771.65 116.057 766.644C116.057 761.638 117.933 757.884 115.432 756.007C112.931 754.129 111.055 754.129 111.055 750.375C111.055 746.62 116.057 747.872 116.683 744.117C117.308 740.363 109.804 734.731 112.931 731.603C116.057 728.474 129.814 734.106 132.315 735.357Z" fill="#05A1DB" fill-opacity="0.08" stroke="#0080B0" stroke-opacity="0.71" stroke-width="1.48996"/>
</g>
<g opacity="0.9">
<path opacity="0.9" fill-rule="evenodd" clip-rule="evenodd" d="M401.199 699.69L409.328 821.084C409.328 821.084 410.579 827.342 414.956 827.342C419.333 827.342 423.085 827.342 423.085 827.342C423.085 827.342 426.837 834.851 431.214 836.102C435.591 837.354 434.34 839.231 437.467 839.231C440.593 839.231 439.343 834.225 444.971 834.225C450.598 834.225 449.973 837.979 454.35 839.857C458.727 841.734 460.603 837.354 463.73 841.734C466.856 846.114 466.856 849.869 471.859 855.5C476.861 861.132 476.861 866.764 481.864 868.015C486.866 869.267 496.871 868.015 497.497 874.273C498.122 880.53 498.122 890.542 495.621 890.542C493.119 890.542 485.616 891.793 485.616 891.793C485.616 891.793 480.613 899.302 476.861 893.671C473.11 888.039 472.484 881.156 468.732 879.279C464.981 877.401 462.479 881.782 459.978 876.776C457.477 871.77 443.095 855.5 443.095 855.5L426.837 842.985C426.837 842.985 423.085 836.728 418.082 836.102C413.08 835.476 396.822 832.348 391.194 829.845C385.566 827.342 378.688 827.342 376.186 824.839C373.685 822.336 371.809 817.956 367.432 818.581C363.055 819.207 363.68 827.967 360.554 830.47C357.427 832.973 346.172 832.348 343.67 836.102C341.169 839.857 334.916 840.482 334.916 840.482L333.665 832.973L343.67 819.833L346.797 816.704C346.797 816.704 333.04 812.324 331.789 819.833C330.539 827.342 330.539 827.342 330.539 827.342L328.663 826.716C328.663 826.716 320.534 836.728 319.909 839.857C319.283 842.985 323.66 845.488 318.658 848.617C313.655 851.746 302.4 855.5 297.397 861.132C292.395 866.764 284.266 875.524 279.889 875.524C275.511 875.524 258.003 879.904 253.626 880.53C249.248 881.156 262.38 874.273 265.507 871.144C268.633 868.015 274.886 864.261 279.263 861.758C283.641 859.255 288.018 856.752 291.144 852.997C294.271 849.243 301.775 842.985 295.521 841.734C289.268 840.482 285.516 839.231 280.514 839.231C275.511 839.231 278.638 834.225 274.886 834.225C271.134 834.225 264.881 834.225 264.881 834.225C264.881 834.225 266.132 824.213 263.005 821.084C259.879 817.956 256.127 819.207 253 816.704C249.874 814.201 247.373 806.692 247.373 804.189C247.373 801.686 240.494 798.557 242.37 792.926C244.246 787.294 246.122 784.791 249.874 782.914C253.626 781.037 254.876 774.779 259.879 773.528C264.881 772.276 280.514 774.779 281.139 771.65C281.765 768.522 282.39 766.644 284.266 764.141C286.142 761.638 291.77 757.258 290.519 754.755C289.268 752.252 284.266 754.13 279.889 754.13C275.511 754.13 254.251 751.001 254.251 751.001C254.251 751.001 250.499 736.609 253.626 733.48C256.752 730.351 273.01 725.345 276.137 727.223C279.263 729.1 279.263 732.854 279.263 732.854L289.894 734.106C289.894 734.106 280.514 721.591 279.889 718.462C279.263 715.333 278.013 705.321 274.886 702.818C271.76 700.315 270.509 694.058 276.137 693.432C281.765 692.807 291.144 696.561 292.395 693.432C293.645 690.304 294.896 687.175 298.023 682.795C301.149 678.414 301.149 684.672 303.65 682.795C306.152 680.917 308.028 679.04 311.154 677.163C314.281 675.286 322.41 672.783 327.412 672.783C332.415 672.783 341.169 679.04 344.296 680.917C347.422 682.795 349.923 685.923 349.923 685.923C349.923 685.923 354.301 682.795 358.052 684.046C361.804 685.298 359.928 689.678 365.556 691.555C371.184 693.432 379.313 694.684 381.814 693.432C384.316 692.181 387.442 689.678 391.194 690.929C394.946 692.181 400.574 698.438 401.199 699.69Z" fill="#05A1DB" fill-opacity="0.08" stroke="#0080B0" stroke-opacity="0.71" stroke-width="1.48996"/>
<path opacity="0.9" fill-rule="evenodd" clip-rule="evenodd" d="M184.216 897.425L206.727 898.677L211.73 891.793C211.73 891.793 206.727 893.045 201.725 893.671C196.722 894.296 198.598 889.916 193.596 889.916C188.593 889.916 184.841 896.799 184.216 897.425Z" fill="#05A1DB" fill-opacity="0.08" stroke="#0080B0" stroke-opacity="0.71" stroke-width="1.48996"/>
<path opacity="0.9" fill-rule="evenodd" clip-rule="evenodd" d="M221.734 749.124C221.734 749.124 226.112 745.369 226.737 747.872C227.362 750.375 234.241 756.007 232.99 758.51C231.739 761.013 223.61 758.51 223.61 758.51C223.61 758.51 217.357 751.627 221.734 749.124Z" fill="#05A1DB" fill-opacity="0.08" stroke="#0080B0" stroke-opacity="0.71" stroke-width="1.48996"/>
<path opacity="0.9" fill-rule="evenodd" clip-rule="evenodd" d="M329.914 854.874L326.162 861.132L326.787 866.138C326.787 866.138 316.157 873.021 313.03 873.021C309.904 873.021 308.028 866.138 310.529 863.009C313.03 859.88 318.658 856.752 321.159 854.874C323.66 852.997 329.288 853.623 329.914 854.874Z" fill="#05A1DB" fill-opacity="0.08" stroke="#0080B0" stroke-opacity="0.71" stroke-width="1.48996"/>
<path opacity="0.9" fill-rule="evenodd" clip-rule="evenodd" d="M239.243 813.575L232.99 811.072V807.944L240.494 806.692C240.494 806.692 237.367 807.944 239.243 813.575Z" fill="#05A1DB" fill-opacity="0.08" stroke="#0080B0" stroke-opacity="0.71" stroke-width="1.48996"/>
</g>
</g>
</svg>
