<svg width="19" height="33" viewBox="0 0 19 33" fill="none" xmlns="http://www.w3.org/2000/svg">
<path d="M6.3702 22.3793C-4.35771 7.0557 5.79409 1.59531 9.1465 1.59533C13.7633 1.31808 23.1839 4.22668 14.4963 22.4632C13.9213 23.6703 12.4916 24.2593 11.1577 24.1661C9.16516 24.0269 6.75258 24.3019 6.75258 25.9228C6.75258 27.4159 11.3251 27.685 12.0224 27.7173C12.0837 27.7202 12.1416 27.7197 12.2028 27.7238C12.3974 27.7369 12.8727 27.806 13.3452 28.1604C14.3101 28.8841 13.7545 30.6957 12.3027 31.2638C10.0999 32.1258 7.22674 31.0723 5.9817 29.8272" stroke="#7AA4CD" stroke-width="1.33711" stroke-linecap="round"/>
<rect x="4.83008" y="13.5508" width="1.34081" height="9.54525" rx="0.670406" transform="rotate(-29.0422 4.83008 13.5508)" fill="#7AA4CD"/>
<rect x="13.5977" y="12.875" width="1.34081" height="9.54525" rx="0.670406" transform="rotate(29.3904 13.5977 12.875)" fill="#7AA4CD"/>
</svg>
