<svg width="200" height="74" viewBox="0 0 200 74" fill="none" xmlns="http://www.w3.org/2000/svg">
<g filter="url(#filter0_d_2496_644)">
<rect width="179.112" height="53.1535" transform="translate(10 10)" fill="white"/>
<path d="M26.3702 42.3793C15.6423 27.0557 25.7941 21.5953 29.1465 21.5953C33.7633 21.3181 43.1839 24.2267 34.4963 42.4632C33.9213 43.6703 32.4916 44.2593 31.1577 44.1661C29.1652 44.0269 26.7526 44.3019 26.7526 45.9228C26.7526 47.4159 31.3251 47.685 32.0224 47.7173C32.0837 47.7202 32.1416 47.7197 32.2028 47.7238C32.3974 47.7369 32.8727 47.806 33.3452 48.1604C34.3101 48.8841 33.7545 50.6957 32.3027 51.2638C30.0999 52.1258 27.2267 51.0723 25.9817 49.8272" stroke="#7AA4CD" stroke-width="1.33711" stroke-linecap="round"/>
<rect x="24.8301" y="33.5508" width="1.34081" height="9.54525" rx="0.670406" transform="rotate(-29.0422 24.8301 33.5508)" fill="#7AA4CD"/>
<rect x="33.5977" y="32.875" width="1.34081" height="9.54525" rx="0.670406" transform="rotate(29.3904 33.5977 32.875)" fill="#7AA4CD"/>
<path d="M56.7027 31.6633L58.4616 26.3117H60.2018L57.501 33.5781H56.291L56.7027 31.6633ZM54.8003 26.3117L56.528 31.6446L56.9646 33.5781H55.7421L53.0539 26.3117H54.8003ZM64.1345 26.3117V33.5781H62.4816V26.3117H64.1345ZM70.6245 26.3117V33.5781H68.9716V26.3117H70.6245ZM73.0196 26.3117V27.6153H66.6201V26.3117H73.0196ZM78.4679 28.002L76.4096 33.5781H74.738L77.6384 26.3117H78.7611L78.4679 28.002ZM80.4264 33.5781L78.3432 27.9958L78.05 26.3117H79.1852L82.0918 33.5781H80.4264ZM80.3578 30.8774V32.0812H76.2724V30.8774H80.3578ZM89.3053 32.2808V33.5781H85.3633V32.2808H89.3053ZM85.9184 26.3117V33.5781H84.2656V26.3117H85.9184ZM100.395 31.6571C100.395 31.5281 100.37 31.4117 100.321 31.3078C100.275 31.2038 100.198 31.1103 100.09 31.0271C99.9816 30.9439 99.8319 30.8649 99.6407 30.7901C99.4535 30.7152 99.2186 30.6445 98.9358 30.578C98.4909 30.4699 98.1021 30.3514 97.7695 30.2225C97.4368 30.0936 97.1582 29.9418 96.9337 29.7672C96.7133 29.5925 96.547 29.3867 96.4347 29.1497C96.3266 28.9085 96.2725 28.6278 96.2725 28.3076C96.2725 27.9999 96.3391 27.7193 96.4721 27.4656C96.6093 27.2078 96.8006 26.9853 97.046 26.7982C97.2954 26.6111 97.5886 26.4677 97.9254 26.3679C98.2664 26.2639 98.6385 26.2119 99.0419 26.2119C99.6282 26.2119 100.142 26.3055 100.582 26.4926C101.027 26.6797 101.373 26.9417 101.618 27.2785C101.863 27.6112 101.986 28.0062 101.986 28.4636H100.333C100.333 28.2723 100.283 28.0997 100.183 27.9459C100.088 27.7879 99.9442 27.6611 99.7529 27.5654C99.5616 27.4698 99.3246 27.422 99.0419 27.422C98.7716 27.422 98.5471 27.4635 98.3683 27.5467C98.1936 27.6257 98.0626 27.7297 97.9753 27.8586C97.8921 27.9833 97.8506 28.1164 97.8506 28.2577C97.8506 28.3742 97.8755 28.4802 97.9254 28.5758C97.9795 28.6673 98.0626 28.7526 98.1749 28.8316C98.2913 28.9064 98.4431 28.9792 98.6302 29.0499C98.8173 29.1164 99.044 29.185 99.3101 29.2557C99.7508 29.3555 100.138 29.474 100.47 29.6112C100.807 29.7443 101.086 29.9044 101.306 30.0915C101.531 30.2786 101.699 30.4969 101.811 30.7464C101.923 30.9959 101.98 31.2849 101.98 31.6134C101.98 31.9377 101.913 32.2288 101.78 32.4866C101.647 32.7403 101.454 32.9565 101.2 33.1353C100.95 33.3099 100.651 33.4451 100.302 33.5407C99.9567 33.6322 99.57 33.6779 99.1417 33.6779C98.7591 33.6779 98.3828 33.6322 98.0127 33.5407C97.6427 33.4492 97.3079 33.3078 97.0085 33.1166C96.7091 32.9211 96.47 32.6737 96.2912 32.3743C96.1124 32.0749 96.023 31.7173 96.023 31.3015H97.6822C97.6822 31.5094 97.7154 31.6882 97.782 31.8379C97.8526 31.9876 97.9524 32.1103 98.0813 32.2059C98.2144 32.2974 98.3766 32.366 98.5678 32.4118C98.7591 32.4533 98.9753 32.4741 99.2165 32.4741C99.4993 32.4741 99.728 32.4346 99.9026 32.3556C100.077 32.2766 100.202 32.1747 100.277 32.05C100.356 31.9253 100.395 31.7943 100.395 31.6571ZM108.133 26.3117V33.5781H106.48V26.3117H108.133ZM110.528 26.3117V27.6153H104.128V26.3117H110.528ZM115.976 28.002L113.918 33.5781H112.246L115.147 26.3117H116.269L115.976 28.002ZM117.935 33.5781L115.852 27.9958L115.558 26.3117H116.694L119.6 33.5781H117.935ZM117.866 30.8774V32.0812H113.781V30.8774H117.866ZM124.917 26.3117V33.5781H123.265V26.3117H124.917ZM127.313 26.3117V27.6153H120.913V26.3117H127.313ZM131.457 26.3117V33.5781H129.805V26.3117H131.457ZM138.478 31.6571C138.478 31.5281 138.453 31.4117 138.403 31.3078C138.357 31.2038 138.28 31.1103 138.172 31.0271C138.064 30.9439 137.914 30.8649 137.723 30.7901C137.536 30.7152 137.301 30.6445 137.018 30.578C136.573 30.4699 136.184 30.3514 135.852 30.2225C135.519 30.0936 135.24 29.9418 135.016 29.7672C134.795 29.5925 134.629 29.3867 134.517 29.1497C134.409 28.9085 134.355 28.6278 134.355 28.3076C134.355 27.9999 134.421 27.7193 134.554 27.4656C134.692 27.2078 134.883 26.9853 135.128 26.7982C135.378 26.6111 135.671 26.4677 136.008 26.3679C136.349 26.2639 136.721 26.2119 137.124 26.2119C137.71 26.2119 138.224 26.3055 138.665 26.4926C139.11 26.6797 139.455 26.9417 139.7 27.2785C139.945 27.6112 140.068 28.0062 140.068 28.4636H138.415C138.415 28.2723 138.365 28.0997 138.265 27.9459C138.17 27.7879 138.026 27.6611 137.835 27.5654C137.644 27.4698 137.407 27.422 137.124 27.422C136.854 27.422 136.629 27.4635 136.45 27.5467C136.276 27.6257 136.145 27.7297 136.057 27.8586C135.974 27.9833 135.933 28.1164 135.933 28.2577C135.933 28.3742 135.958 28.4802 136.008 28.5758C136.062 28.6673 136.145 28.7526 136.257 28.8316C136.373 28.9064 136.525 28.9792 136.712 29.0499C136.9 29.1164 137.126 29.185 137.392 29.2557C137.833 29.3555 138.22 29.474 138.552 29.6112C138.889 29.7443 139.168 29.9044 139.388 30.0915C139.613 30.2786 139.781 30.4969 139.893 30.7464C140.006 30.9959 140.062 31.2849 140.062 31.6134C140.062 31.9377 139.995 32.2288 139.862 32.4866C139.729 32.7403 139.536 32.9565 139.282 33.1353C139.033 33.3099 138.733 33.4451 138.384 33.5407C138.039 33.6322 137.652 33.6779 137.224 33.6779C136.841 33.6779 136.465 33.6322 136.095 33.5407C135.725 33.4492 135.39 33.3078 135.091 33.1166C134.791 32.9211 134.552 32.6737 134.373 32.3743C134.195 32.0749 134.105 31.7173 134.105 31.3015H135.764C135.764 31.5094 135.798 31.6882 135.864 31.8379C135.935 31.9876 136.035 32.1103 136.164 32.2059C136.297 32.2974 136.459 32.366 136.65 32.4118C136.841 32.4533 137.058 32.4741 137.299 32.4741C137.581 32.4741 137.81 32.4346 137.985 32.3556C138.159 32.2766 138.284 32.1747 138.359 32.05C138.438 31.9253 138.478 31.7943 138.478 31.6571ZM146.215 26.3117V33.5781H144.562V26.3117H146.215ZM148.61 26.3117V27.6153H142.211V26.3117H148.61ZM152.755 26.3117V33.5781H151.102V26.3117H152.755ZM160.212 31.1269H161.871C161.833 31.6342 161.686 32.0791 161.428 32.4617C161.17 32.8442 160.81 33.1436 160.349 33.3598C159.891 33.5719 159.345 33.6779 158.708 33.6779C158.201 33.6779 157.748 33.5968 157.349 33.4347C156.95 33.2725 156.609 33.0396 156.326 32.7361C156.047 32.4284 155.833 32.0583 155.683 31.6259C155.538 31.1934 155.465 30.7048 155.465 30.1601V29.736C155.465 29.1913 155.542 28.7027 155.696 28.2702C155.85 27.8336 156.068 27.4635 156.351 27.16C156.633 26.8523 156.972 26.6174 157.367 26.4552C157.767 26.2889 158.214 26.2057 158.708 26.2057C159.365 26.2057 159.918 26.318 160.368 26.5425C160.821 26.767 161.172 27.0768 161.422 27.4719C161.675 27.8627 161.827 28.3076 161.877 28.8066H160.224C160.203 28.5571 160.141 28.3347 160.037 28.1392C159.933 27.9438 159.773 27.79 159.557 27.6777C159.345 27.5654 159.062 27.5093 158.708 27.5093C158.446 27.5093 158.216 27.5571 158.016 27.6527C157.816 27.7442 157.65 27.8835 157.517 28.0706C157.384 28.2536 157.284 28.4844 157.218 28.763C157.151 29.0374 157.118 29.3597 157.118 29.7297V30.1601C157.118 30.526 157.147 30.8483 157.205 31.1269C157.268 31.4013 157.363 31.6321 157.492 31.8192C157.621 32.0063 157.785 32.1477 157.985 32.2434C158.189 32.339 158.43 32.3868 158.708 32.3868C159.037 32.3868 159.307 32.3411 159.519 32.2496C159.731 32.1581 159.894 32.0188 160.006 31.8317C160.122 31.6404 160.191 31.4055 160.212 31.1269ZM168.442 31.6571C168.442 31.5281 168.417 31.4117 168.367 31.3078C168.321 31.2038 168.244 31.1103 168.136 31.0271C168.028 30.9439 167.878 30.8649 167.687 30.7901C167.5 30.7152 167.265 30.6445 166.982 30.578C166.537 30.4699 166.149 30.3514 165.816 30.2225C165.483 30.0936 165.205 29.9418 164.98 29.7672C164.76 29.5925 164.593 29.3867 164.481 29.1497C164.373 28.9085 164.319 28.6278 164.319 28.3076C164.319 27.9999 164.385 27.7193 164.519 27.4656C164.656 27.2078 164.847 26.9853 165.092 26.7982C165.342 26.6111 165.635 26.4677 165.972 26.3679C166.313 26.2639 166.685 26.2119 167.088 26.2119C167.675 26.2119 168.188 26.3055 168.629 26.4926C169.074 26.6797 169.419 26.9417 169.664 27.2785C169.91 27.6112 170.032 28.0062 170.032 28.4636H168.379C168.379 28.2723 168.33 28.0997 168.23 27.9459C168.134 27.7879 167.991 27.6611 167.799 27.5654C167.608 27.4698 167.371 27.422 167.088 27.422C166.818 27.422 166.593 27.4635 166.415 27.5467C166.24 27.6257 166.109 27.7297 166.022 27.8586C165.939 27.9833 165.897 28.1164 165.897 28.2577C165.897 28.3742 165.922 28.4802 165.972 28.5758C166.026 28.6673 166.109 28.7526 166.221 28.8316C166.338 28.9064 166.49 28.9792 166.677 29.0499C166.864 29.1164 167.09 29.185 167.356 29.2557C167.797 29.3555 168.184 29.474 168.517 29.6112C168.853 29.7443 169.132 29.9044 169.352 30.0915C169.577 30.2786 169.745 30.4969 169.858 30.7464C169.97 30.9959 170.026 31.2849 170.026 31.6134C170.026 31.9377 169.96 32.2288 169.826 32.4866C169.693 32.7403 169.5 32.9565 169.246 33.1353C168.997 33.3099 168.698 33.4451 168.348 33.5407C168.003 33.6322 167.616 33.6779 167.188 33.6779C166.806 33.6779 166.429 33.6322 166.059 33.5407C165.689 33.4492 165.354 33.3078 165.055 33.1166C164.756 32.9211 164.516 32.6737 164.338 32.3743C164.159 32.0749 164.069 31.7173 164.069 31.3015H165.729C165.729 31.5094 165.762 31.6882 165.828 31.8379C165.899 31.9876 165.999 32.1103 166.128 32.2059C166.261 32.2974 166.423 32.366 166.614 32.4118C166.806 32.4533 167.022 32.4741 167.263 32.4741C167.546 32.4741 167.774 32.4346 167.949 32.3556C168.124 32.2766 168.248 32.1747 168.323 32.05C168.402 31.9253 168.442 31.7943 168.442 31.6571Z" fill="#4E6F8E"/>
<path d="M48.9802 41.3117V48.5781H47.3273V41.3117H48.9802ZM58.3081 41.3117V48.5781H56.6552L53.5803 43.7567V48.5781H51.9274V41.3117H53.5803L56.6552 46.1331V41.3117H58.3081ZM64.6858 41.3117V48.5781H63.0329V41.3117H64.6858ZM67.0809 41.3117V42.6153H60.6815V41.3117H67.0809ZM74.7248 47.2808V48.5781H70.5583V47.2808H74.7248ZM71.1134 41.3117V48.5781H69.4605V41.3117H71.1134ZM74.1884 44.1746V45.472H70.5583V44.1746H74.1884ZM74.7248 41.3117V42.6153H70.5583V41.3117H74.7248ZM83.3292 44.7235V47.68C83.2045 47.8172 83.0132 47.9648 82.7554 48.1228C82.5017 48.2767 82.1732 48.4076 81.7699 48.5158C81.3666 48.6239 80.88 48.6779 80.3104 48.6779C79.8072 48.6779 79.3478 48.601 78.9319 48.4471C78.5161 48.2933 78.1585 48.0667 77.8591 47.7673C77.5597 47.4637 77.329 47.0937 77.1668 46.6571C77.0046 46.2204 76.9235 45.7215 76.9235 45.1601V44.7297C76.9235 44.1684 77.0026 43.6715 77.1606 43.239C77.3186 42.8024 77.5431 42.4324 77.8342 42.1288C78.1253 41.8253 78.4704 41.5966 78.8696 41.4427C79.2729 41.2847 79.7178 41.2057 80.2043 41.2057C80.8946 41.2057 81.458 41.3117 81.8946 41.5238C82.3354 41.7317 82.6701 42.0207 82.8988 42.3908C83.1275 42.7608 83.2689 43.185 83.323 43.6632H81.7262C81.6888 43.422 81.614 43.2162 81.5017 43.0457C81.3936 42.871 81.2376 42.738 81.0339 42.6465C80.8343 42.555 80.5744 42.5093 80.2542 42.5093C79.9964 42.5093 79.7636 42.555 79.5557 42.6465C79.3478 42.738 79.171 42.8773 79.0255 43.0644C78.88 43.2474 78.7698 43.4761 78.6949 43.7505C78.6201 44.0249 78.5827 44.3472 78.5827 44.7173V45.1601C78.5827 45.526 78.6201 45.8483 78.6949 46.1269C78.7739 46.4055 78.8904 46.6383 79.0442 46.8255C79.1981 47.0084 79.3893 47.1477 79.618 47.2434C79.8509 47.339 80.117 47.3868 80.4164 47.3868C80.7782 47.3868 81.0568 47.3494 81.2522 47.2745C81.4476 47.1955 81.5869 47.1248 81.6701 47.0625V45.8836H80.1856V44.7235H83.3292ZM85.9895 41.3117H88.9397C89.3847 41.3117 89.7859 41.3595 90.1435 41.4552C90.5053 41.5467 90.8109 41.686 91.0604 41.8731C91.3141 42.056 91.5074 42.2847 91.6405 42.5592C91.7735 42.8295 91.8401 43.1434 91.8401 43.501C91.8401 43.9085 91.7694 44.2536 91.628 44.5364C91.4866 44.8191 91.2891 45.052 91.0355 45.235C90.7818 45.4138 90.4845 45.5614 90.1435 45.6778L89.6071 45.9834H87.0561L87.0436 44.6798H88.9585C89.2287 44.6798 89.4554 44.6383 89.6383 44.5551C89.8213 44.4719 89.9585 44.3534 90.05 44.1996C90.1414 44.0457 90.1872 43.8648 90.1872 43.6569C90.1872 43.4407 90.1394 43.2557 90.0437 43.1018C89.9523 42.9438 89.813 42.8232 89.6258 42.7401C89.4429 42.6569 89.2142 42.6153 88.9397 42.6153H87.6486V48.5781H85.9895V41.3117ZM90.3494 48.5781L88.578 45.3659L90.3244 45.3535L92.127 48.5033V48.5781H90.3494ZM96.3154 41.3117V48.5781H94.6625V41.3117H96.3154ZM102.805 41.3117V48.5781H101.153V41.3117H102.805ZM105.201 41.3117V42.6153H98.8011V41.3117H105.201ZM110.025 45.3036L112.002 41.3117H113.799L111.123 46.183H110.212L110.025 45.3036ZM108.796 41.3117L110.786 45.341L110.58 46.183H109.676L107 41.3117H108.796ZM111.204 45.1663V48.5781H109.551V45.1663H111.204ZM123.673 46.0832H121.683V44.7796H123.673C123.972 44.7796 124.217 44.736 124.408 44.6487C124.6 44.5613 124.741 44.4428 124.833 44.2931C124.924 44.1393 124.97 43.9667 124.97 43.7754C124.97 43.5675 124.924 43.3763 124.833 43.2016C124.741 43.027 124.6 42.8856 124.408 42.7775C124.217 42.6694 123.972 42.6153 123.673 42.6153H122.275V48.5781H120.622V41.3117H123.673C124.288 41.3117 124.814 41.4178 125.251 41.6298C125.691 41.8419 126.028 42.133 126.261 42.503C126.498 42.869 126.616 43.2889 126.616 43.763C126.616 44.1123 126.55 44.4304 126.417 44.7173C126.284 45 126.09 45.2433 125.837 45.447C125.583 45.6508 125.273 45.8088 124.907 45.9211C124.546 46.0292 124.134 46.0832 123.673 46.0832ZM129.183 41.3117H132.133C132.578 41.3117 132.98 41.3595 133.337 41.4552C133.699 41.5467 134.005 41.686 134.254 41.8731C134.508 42.056 134.701 42.2847 134.834 42.5592C134.967 42.8295 135.034 43.1434 135.034 43.501C135.034 43.9085 134.963 44.2536 134.822 44.5364C134.68 44.8191 134.483 45.052 134.229 45.235C133.976 45.4138 133.678 45.5614 133.337 45.6778L132.801 45.9834H130.25L130.237 44.6798H132.152C132.422 44.6798 132.649 44.6383 132.832 44.5551C133.015 44.4719 133.152 44.3534 133.244 44.1996C133.335 44.0457 133.381 43.8648 133.381 43.6569C133.381 43.4407 133.333 43.2557 133.237 43.1018C133.146 42.9438 133.007 42.8232 132.82 42.7401C132.637 42.6569 132.408 42.6153 132.133 42.6153H130.842V48.5781H129.183V41.3117ZM133.543 48.5781L131.772 45.3659L133.518 45.3535L135.321 48.5033V48.5781H133.543ZM144.187 44.7859V45.1102C144.187 45.6632 144.106 46.1602 143.944 46.6009C143.786 47.0375 143.559 47.4118 143.264 47.7236C142.969 48.0313 142.617 48.2683 142.21 48.4347C141.802 48.5968 141.351 48.6779 140.856 48.6779C140.362 48.6779 139.91 48.5968 139.503 48.4347C139.095 48.2683 138.742 48.0313 138.443 47.7236C138.143 47.4118 137.912 47.0375 137.75 46.6009C137.588 46.1602 137.507 45.6632 137.507 45.1102V44.7859C137.507 44.2328 137.588 43.738 137.75 43.3014C137.912 42.8606 138.141 42.4843 138.436 42.1725C138.732 41.8606 139.083 41.6236 139.49 41.4614C139.898 41.2951 140.349 41.2119 140.844 41.2119C141.339 41.2119 141.79 41.2951 142.197 41.4614C142.605 41.6236 142.956 41.8606 143.251 42.1725C143.551 42.4843 143.782 42.8606 143.944 43.3014C144.106 43.738 144.187 44.2328 144.187 44.7859ZM142.534 45.1102V44.7734C142.534 44.4116 142.495 44.0915 142.416 43.8129C142.341 43.5301 142.231 43.2931 142.085 43.1018C141.944 42.9105 141.767 42.765 141.555 42.6652C141.347 42.5613 141.11 42.5093 140.844 42.5093C140.578 42.5093 140.339 42.5613 140.127 42.6652C139.919 42.765 139.742 42.9105 139.596 43.1018C139.455 43.2931 139.347 43.5301 139.272 43.8129C139.197 44.0915 139.16 44.4116 139.16 44.7734V45.1102C139.16 45.472 139.197 45.7942 139.272 46.077C139.347 46.3556 139.457 46.5926 139.603 46.788C139.752 46.9835 139.931 47.1332 140.139 47.2371C140.351 47.3369 140.59 47.3868 140.856 47.3868C141.123 47.3868 141.36 47.3369 141.567 47.2371C141.775 47.1332 141.95 46.9835 142.091 46.788C142.237 46.5926 142.347 46.3556 142.422 46.077C142.497 45.7942 142.534 45.472 142.534 45.1102ZM149.935 46.2142V41.3117H151.588V46.2142C151.588 46.734 151.473 47.1789 151.245 47.549C151.016 47.9149 150.706 48.1956 150.315 48.391C149.929 48.5823 149.496 48.6779 149.018 48.6779C148.49 48.6779 148.022 48.5948 147.615 48.4284C147.211 48.2579 146.895 48.0001 146.667 47.655C146.442 47.3057 146.33 46.8629 146.33 46.3265H147.989C147.989 46.5718 148.028 46.7735 148.107 46.9315C148.186 47.0853 148.303 47.1997 148.457 47.2745C148.61 47.3494 148.798 47.3868 149.018 47.3868C149.213 47.3868 149.378 47.3431 149.511 47.2558C149.648 47.1685 149.752 47.0396 149.823 46.8691C149.897 46.6945 149.935 46.4762 149.935 46.2142ZM159.668 47.2808V48.5781H155.502V47.2808H159.668ZM156.057 41.3117V48.5781H154.404V41.3117H156.057ZM159.132 44.1746V45.472H155.502V44.1746H159.132ZM159.668 41.3117V42.6153H155.502V41.3117H159.668ZM166.557 46.1269H168.216C168.179 46.6342 168.031 47.0791 167.774 47.4617C167.516 47.8442 167.156 48.1436 166.695 48.3598C166.237 48.5719 165.69 48.6779 165.054 48.6779C164.547 48.6779 164.094 48.5968 163.694 48.4347C163.295 48.2725 162.954 48.0396 162.672 47.7361C162.393 47.4284 162.179 47.0583 162.029 46.6259C161.884 46.1934 161.811 45.7048 161.811 45.1601V44.736C161.811 44.1913 161.888 43.7027 162.042 43.2702C162.195 42.8336 162.414 42.4635 162.696 42.16C162.979 41.8523 163.318 41.6174 163.713 41.4552C164.112 41.2889 164.559 41.2057 165.054 41.2057C165.711 41.2057 166.264 41.318 166.713 41.5425C167.167 41.767 167.518 42.0768 167.767 42.4719C168.021 42.8627 168.173 43.3076 168.223 43.8066H166.57C166.549 43.5571 166.487 43.3347 166.383 43.1392C166.279 42.9438 166.119 42.79 165.902 42.6777C165.69 42.5654 165.408 42.5093 165.054 42.5093C164.792 42.5093 164.561 42.5571 164.362 42.6527C164.162 42.7442 163.996 42.8835 163.863 43.0706C163.73 43.2536 163.63 43.4844 163.563 43.763C163.497 44.0374 163.464 44.3597 163.464 44.7297V45.1601C163.464 45.526 163.493 45.8483 163.551 46.1269C163.613 46.4013 163.709 46.6321 163.838 46.8192C163.967 47.0063 164.131 47.1477 164.331 47.2434C164.534 47.339 164.776 47.3868 165.054 47.3868C165.383 47.3868 165.653 47.3411 165.865 47.2496C166.077 47.1581 166.239 47.0188 166.352 46.8317C166.468 46.6404 166.537 46.4055 166.557 46.1269ZM174.257 41.3117V48.5781H172.604V41.3117H174.257ZM176.652 41.3117V42.6153H170.253V41.3117H176.652Z" fill="#4E6F8E"/>
</g>
<defs>
<filter id="filter0_d_2496_644" x="0" y="0" width="199.113" height="73.1523" filterUnits="userSpaceOnUse" color-interpolation-filters="sRGB">
<feFlood flood-opacity="0" result="BackgroundImageFix"/>
<feColorMatrix in="SourceAlpha" type="matrix" values="0 0 0 0 0 0 0 0 0 0 0 0 0 0 0 0 0 0 127 0" result="hardAlpha"/>
<feOffset/>
<feGaussianBlur stdDeviation="5"/>
<feComposite in2="hardAlpha" operator="out"/>
<feColorMatrix type="matrix" values="0 0 0 0 0 0 0 0 0 0 0 0 0 0 0 0 0 0 0.25 0"/>
<feBlend mode="normal" in2="BackgroundImageFix" result="effect1_dropShadow_2496_644"/>
<feBlend mode="normal" in="SourceGraphic" in2="effect1_dropShadow_2496_644" result="shape"/>
</filter>
</defs>
</svg>
