<?xml version="1.0" standalone="no"?>
<!DOCTYPE svg PUBLIC "-//W3C//DTD SVG 20010904//EN"
 "http://www.w3.org/TR/2001/REC-SVG-20010904/DTD/svg10.dtd">
<svg version="1.0" xmlns="http://www.w3.org/2000/svg"
 width="1056.000000pt" height="1056.000000pt" viewBox="0 0 1056.000000 1056.000000"
 preserveAspectRatio="xMidYMid meet">
<metadata>
Created by potrace 1.14, written by Peter Selinger 2001-2017
</metadata>
<g transform="translate(0.000000,1056.000000) scale(0.100000,-0.100000)"
fill="#000000" stroke="none">
<path d="M5128 10265 c-2 -1 -37 -5 -78 -9 -87 -7 -115 -11 -190 -26 -30 -7
-64 -13 -75 -14 -11 -2 -27 -6 -35 -9 -8 -3 -28 -9 -45 -13 -16 -4 -32 -8 -35
-9 -3 -1 -18 -5 -35 -9 -16 -4 -44 -14 -62 -22 -17 -8 -35 -14 -41 -14 -9 0
-55 -17 -167 -62 -76 -31 -327 -157 -345 -173 -9 -8 -20 -15 -24 -15 -9 0
-221 -139 -271 -178 -22 -18 -45 -35 -50 -39 -174 -132 -374 -332 -538 -538
-40 -50 -133 -189 -140 -207 -4 -10 -11 -18 -17 -18 -5 0 -10 -4 -10 -9 0 -4
-22 -46 -48 -92 -101 -176 -195 -393 -254 -589 -19 -63 -52 -194 -62 -242 -22
-108 -36 -190 -41 -227 -3 -23 -7 -55 -9 -70 -27 -163 -27 -705 -1 -871 2 -14
7 -47 10 -75 4 -27 9 -63 12 -80 2 -16 6 -41 8 -55 7 -46 56 -301 69 -355 18
-72 77 -292 83 -305 3 -8 8 -23 9 -32 5 -23 85 -263 122 -363 60 -163 131
-337 195 -478 15 -31 27 -59 27 -62 0 -3 32 -68 70 -145 39 -77 70 -144 70
-149 0 -5 3 -11 8 -13 4 -1 26 -42 50 -89 61 -124 155 -293 164 -297 4 -2 8
-9 8 -15 0 -7 36 -73 80 -147 44 -73 80 -136 80 -137 0 -2 8 -16 19 -31 10
-15 49 -76 87 -137 82 -132 228 -355 243 -372 6 -7 11 -14 11 -17 0 -7 119
-176 144 -204 43 -49 105 -69 197 -63 38 2 116 58 142 102 45 75 31 191 -31
262 -8 9 -20 26 -26 36 -6 11 -62 94 -123 185 -62 90 -113 168 -113 171 0 8
-44 69 -52 73 -5 2 -8 8 -8 12 0 8 -78 139 -90 150 -3 3 -16 25 -29 50 -13 25
-29 52 -36 60 -18 23 -99 164 -98 170 1 3 -4 12 -10 20 -15 19 -21 30 -118
209 -91 166 -299 588 -299 605 0 2 -10 25 -22 52 -12 27 -23 54 -25 59 -1 6
-25 66 -53 135 -29 69 -58 145 -66 170 -8 25 -19 54 -24 65 -12 26 -53 151
-80 245 -12 41 -28 95 -35 120 -17 56 -46 166 -51 200 -3 14 -9 39 -14 55 -4
17 -12 48 -16 70 -4 22 -8 45 -9 50 -26 115 -63 399 -71 550 -12 226 2 526 32
680 3 11 7 35 10 54 8 50 13 71 18 89 3 9 7 30 10 46 15 87 123 403 148 433 6
7 8 13 5 13 -8 0 100 211 143 280 38 61 149 222 159 230 3 3 24 28 45 55 111
142 506 492 579 512 9 3 17 9 17 14 0 5 7 9 15 9 8 0 15 5 15 10 0 6 5 10 11
10 6 0 23 9 38 19 50 36 305 159 406 197 121 44 238 78 348 98 157 30 493 34
707 10 36 -4 76 -8 90 -10 14 -1 25 -3 25 -4 0 -1 18 -4 40 -6 156 -18 446
-97 620 -169 126 -52 332 -157 363 -184 9 -9 29 -22 45 -28 15 -7 27 -17 27
-23 0 -5 6 -10 13 -10 7 0 22 -8 33 -17 11 -10 40 -34 64 -53 62 -47 113 -94
183 -165 96 -98 247 -290 247 -314 0 -6 3 -11 8 -11 4 0 21 -26 37 -58 17 -31
32 -59 35 -62 30 -29 162 -358 185 -460 2 -8 12 -49 24 -90 11 -41 25 -102 31
-135 5 -33 12 -71 15 -85 7 -34 24 -165 31 -235 1 -16 5 -97 8 -179 4 -81 8
-151 10 -155 2 -3 0 -15 -4 -26 -4 -11 -4 -30 1 -41 4 -12 5 -24 2 -27 -3 -3
-7 -59 -9 -124 -2 -65 -6 -136 -8 -158 -2 -22 -7 -74 -11 -115 -4 -41 -8 -86
-10 -100 -3 -33 -16 -130 -21 -155 -2 -10 -6 -37 -9 -60 -7 -46 -32 -198 -40
-235 -3 -14 -8 -38 -11 -55 -3 -16 -10 -50 -15 -75 -6 -25 -13 -56 -16 -70 -9
-43 -11 -55 -13 -55 -1 0 -3 -11 -5 -25 -3 -19 -90 -361 -109 -425 -1 -5 -8
-30 -15 -55 -6 -25 -16 -56 -22 -70 -5 -14 -11 -34 -13 -45 -5 -26 -147 -457
-155 -470 -3 -5 -6 -14 -7 -20 -5 -28 -177 -475 -274 -710 -7 -16 -16 -39 -21
-50 -11 -28 -45 -107 -68 -157 -10 -24 -46 -104 -79 -178 -33 -74 -75 -169
-95 -210 -19 -41 -51 -110 -71 -153 -45 -98 -85 -157 -152 -223 -69 -67 -154
-124 -240 -158 -38 -16 -78 -32 -89 -37 -64 -28 -244 -54 -345 -49 -243 11
-695 2 -783 -16 -12 -2 -35 -6 -52 -8 -78 -11 -196 -40 -289 -71 -290 -97
-475 -265 -542 -490 -22 -74 -23 -81 -24 -181 -3 -216 137 -395 408 -520 41
-19 75 -34 77 -34 2 0 16 -5 32 -12 15 -6 30 -12 33 -13 3 0 37 -11 75 -24 39
-13 77 -25 85 -27 73 -18 107 -26 120 -29 8 -2 38 -9 65 -15 28 -7 59 -13 70
-14 11 -1 34 -6 50 -9 17 -4 46 -10 65 -13 19 -3 44 -7 55 -9 40 -7 91 -15
125 -19 19 -3 51 -7 70 -10 19 -3 62 -8 95 -11 33 -4 74 -8 90 -10 44 -6 159
-15 240 -20 175 -11 222 -15 248 -20 84 -16 202 -86 232 -136 16 -27 20 -51
19 -119 -1 -73 -5 -95 -32 -153 -60 -132 -148 -222 -277 -285 -66 -32 -231
-78 -322 -90 -70 -8 -369 -7 -437 2 -171 23 -444 101 -586 168 -36 17 -78 37
-95 44 -16 8 -52 28 -80 44 -27 17 -57 33 -65 37 -8 3 -17 9 -20 12 -3 3 -31
23 -62 45 -32 21 -82 60 -110 87 -80 75 -131 102 -197 105 -157 8 -263 -149
-200 -295 44 -103 306 -300 576 -432 79 -39 151 -72 161 -74 9 -2 45 -15 78
-28 234 -93 538 -150 809 -151 239 -1 374 17 570 76 39 12 73 21 78 20 4 -1 7
2 7 8 0 5 7 10 15 10 25 0 135 59 215 116 74 51 173 144 207 194 9 14 19 27
23 30 15 13 72 112 99 172 65 143 91 323 68 473 -10 59 -50 164 -85 220 -60
95 -168 185 -302 249 -72 35 -170 70 -170 60 0 -3 -8 0 -18 5 -23 12 -90 21
-217 26 -55 3 -122 7 -150 10 -27 2 -75 7 -105 10 -30 3 -76 7 -102 9 -44 4
-98 11 -178 22 -19 3 -51 7 -70 10 -19 2 -46 6 -60 9 -14 3 -43 7 -65 11 -22
3 -47 7 -55 9 -8 2 -31 7 -50 10 -136 22 -474 127 -500 155 -3 3 -18 12 -34
20 -16 8 -44 30 -63 49 -29 29 -33 38 -27 70 14 78 75 149 169 197 48 25 186
71 235 79 19 3 42 8 50 10 14 4 69 12 135 20 94 11 217 17 345 15 496 -6 528
-5 620 15 14 3 39 8 57 11 59 10 216 65 298 104 121 58 226 130 319 220 102
98 168 191 241 341 31 63 60 122 65 131 6 10 10 23 10 30 0 6 7 19 15 28 9 10
17 26 19 36 2 11 25 64 51 119 26 55 56 122 67 150 11 27 23 54 28 60 4 5 11
21 15 35 7 22 24 64 70 165 7 17 23 55 34 85 12 30 26 64 31 75 18 38 128 321
159 410 18 50 36 98 41 107 6 10 10 23 10 29 0 6 6 25 14 42 19 42 121 352
116 352 -2 0 2 10 8 21 6 12 23 61 37 110 66 223 97 330 99 344 2 8 6 22 9 30
7 17 64 253 71 290 2 14 15 75 29 135 14 61 28 126 31 145 3 19 8 46 11 60 3
14 7 36 9 50 3 14 8 45 12 70 4 25 8 52 10 60 1 8 5 35 9 60 10 71 13 91 20
160 4 36 9 74 11 85 4 22 10 79 20 205 4 47 8 200 8 340 1 231 -2 293 -20 470
-3 30 -7 71 -9 90 -2 19 -7 53 -11 75 -4 22 -8 49 -10 60 -1 11 -3 20 -4 20
-2 0 -9 55 -13 93 -1 12 -6 22 -10 22 -5 0 -6 3 -3 8 2 4 -2 32 -11 62 -15 55
-32 122 -38 150 -2 8 -9 29 -15 45 -6 17 -13 37 -15 46 -2 8 -22 65 -45 125
-23 60 -45 118 -48 129 -3 11 -9 24 -13 30 -5 5 -35 62 -67 125 -64 126 -125
225 -211 340 -77 103 -108 138 -240 270 -106 105 -335 290 -359 290 -6 0 -12
4 -14 9 -9 24 -297 174 -493 256 -38 16 -226 79 -285 96 -25 7 -49 14 -55 15
-17 6 -188 44 -220 50 -32 6 -67 12 -100 19 -22 4 -94 13 -170 21 -27 3 -66 7
-85 10 -36 6 -526 14 -532 9z"/>
<path d="M6645 6359 c-100 -18 -126 -43 -212 -199 -60 -109 -86 -155 -93 -165
-4 -5 -21 -35 -37 -65 -17 -30 -40 -73 -53 -95 -12 -22 -43 -76 -67 -120 -25
-44 -57 -100 -71 -125 -15 -25 -27 -47 -27 -50 0 -3 -15 -28 -32 -56 -18 -28
-33 -53 -33 -56 0 -5 -71 -133 -110 -198 -18 -30 -166 -294 -190 -339 -13 -25
-27 -48 -30 -51 -3 -3 -11 -16 -18 -30 -6 -14 -30 -56 -52 -95 -23 -38 -46
-81 -53 -95 -6 -14 -17 -31 -24 -38 -7 -7 -16 -24 -19 -38 -3 -13 -10 -24 -15
-24 -5 0 -9 -6 -9 -14 0 -7 -7 -19 -15 -26 -8 -7 -13 -16 -10 -20 3 -5 1 -11
-4 -14 -5 -3 -21 -29 -36 -58 -15 -29 -38 -68 -50 -86 l-22 -33 -17 25 c-9 14
-16 27 -16 30 0 3 -15 31 -34 63 -18 32 -49 87 -68 123 -19 36 -67 121 -105
190 -38 69 -83 150 -100 180 -53 97 -85 154 -103 185 -19 32 -55 97 -103 185
-16 30 -48 89 -72 130 -23 41 -57 102 -75 135 -18 33 -41 74 -50 90 -9 17 -32
57 -50 90 -18 33 -40 74 -50 90 -19 32 -54 96 -102 185 -17 30 -48 85 -69 123
-21 38 -39 70 -39 72 0 14 -74 119 -98 139 -84 71 -218 64 -288 -16 -47 -53
-58 -81 -57 -148 0 -55 5 -74 35 -125 19 -33 37 -67 41 -75 8 -16 47 -87 91
-165 45 -79 176 -314 210 -377 17 -31 67 -121 111 -200 44 -79 85 -152 91
-163 6 -11 57 -103 113 -205 57 -102 117 -210 134 -240 46 -84 72 -131 97
-175 12 -22 36 -65 53 -95 60 -112 168 -306 183 -330 8 -14 23 -41 32 -60 9
-19 20 -37 23 -40 3 -3 26 -43 51 -90 53 -97 85 -131 145 -155 78 -31 195 -1
260 68 17 18 48 64 69 102 36 68 66 120 92 160 6 11 16 30 22 42 5 12 20 39
33 60 13 21 41 70 62 108 21 39 48 88 60 111 13 22 35 59 49 82 14 23 26 44
26 48 0 4 20 40 45 81 25 40 45 77 45 81 0 4 11 24 25 45 14 20 22 37 18 37
-4 0 -3 4 3 8 6 4 26 34 44 67 18 33 43 78 55 100 12 22 31 56 41 75 11 19 21
37 24 40 3 3 16 25 30 50 13 25 34 63 47 85 20 36 51 91 93 167 8 15 43 76 76
135 34 60 74 131 90 158 27 50 48 86 82 148 128 225 201 358 210 384 13 39 9
112 -9 144 -7 13 -12 27 -12 30 3 8 -57 63 -83 77 -37 20 -90 28 -129 21z"/>
</g>
</svg>
