<svg xmlns="http://www.w3.org/2000/svg" viewBox="0 0 297.56 131.26">
    <defs>
        <style>.cls-color-1{fill:#231f20;}.cls-color-2{fill:#cb2026;}.cls-color-3{fill:#fff;}.cls-color-4{fill:#c8ca34;}.cls-color-5{fill:#939598;}.cls-color-6{fill:#2bace2;}.cls-color-7{fill:#e21c40;}.cls-color-8{fill:#292562;fill-opacity:0.8;}.cls-color-9{fill:none;stroke:#909090;stroke-miterlimit:10;stroke-width:1.67px;}</style>
    </defs>
    <g id="Layer_2" data-name="Layer 2">
        <g id="Layer_1-2" data-name="Layer 1">
            <path class="cls-color-1" d="M52.77,26.15H51.48v4.37h-1V20.17H53c2.11,0,3.4,1,3.4,2.91C56.4,25.12,54.89,26.15,52.77,26.15Zm.17-5.07H51.48v4.16h1.34c1.57,0,2.53-.69,2.53-2.13S54.51,21.08,52.94,21.08Z" />
            <path class="cls-color-1" d="M60.51,30.67c-1.81,0-3.18-1.35-3.18-3.69s1.4-3.71,3.18-3.71,3.23,1.35,3.23,3.71S62.33,30.67,60.51,30.67Zm0-6.56c-1.32,0-2.17,1.08-2.17,2.87s.88,2.85,2.17,2.85,2.21-1.08,2.21-2.85S61.85,24.11,60.51,24.11Z" />
            <path class="cls-color-1" d="M65.72,30.52V19.93l1-.18V30.52Z" />
            <path class="cls-color-1" d="M69.72,21.73a.72.72,0,0,1,0-1.44.72.72,0,0,1,0,1.44Zm-.49,8.79v-7.1h1v7.1Z" />
            <path class="cls-color-1" d="M75.41,30.67c-1.82,0-3.21-1.35-3.21-3.69s1.44-3.71,3.27-3.71a3.87,3.87,0,0,1,2.28.72l-.17,1a3.21,3.21,0,0,0-2.14-.85c-1.29,0-2.24,1-2.24,2.83s1,2.84,2.3,2.84A3.21,3.21,0,0,0,77.67,29l.14.91A3.77,3.77,0,0,1,75.41,30.67Z" />
            <path class="cls-color-1" d="M82.19,31.45c-.5,1.36-1.14,1.77-2.13,1.77a2.13,2.13,0,0,1-.44,0l-.15-.88a3.22,3.22,0,0,0,.57.06c.62,0,1-.27,1.26-1.05l.3-.74-2.68-7,1-.18,2.19,6,2.09-5.94h1Z" />
            <path class="cls-color-1" d="M98,30.61,96.39,29A4.19,4.19,0,0,1,93,30.68c-2,0-3.29-1.11-3.29-2.79s1-2.49,2.48-3.15a3.11,3.11,0,0,1-1.1-2.34,2.45,2.45,0,0,1,2.7-2.4,4.87,4.87,0,0,1,2.45.65l-.2,1a4.42,4.42,0,0,0-2.28-.78,1.45,1.45,0,0,0-1.63,1.46,2.8,2.8,0,0,0,1.09,2.05l3,3.06a10,10,0,0,0,.86-3l.94.19a11.23,11.23,0,0,1-1.12,3.47l2.19,2.2Zm-2.29-2.3-3-2.95c-1.29.54-2,1.36-2,2.44a2.06,2.06,0,0,0,2.25,2A3.31,3.31,0,0,0,95.75,28.31Z" />
            <path class="cls-color-1" d="M109.76,30.62,106.46,26h-1.37v4.52h-1V20.17h2.62c2.06,0,3.33,1.06,3.33,2.85a2.83,2.83,0,0,1-2.41,2.85l3.24,4.53Zm-3.14-9.54h-1.53v4h1.35c1.55,0,2.52-.74,2.52-2S108.17,21.08,106.62,21.08Z" />
            <path class="cls-color-1" d="M114.83,30.67c-1.86,0-3.2-1.26-3.2-3.71,0-2.28,1.29-3.69,3.05-3.69,1.92,0,2.88,1.59,2.88,3.56V27h-4.94c0,1.75.84,2.77,2.27,2.77a3.82,3.82,0,0,0,2.5-1l.15.9A4.12,4.12,0,0,1,114.83,30.67Zm-2.18-4.41h3.89c-.09-1.28-.72-2.19-1.88-2.19S112.85,24.83,112.65,26.26Z" />
            <path class="cls-color-1" d="M121.5,30.65A5.7,5.7,0,0,1,119,30l.17-1a4.68,4.68,0,0,0,2.47.76c1,0,1.61-.42,1.61-1.14s-.42-1-1.83-1.39c-1.58-.41-2.25-.92-2.25-2.09s.94-1.92,2.41-1.92a5.41,5.41,0,0,1,2.21.48l-.17.95a4.37,4.37,0,0,0-2.07-.56c-1,0-1.44.42-1.44,1s.39.88,1.59,1.2c1.68.45,2.49,1,2.49,2.25S123.14,30.65,121.5,30.65Z" />
            <path class="cls-color-1" d="M128.76,30.67c-1.86,0-3.19-1.26-3.19-3.71,0-2.28,1.29-3.69,3-3.69,1.92,0,2.88,1.59,2.88,3.56V27h-4.93c0,1.75.84,2.77,2.26,2.77a3.85,3.85,0,0,0,2.51-1l.15.9A4.14,4.14,0,0,1,128.76,30.67Zm-2.17-4.41h3.88c-.09-1.28-.72-2.19-1.87-2.19S126.78,24.83,126.59,26.26Z" />
            <path class="cls-color-1" d="M137.7,30.52l-.16-.95a3.65,3.65,0,0,1-2.51,1.1,1.89,1.89,0,0,1-2.11-1.94c0-1.66,1.35-2.44,4.56-2.76v-.46c0-1-.57-1.37-1.47-1.37a5.78,5.78,0,0,0-2.45.63l-.13-.88a6.29,6.29,0,0,1,2.64-.62c1.57,0,2.38.74,2.38,2.19v5.06Zm-.22-3.77c-2.79.29-3.57,1-3.57,1.92a1.12,1.12,0,0,0,1.27,1.16,3.55,3.55,0,0,0,2.3-1.07Z" />
            <path class="cls-color-1" d="M141.69,26.06v4.46h-1v-7.1h.74l.22,1.46a3.18,3.18,0,0,1,2.52-1.61l.17.93A3.4,3.4,0,0,0,141.69,26.06Z" />
            <path class="cls-color-1" d="M148.37,30.67c-1.82,0-3.21-1.35-3.21-3.69s1.44-3.71,3.27-3.71a3.87,3.87,0,0,1,2.28.72l-.17,1a3.21,3.21,0,0,0-2.14-.85c-1.29,0-2.24,1-2.24,2.83s1,2.84,2.3,2.84a3.21,3.21,0,0,0,2.17-.84l.14.91A3.77,3.77,0,0,1,148.37,30.67Z" />
            <path class="cls-color-1" d="M157.17,30.52V25.63c0-.92-.42-1.47-1.32-1.47a3.48,3.48,0,0,0-2.29,1.23v5.13h-1V19.93l1-.18v4.68a3.79,3.79,0,0,1,2.49-1.16,1.92,1.92,0,0,1,2.11,2.16v5.09Z" />
            <path class="cls-color-1" d="M55.14,10.9c-2.8,0-4.69-2.16-4.69-5.35S52.37.17,55.22.17a5,5,0,0,1,2.91.88L58,2.1a4.58,4.58,0,0,0-2.76-1c-2.28,0-3.69,1.81-3.69,4.43S52.94,10,55.19,10a4.87,4.87,0,0,0,3-1.08l.15,1A5.41,5.41,0,0,1,55.14,10.9Z" />
            <path class="cls-color-1" d="M62.87,10.86c-1.86,0-3.2-1.26-3.2-3.71,0-2.28,1.29-3.69,3-3.69,1.92,0,2.88,1.59,2.88,3.56v.21H60.66C60.69,9,61.5,10,62.93,10A3.82,3.82,0,0,0,65.43,9l.15.9A4.12,4.12,0,0,1,62.87,10.86ZM60.69,6.45h3.89c-.09-1.28-.72-2.19-1.88-2.19S60.89,5,60.69,6.45Z" />
            <path class="cls-color-1" d="M72.08,10.71V5.82c0-.92-.42-1.47-1.32-1.47a3.5,3.5,0,0,0-2.3,1.23v5.13h-1V3.61h.77l.16,1.05A3.9,3.9,0,0,1,71,3.46a1.94,1.94,0,0,1,2.12,2.18v5.07Z" />
            <path class="cls-color-1" d="M77.51,10.83c-1.11,0-1.85-.44-1.85-1.74V4.45H74.57V3.61h1.09V1.15l1-.16V3.61h1.63l.14.84H76.64V8.92c0,.72.28,1,1,1a4.11,4.11,0,0,0,.66-.08l.15.83A3.83,3.83,0,0,1,77.51,10.83Z" />
            <path class="cls-color-1" d="M83,10.86c-1.86,0-3.2-1.26-3.2-3.71,0-2.28,1.29-3.69,3-3.69,1.92,0,2.88,1.59,2.88,3.56v.21H80.76C80.79,9,81.6,10,83,10A3.82,3.82,0,0,0,85.53,9l.15.9A4.12,4.12,0,0,1,83,10.86ZM80.79,6.45h3.89C84.59,5.17,84,4.26,82.8,4.26S81,5,80.79,6.45Z" />
            <path class="cls-color-1" d="M88.56,6.26v4.45h-1V3.61h.74l.22,1.46a3.18,3.18,0,0,1,2.52-1.61l.17.93A3.39,3.39,0,0,0,88.56,6.26Z" />
            <path class="cls-color-1" d="M98.58.88A1,1,0,0,0,97.5,2V3.61H99l.13.84H97.5v6.26h-1V4.45H95.45V3.61h1.08V1.9a1.75,1.75,0,0,1,2-1.9c.23,0,.36,0,.51,0l.15.91A3.48,3.48,0,0,0,98.58.88Z" />
            <path class="cls-color-1" d="M103.2,10.86c-1.81,0-3.18-1.35-3.18-3.69s1.4-3.71,3.18-3.71,3.23,1.35,3.23,3.71S105,10.86,103.2,10.86Zm0-6.56c-1.32,0-2.17,1.08-2.17,2.87S101.91,10,103.2,10s2.21-1.08,2.21-2.85S104.54,4.3,103.2,4.3Z" />
            <path class="cls-color-1" d="M109.29,6.26v4.45h-1V3.61H109l.22,1.46a3.18,3.18,0,0,1,2.52-1.61l.17.93A3.39,3.39,0,0,0,109.29,6.26Z" />
            <path class="cls-color-1" d="M117.08,10.71V.36h5.4V1.3h-4.37V4.83h3.45l.15.93h-3.6v4h4.52v.94Z" />
            <path class="cls-color-1" d="M133.5,10.71V5.82c0-.92-.37-1.47-1.29-1.47A3.45,3.45,0,0,0,130,5.56v5.15h-1V5.82c0-.92-.38-1.47-1.29-1.47a3.41,3.41,0,0,0-2.25,1.2v5.16h-1V3.61h.76l.17,1a3.84,3.84,0,0,1,2.5-1.17,1.79,1.79,0,0,1,2,1.23,4,4,0,0,1,2.58-1.23,1.89,1.89,0,0,1,2.07,2.16v5.09Z" />
            <path class="cls-color-1" d="M139.5,10.86c-1.86,0-3.19-1.26-3.19-3.71,0-2.28,1.29-3.69,3-3.69,1.92,0,2.88,1.59,2.88,3.56v.21H137.3c0,1.75.84,2.77,2.26,2.77A3.85,3.85,0,0,0,142.07,9l.15.9A4.14,4.14,0,0,1,139.5,10.86Zm-2.17-4.41h3.88c-.09-1.28-.72-2.19-1.87-2.19S137.52,5,137.33,6.45Z" />
            <path class="cls-color-1" d="M145.1,6.26v4.45h-1V3.61h.73l.23,1.46a3.17,3.17,0,0,1,2.52-1.61l.16.93A3.37,3.37,0,0,0,145.1,6.26Z" />
            <path class="cls-color-1" d="M151.59,13.41c-1.83,0-3.24-.62-3.24-1.85,0-.72.56-1.33,1.62-1.87a.92.92,0,0,1-.52-.75c0-.36.24-.66.7-.95a2.29,2.29,0,0,1-1.3-2.11,2.46,2.46,0,0,1,2.62-2.42,2.79,2.79,0,0,1,1.8.6L155,3.49l.17,1-1.43.15a2.23,2.23,0,0,1,.38,1.26,2.47,2.47,0,0,1-2.66,2.41,2.69,2.69,0,0,1-.63-.06c-.3.17-.45.35-.45.51s.29.39,1.59.63l.53.11c1.57.29,2.43.75,2.43,1.8C155,12.64,153.42,13.41,151.59,13.41ZM150.75,10c-1,.45-1.42.94-1.42,1.5,0,.74.93,1.16,2.32,1.16S154,12.1,154,11.4s-.45-.86-1.71-1.1l-.69-.11C151.26,10.11,151,10.08,150.75,10Zm.72-5.8a1.61,1.61,0,0,0-1.65,1.71,1.68,1.68,0,0,0,3.36,0A1.64,1.64,0,0,0,151.47,4.2Z" />
            <path class="cls-color-1" d="M157.29,1.92a.73.73,0,0,1-.72-.72.73.73,0,0,1,.72-.72.72.72,0,0,1,0,1.44Zm-.49,8.79V3.61h1v7.1Z" />
            <path class="cls-color-1" d="M164.81,10.71V5.82c0-.92-.42-1.47-1.32-1.47a3.5,3.5,0,0,0-2.3,1.23v5.13h-1V3.61H161l.16,1.05a3.9,3.9,0,0,1,2.55-1.2,1.94,1.94,0,0,1,2.12,2.18v5.07Z" />
            <path class="cls-color-1" d="M170.48,13.41c-1.83,0-3.24-.62-3.24-1.85,0-.72.55-1.33,1.62-1.87a.93.93,0,0,1-.53-.75c0-.36.24-.66.71-.95a2.3,2.3,0,0,1-1.31-2.11,2.47,2.47,0,0,1,2.63-2.42,2.81,2.81,0,0,1,1.8.6l1.77-.57.16,1-1.42.15A2.22,2.22,0,0,1,173,5.88a2.46,2.46,0,0,1-2.65,2.41,2.69,2.69,0,0,1-.63-.06c-.3.17-.45.35-.45.51s.28.39,1.59.63l.52.11c1.58.29,2.43.75,2.43,1.8C173.85,12.64,172.31,13.41,170.48,13.41ZM169.64,10c-1,.45-1.43.94-1.43,1.5,0,.74.93,1.16,2.33,1.16s2.37-.56,2.37-1.26-.45-.86-1.71-1.1l-.69-.11C170.15,10.11,169.91,10.08,169.64,10Zm.72-5.8a1.6,1.6,0,0,0-1.65,1.71,1.68,1.68,0,0,0,3.36,0A1.64,1.64,0,0,0,170.36,4.2Z" />
            <path class="cls-color-1" d="M179.3,10.71V.36h1V10.71Z" />
            <path class="cls-color-1" d="M187.59,10.71V5.82c0-.92-.42-1.47-1.32-1.47A3.48,3.48,0,0,0,184,5.58v5.13h-1V3.61h.76l.17,1.05a3.9,3.9,0,0,1,2.55-1.2,1.93,1.93,0,0,1,2.11,2.18v5.07Z" />
            <path class="cls-color-1" d="M193.29.88A1,1,0,0,0,192.21,2V3.61h1.46l.13.84h-1.59v6.26h-1V4.45h-1.08V3.61h1.08V1.9a1.75,1.75,0,0,1,2-1.9c.23,0,.36,0,.51,0l.15.91A3.48,3.48,0,0,0,193.29.88Z" />
            <path class="cls-color-1" d="M197.93,10.86c-1.86,0-3.2-1.26-3.2-3.71,0-2.28,1.29-3.69,3.05-3.69,1.92,0,2.88,1.59,2.88,3.56v.21h-4.94c0,1.75.84,2.77,2.27,2.77A3.82,3.82,0,0,0,200.49,9l.15.9A4.12,4.12,0,0,1,197.93,10.86Zm-2.18-4.41h3.89c-.09-1.28-.72-2.19-1.88-2.19S196,5,195.75,6.45Z" />
            <path class="cls-color-1" d="M205.31,10.86c-1.82,0-3.21-1.35-3.21-3.69s1.44-3.71,3.27-3.71a3.87,3.87,0,0,1,2.28.72l-.17,1a3.21,3.21,0,0,0-2.14-.85c-1.29,0-2.24,1-2.24,2.83s1,2.84,2.3,2.84a3.16,3.16,0,0,0,2.17-.84l.14.91A3.77,3.77,0,0,1,205.31,10.86Z" />
            <path class="cls-color-1" d="M211.7,10.83c-1.11,0-1.85-.44-1.85-1.74V4.45h-1.09V3.61h1.09V1.15l1-.16V3.61h1.63l.14.84h-1.77V8.92c0,.72.28,1,1,1a4.11,4.11,0,0,0,.66-.08l.15.83A3.83,3.83,0,0,1,211.7,10.83Z" />
            <path class="cls-color-1" d="M215.06,1.92a.73.73,0,0,1-.72-.72.73.73,0,0,1,.72-.72.72.72,0,0,1,0,1.44Zm-.5,8.79V3.61h1v7.1Z" />
            <path class="cls-color-1" d="M220.71,10.86c-1.81,0-3.18-1.35-3.18-3.69s1.4-3.71,3.18-3.71,3.23,1.35,3.23,3.71S222.53,10.86,220.71,10.86Zm0-6.56c-1.32,0-2.17,1.08-2.17,2.87s.88,2.85,2.17,2.85,2.21-1.08,2.21-2.85S222.05,4.3,220.71,4.3Z" />
            <path class="cls-color-1" d="M230.58,10.71l-.16-1.05a3.9,3.9,0,0,1-2.55,1.2,1.93,1.93,0,0,1-2.12-2.17V3.61h1V8.5c0,.92.42,1.46,1.32,1.46a3.48,3.48,0,0,0,2.3-1.22V3.61h1v7.1Z" />
            <path class="cls-color-1" d="M235.73,10.84a5.64,5.64,0,0,1-2.55-.64l.16-1a4.68,4.68,0,0,0,2.47.76c1,0,1.61-.42,1.61-1.14s-.42-1-1.83-1.39c-1.57-.41-2.25-.92-2.25-2.09s.95-1.92,2.42-1.92a5.36,5.36,0,0,1,2.2.48l-.16.95a4.43,4.43,0,0,0-2.07-.56c-1,0-1.44.42-1.44,1s.39.88,1.59,1.2c1.68.45,2.49,1,2.49,2.25S237.36,10.84,235.73,10.84Z" />
            <path class="cls-color-1" d="M246.62,10.71h-2.78V.36h2.82c3.45,0,5.39,2.08,5.39,5.16S249.94,10.71,246.62,10.71Zm.06-9.42h-1.8V9.78h1.8c2.62,0,4.3-1.41,4.3-4.25S249.26,1.29,246.68,1.29Z" />
            <path class="cls-color-1" d="M254.73,1.92A.73.73,0,0,1,254,1.2a.73.73,0,0,1,.72-.72.72.72,0,0,1,0,1.44Zm-.5,8.79V3.61h1v7.1Z" />
            <path class="cls-color-1" d="M259.71,10.84a5.67,5.67,0,0,1-2.55-.64l.16-1a4.72,4.72,0,0,0,2.48.76c1,0,1.6-.42,1.6-1.14s-.42-1-1.83-1.39c-1.57-.41-2.25-.92-2.25-2.09s.95-1.92,2.42-1.92a5.36,5.36,0,0,1,2.2.48l-.16.95a4.43,4.43,0,0,0-2.07-.56c-1,0-1.44.42-1.44,1s.39.88,1.59,1.2c1.68.45,2.49,1,2.49,2.25S261.34,10.84,259.71,10.84Z" />
            <path class="cls-color-1" d="M267,10.86c-1.86,0-3.2-1.26-3.2-3.71,0-2.28,1.29-3.69,3.05-3.69,1.92,0,2.88,1.59,2.88,3.56v.21h-4.93C264.8,9,265.61,10,267,10A3.8,3.8,0,0,0,269.53,9l.16.9A4.16,4.16,0,0,1,267,10.86ZM264.8,6.45h3.88c-.09-1.28-.72-2.19-1.87-2.19S265,5,264.8,6.45Z" />
            <path class="cls-color-1" d="M275.91,10.71l-.17-.94a3.66,3.66,0,0,1-2.5,1.09,1.89,1.89,0,0,1-2.12-1.94c0-1.66,1.35-2.44,4.56-2.76V5.7c0-1-.57-1.37-1.47-1.37a5.74,5.74,0,0,0-2.44.63l-.14-.88a6.37,6.37,0,0,1,2.64-.62c1.58,0,2.39.74,2.39,2.19v5.06Zm-.23-3.77c-2.79.29-3.57,1-3.57,1.92A1.13,1.13,0,0,0,273.39,10,3.55,3.55,0,0,0,275.68,9Z" />
            <path class="cls-color-1" d="M281,10.84a5.64,5.64,0,0,1-2.55-.64l.16-1a4.69,4.69,0,0,0,2.48.76c1,0,1.6-.42,1.6-1.14s-.42-1-1.83-1.39c-1.57-.41-2.25-.92-2.25-2.09s1-1.92,2.42-1.92a5.36,5.36,0,0,1,2.2.48l-.16.95A4.43,4.43,0,0,0,281,4.33c-1,0-1.44.42-1.44,1s.39.88,1.59,1.2c1.68.45,2.49,1,2.49,2.25S282.61,10.84,281,10.84Z" />
            <path class="cls-color-1" d="M288.24,10.86c-1.86,0-3.2-1.26-3.2-3.71,0-2.28,1.29-3.69,3-3.69C290,3.46,291,5.05,291,7v.21H286c0,1.75.84,2.77,2.27,2.77A3.82,3.82,0,0,0,290.8,9l.15.9A4.12,4.12,0,0,1,288.24,10.86Zm-2.18-4.41H290c-.09-1.28-.72-2.19-1.88-2.19S286.26,5,286.06,6.45Z" />
            <path class="cls-color-1" d="M294.91,10.84a5.7,5.7,0,0,1-2.55-.64l.17-1A4.68,4.68,0,0,0,295,10c1,0,1.61-.42,1.61-1.14s-.42-1-1.83-1.39c-1.58-.41-2.25-.92-2.25-2.09s1-1.92,2.41-1.92a5.41,5.41,0,0,1,2.21.48l-.17.95a4.37,4.37,0,0,0-2.07-.56c-1,0-1.43.42-1.43,1s.38.88,1.58,1.2c1.68.45,2.5,1,2.5,2.25S296.55,10.84,294.91,10.84Z" />
            <rect class="cls-color-2" y="1.13" width="43.82" height="30.95" />
            <path class="cls-color-3" d="M1.8,3V30.26H42V3ZM41.27,29.5H2.55V3.71H41.27Z" />
            <path class="cls-color-3" d="M16.58,15.89a2.81,2.81,0,0,0,2.34-2.62,2.75,2.75,0,0,0-1.3-2.39,8.14,8.14,0,0,0-4.24-.83c-.4,0-2,0-3.15.06l-2.65.13h0v.49h.78c1.45,0,1.56.59,1.57,1.8v8.8c0,1.33-.3,1.69-2,1.7H7.35v.49h7.73c3.4,0,4.57-2.38,4.58-4.08S18.52,16.49,16.58,15.89ZM14,15.75H11.72V10.6c.53,0,1.36-.06,1.8-.06,2.57,0,3.42,1.33,3.42,2.8C16.94,15,16,15.75,14,15.75Zm3.63,3.76c0,1.64-.78,3.34-3.53,3.35-1.76,0-2.34-.54-2.35-2.14V16.24h2.22A3.36,3.36,0,0,1,17.6,19.51Z" />
            <path class="cls-color-3" d="M31.69,10.17v.54h.06c1.75.11,2,.38,2,2.44v5c0,3.59-2.38,4.56-4.76,4.57-3.12,0-4.75-1.7-4.75-4.55V12.2c0-1.21.44-1.47,1.6-1.49h.26v-.54H20.54v.54h.06c1.44,0,1.74.19,1.76,1.54v6.24c0,3.09,2.11,5.45,6.18,5.45,4.62,0,6.32-2.88,6.33-5.56V12.61c0-1.35.46-1.86,1.86-1.9h.06v-.54h-5.1Z" />
            <path class="cls-color-4" d="M80.33,82.69h0A15.45,15.45,0,0,0,64.91,98.11v.22h5.22a.81.81,0,0,1,0-.22,10.2,10.2,0,0,1,10.2-10.2h0a10.22,10.22,0,0,1,10.22,10.2v.22a10.23,10.23,0,0,1-10.22,10v5.23A15.44,15.44,0,0,0,95.75,98.35v-.21A15.45,15.45,0,0,0,80.33,82.69Z" />
            <path class="cls-color-1" d="M122.82,98.62c0-10.47,7.6-18.06,17.93-18.06s14.77,6.3,14.77,9.53c0,2.94-4,3.51-4.23,3.16-1.58-3.8-4.52-6.75-10.4-6.75-6.45,0-11.33,5.1-11.33,12.12s4.8,12.27,11.33,12.27c5.81,0,8.82-2.94,10.4-6.75.21-.35,4.23.15,4.23,3.24s-4.56,9.46-14.77,9.46C130.35,116.84,122.82,109.24,122.82,98.62Z" />
            <path class="cls-color-1" d="M159.82,98.84c0-10.47,7.46-18.25,17.64-18.25,10,0,16.57,7,16.57,17.35v.57c0,1.52-.5,2.08-2.15,2.08H166.42c.5,6.38,5.23,10.65,11.76,10.65,6,0,9-2.66,10.83-5.74.14-.14,3.73.5,3.73,3.52s-5.33,7.81-14.7,7.81C167.13,116.84,159.82,109.6,159.82,98.84Zm6.67-3h20.65c-.36-6-4-9.82-9.75-9.82s-10,4-10.9,9.79Z" />
            <path class="cls-color-1" d="M200.26,70.09c0-2.59,1.58-4,4.31-4s4.16,1.43,4.16,4S207.21,74,204.49,74,200.26,72.59,200.26,70.09Zm.65,42.73V84.5c0-2.58,1.36-3.44,3.23-3.44h.76c1.86,0,3.15.76,3.15,3.44v28.3c0,2.58-1.29,3.37-3.15,3.37h-.76c-1.87,0-3.23-.76-3.23-3.37Z" />
            <path class="cls-color-1" d="M215,98.7c0-10.9,6.84-18.14,16.35-18.14,5.59,0,9.82,2.57,11.83,5.66V67.43c0-.22,1.22-.76,2.58-.76,2.23,0,4.52,1.15,4.52,6.08V112.8c0,2.58-1.29,3.37-3.15,3.37h-.76c-1.87,0-3.16-.76-3.16-3.37v-2.63a13.78,13.78,0,0,1-12.11,6.67C221.92,116.84,215,109.6,215,98.7Zm28.25,2.14v-7.3a10.77,10.77,0,0,0-10.61-7.11c-6.45,0-10.76,4.88-10.76,12.27,0,7.17,4.45,12.26,10.65,12.26C238.27,111,243.29,106.71,243.29,100.84Z" />
            <path class="cls-color-5" d="M61.76,98.35H56.18a24.06,24.06,0,0,0,4.57,13.91L65.31,109A18.48,18.48,0,0,1,61.76,98.35Z" />
            <path class="cls-color-6" d="M80.33,74v5.58A18.59,18.59,0,0,1,98.91,98.11v.24A18.59,18.59,0,0,1,80.33,116.7h0a18.52,18.52,0,0,1-13.68-6.08l-4.18,3.7a24.12,24.12,0,0,0,17.86,7.94h0a24.19,24.19,0,0,0,24.16-23.91v-.23A24.18,24.18,0,0,0,80.33,74Z" />
            <path class="cls-color-7" d="M80.33,70.86h0V65h0A33,33,0,0,0,55.24,76.55l4.49,3.8A27.15,27.15,0,0,1,80.33,70.86Z" />
            <path class="cls-color-8" d="M107.59,98.35a27.29,27.29,0,0,1-27.26,27h0A27.15,27.15,0,0,1,60,116.17c-.36-.41-.7-.81-1-1.23a27.16,27.16,0,0,1-5.83-16.59v-.23A27.11,27.11,0,0,1,58.41,82l-4.87-3.26a32.85,32.85,0,0,0-6.31,19.4v.23a33,33,0,0,0,7.05,20.16c.4.51.82,1,1.25,1.52a33,33,0,0,0,24.82,11.23h0a33.17,33.17,0,0,0,33.11-32.91Z" />
            <line class="cls-color-9" x1="31.1" y1="54.38" x2="269.7" y2="54.38" />
        </g>
    </g>
</svg>