<?xml version="1.0" encoding="UTF-8"?><svg xmlns="http://www.w3.org/2000/svg" viewBox="0 0 351.22 92.12"><defs><style>.d{fill:#fff;}.e{fill:#e31937;}.f{fill:#231f20;}</style></defs><g id="a"/><g id="b"><g id="c"><g><rect class="e" x=".01" width="67.23" height="47.01"/><path class="d" d="M2.78,2.76V44.24h61.71V2.76H2.78ZM63.33,43.09H3.92V3.91H63.33V43.09Z"/><path class="d" d="M25.45,22.41c2.11-.44,3.59-2.14,3.59-3.97,0-1.56-.66-2.69-2-3.63-1.18-.85-3.67-1.26-6.51-1.27-.62,0-3.06,.03-4.84,.1-.94,.03-3.16,.16-4.06,.19h-.06v.75h1.19c2.23,.02,2.39,.9,2.42,2.73v13.37c-.02,2.02-.46,2.55-3.09,2.58h-.81v.75h11.86c5.22,0,7.02-3.62,7.03-6.19,0-2.51-1.75-4.48-4.72-5.4Zm-4.01-.2h-3.45v-7.83c.81-.03,2.08-.1,2.77-.1,3.94,0,5.24,2.02,5.25,4.25,0,2.48-1.49,3.66-4.57,3.67Zm5.57,5.71c0,2.49-1.19,5.08-5.41,5.09-2.69-.02-3.59-.82-3.61-3.25v-6.8h3.41c3.74,0,5.6,2.51,5.6,4.96Z"/><path class="d" d="M48.63,13.73v.82h.1c2.68,.17,3.05,.59,3.09,3.7v7.56c-.01,5.46-3.65,6.93-7.3,6.94-4.8-.01-7.28-2.57-7.3-6.91v-9.02c.02-1.84,.69-2.24,2.46-2.27h.39v-.82h-8.54v.82h.1c2.21,.07,2.66,.28,2.69,2.33v9.48c0,4.69,3.24,8.27,9.48,8.28,7.09,0,9.7-4.38,9.71-8.44v-8.76c.02-2.05,.71-2.83,2.85-2.88h.1v-.82h-7.83Z"/></g><g><path class="f" d="M2.97,71.37H0v-10.35H3.01c2.33,0,3.44,1.05,3.44,2.69,0,1.08-.6,1.78-1.5,2.16,1.15,.36,1.92,1.11,1.92,2.49,0,2.04-1.47,3.01-3.9,3.01Zm-.06-8.83H1.91v2.74h.92c1.17,0,1.79-.52,1.79-1.41,0-.83-.5-1.33-1.7-1.33Zm.03,4.15H1.91v3.16h1.06c1.26,0,2-.52,2-1.56s-.71-1.6-2.02-1.6Z"/><path class="f" d="M11.26,71.52c-1.96,0-3.39-1.41-3.39-3.76s1.44-3.78,3.41-3.78,3.42,1.42,3.42,3.78-1.45,3.76-3.43,3.76Zm0-6.07c-1.06,0-1.63,.96-1.63,2.31s.58,2.29,1.63,2.29c1.11,0,1.68-.95,1.68-2.29s-.6-2.31-1.68-2.31Z"/><path class="f" d="M18.6,71.52c-1.05,0-2.13-.33-2.82-.71l.24-1.5c.78,.51,1.74,.85,2.64,.85,.78,0,1.2-.28,1.2-.76,0-.51-.32-.72-1.47-1-1.75-.45-2.49-.96-2.49-2.28s.99-2.14,2.67-2.14c.94,0,1.81,.19,2.54,.51l-.24,1.5c-.72-.4-1.58-.66-2.29-.66-.67,0-1,.27-1,.66s.27,.61,1.35,.9c1.88,.48,2.61,.99,2.61,2.35s-1.02,2.28-2.92,2.28Z"/><path class="f" d="M25.83,71.49c-1.42,0-2.38-.52-2.38-2.17v-3.72h-1.02v-1.47h1.02v-2.29l1.77-.27v2.56h1.49l.22,1.47h-1.71v3.42c0,.58,.27,.9,.96,.9,.21,0,.41-.01,.57-.06l.22,1.52c-.28,.06-.61,.12-1.14,.12Z"/><path class="f" d="M31.27,71.52c-1.96,0-3.39-1.41-3.39-3.76s1.44-3.78,3.41-3.78,3.42,1.42,3.42,3.78-1.45,3.76-3.43,3.76Zm0-6.07c-1.06,0-1.63,.96-1.63,2.31s.58,2.29,1.63,2.29c1.11,0,1.68-.95,1.68-2.29s-.6-2.31-1.68-2.31Z"/><path class="f" d="M40.47,71.37v-4.74c0-.63-.27-1.06-.93-1.06-.57,0-1.12,.36-1.65,.92v4.89h-1.8v-7.24h1.53l.17,1.02c.67-.65,1.44-1.17,2.41-1.17,1.35,0,2.07,.82,2.07,2.17v5.22h-1.8Z"/><path class="f" d="M51.49,71.55c-2.5,0-4.14-1.49-4.14-4.19v-6.34h1.98v6.24c0,1.58,.72,2.56,2.17,2.56s2.21-.93,2.21-2.52v-6.28h2v6.3c0,2.74-1.71,4.23-4.21,4.23Z"/><path class="f" d="M61.83,71.37v-4.74c0-.63-.27-1.06-.93-1.06-.57,0-1.12,.36-1.65,.92v4.89h-1.8v-7.24h1.53l.17,1.02c.67-.65,1.44-1.17,2.41-1.17,1.35,0,2.07,.82,2.07,2.17v5.22h-1.8Z"/><path class="f" d="M66.42,62.92c-.6,0-1.08-.42-1.08-1.02s.48-1.05,1.08-1.05,1.06,.44,1.06,1.05-.48,1.02-1.06,1.02Zm-.92,8.46v-7.24h1.8v7.24h-1.8Z"/><path class="f" d="M72.84,71.42h-1.79l-2.5-7.15,1.89-.24,1.59,5.14,1.56-5.04h1.8l-2.55,7.29Z"/><path class="f" d="M79.48,71.52c-2.03,0-3.54-1.15-3.54-3.76,0-2.35,1.41-3.78,3.3-3.78,2.17,0,3.15,1.63,3.15,3.69,0,.15-.01,.33-.01,.44h-4.67c.09,1.43,.86,2.02,1.96,2.02,.93,0,1.7-.34,2.49-.9l.21,1.41c-.78,.54-1.72,.88-2.89,.88Zm-1.74-4.54h2.89c-.12-1.12-.57-1.75-1.44-1.75-.72,0-1.32,.58-1.46,1.75Z"/><path class="f" d="M85.65,67.22v4.15h-1.8v-7.24h1.53l.22,1.46c.48-.84,1.2-1.54,2.33-1.6l.28,1.78c-1.12,.08-2.05,.68-2.56,1.46Z"/><path class="f" d="M91.69,71.52c-1.05,0-2.13-.33-2.82-.71l.24-1.5c.78,.51,1.74,.85,2.64,.85,.78,0,1.2-.28,1.2-.76,0-.51-.32-.72-1.47-1-1.75-.45-2.49-.96-2.49-2.28s.99-2.14,2.67-2.14c.94,0,1.81,.19,2.54,.51l-.24,1.5c-.72-.4-1.58-.66-2.29-.66-.67,0-1,.27-1,.66s.27,.61,1.35,.9c1.88,.48,2.61,.99,2.61,2.35s-1.02,2.28-2.92,2.28Z"/><path class="f" d="M97.03,62.92c-.6,0-1.08-.42-1.08-1.02s.48-1.05,1.08-1.05,1.06,.44,1.06,1.05-.48,1.02-1.06,1.02Zm-.92,8.46v-7.24h1.8v7.24h-1.8Z"/><path class="f" d="M102.58,71.49c-1.42,0-2.38-.52-2.38-2.17v-3.72h-1.02v-1.47h1.02v-2.29l1.77-.27v2.56h1.49l.22,1.47h-1.71v3.42c0,.58,.27,.9,.96,.9,.21,0,.41-.01,.57-.06l.22,1.52c-.28,.06-.61,.12-1.14,.12Z"/><path class="f" d="M108.46,71.84c-.61,1.74-1.45,2.27-2.76,2.27-.39,0-.57-.03-.73-.08l-.24-1.51c.22,.06,.48,.1,.79,.1,.57,0,.99-.24,1.27-.92l.11-.3-2.62-7.14,1.88-.24,1.68,5.14,1.59-5.04h1.82l-2.78,7.71Z"/><path class="f" d="M117.46,61.97v3.69h3.33l.15,.93h-3.48v4.78h-1.04v-10.35h5.19v.94h-4.15Z"/><path class="f" d="M126.88,71.37l-.17-.94c-.66,.61-1.49,1.09-2.5,1.09-1.23,0-2.12-.67-2.12-1.94,0-1.66,1.35-2.44,4.56-2.76v-.46c0-.96-.57-1.36-1.47-1.36-.84,0-1.67,.25-2.45,.63l-.13-.89c.83-.36,1.63-.61,2.64-.61,1.58,0,2.39,.73,2.39,2.19v5.05h-.75Zm-.23-3.76c-2.79,.28-3.57,.96-3.57,1.92,0,.76,.52,1.15,1.27,1.15s1.61-.42,2.29-1.06v-2.01Z"/><path class="f" d="M132.66,71.52c-1.81,0-3.21-1.35-3.21-3.69s1.44-3.7,3.27-3.7c.96,0,1.72,.31,2.28,.72l-.17,.99c-.66-.56-1.32-.85-2.14-.85-1.29,0-2.24,1.02-2.24,2.83s.96,2.83,2.29,2.83c.75,0,1.46-.23,2.17-.84l.14,.92c-.66,.51-1.42,.79-2.4,.79Z"/><path class="f" d="M141.63,71.37l-.17-1.05c-.78,.69-1.59,1.2-2.55,1.2-1.42,0-2.12-.82-2.12-2.17v-5.07h.99v4.89c0,.92,.42,1.46,1.32,1.46,.75,0,1.51-.45,2.29-1.21v-5.13h.99v7.09h-.76Z"/><path class="f" d="M144.81,71.37v-10.59l.98-.18v10.77h-.98Z"/><path class="f" d="M150.4,71.49c-1.11,0-1.84-.44-1.84-1.74v-4.63h-1.09v-.84h1.09v-2.46l.97-.17v2.62h1.63l.14,.84h-1.77v4.47c0,.72,.29,1.04,1.05,1.04,.23,0,.5-.04,.66-.08l.15,.83c-.21,.06-.57,.12-.99,.12Z"/><path class="f" d="M155.61,72.3c-.49,1.36-1.14,1.77-2.13,1.77-.19,0-.33-.03-.43-.04l-.15-.88c.17,.03,.36,.06,.57,.06,.62,0,.97-.27,1.26-1.05l.3-.73-2.68-7.05,.98-.18,2.19,6.03,2.08-5.94h1.04l-3.02,8.02Z"/><path class="f" d="M166.36,71.52c-1.81,0-3.18-1.35-3.18-3.69s1.4-3.7,3.18-3.7,3.23,1.35,3.23,3.7-1.41,3.69-3.23,3.69Zm0-6.55c-1.32,0-2.17,1.08-2.17,2.86s.89,2.85,2.17,2.85,2.21-1.08,2.21-2.85-.87-2.86-2.21-2.86Z"/><path class="f" d="M173.92,61.55c-.68,0-1.08,.31-1.08,1.1v1.63h1.46l.13,.84h-1.59v6.25h-.98v-6.25h-1.08v-.84h1.08v-1.71c0-1.3,.78-1.9,2-1.9,.23,0,.36,.02,.51,.03l.15,.92c-.13-.03-.33-.06-.6-.06Z"/><path class="f" d="M183.78,71.57c-2.8,0-4.69-2.16-4.69-5.35s1.92-5.38,4.77-5.38c1.17,0,2.13,.34,2.91,.88l-.17,1.05c-.81-.6-1.71-1-2.76-1-2.28,0-3.69,1.8-3.69,4.42s1.43,4.44,3.67,4.44c1.11,0,2.12-.44,2.96-1.08l.15,.99c-.78,.58-1.92,1.03-3.15,1.03Z"/><path class="f" d="M191.49,71.52c-1.81,0-3.18-1.35-3.18-3.69s1.4-3.7,3.18-3.7,3.23,1.35,3.23,3.7-1.41,3.69-3.23,3.69Zm0-6.55c-1.32,0-2.17,1.08-2.17,2.86s.89,2.85,2.17,2.85,2.21-1.08,2.21-2.85-.87-2.86-2.21-2.86Z"/><path class="f" d="M205.63,71.37v-4.89c0-.92-.38-1.47-1.29-1.47-.73,0-1.47,.45-2.25,1.21v5.15h-.98v-4.89c0-.92-.38-1.47-1.29-1.47-.73,0-1.48,.45-2.25,1.2v5.16h-.99v-7.09h.76l.17,1.02c.76-.67,1.56-1.17,2.5-1.17,1.09,0,1.7,.45,1.95,1.23,.78-.71,1.6-1.23,2.58-1.23,1.41,0,2.07,.81,2.07,2.16v5.08h-.99Z"/><path class="f" d="M211.71,71.46c-.71,0-1.33-.13-1.85-.34v2.83l-.99,.17v-9.84h.76l.17,1.02c.55-.63,1.26-1.17,2.29-1.17,1.54,0,2.85,1.12,2.85,3.49,0,2.6-1.51,3.84-3.24,3.84Zm.28-6.45c-.84,0-1.48,.5-2.13,1.27v3.92c.56,.27,1.08,.42,1.82,.42,1.27,0,2.26-.98,2.26-2.96,0-1.72-.83-2.65-1.95-2.65Z"/><path class="f" d="M221.61,71.37l-.17-1.05c-.78,.69-1.59,1.2-2.55,1.2-1.42,0-2.12-.82-2.12-2.17v-5.07h.99v4.89c0,.92,.42,1.46,1.32,1.46,.75,0,1.51-.45,2.29-1.21v-5.13h.99v7.09h-.76Z"/><path class="f" d="M226.87,71.49c-1.11,0-1.84-.44-1.84-1.74v-4.63h-1.09v-.84h1.09v-2.46l.97-.17v2.62h1.63l.14,.84h-1.77v4.47c0,.72,.29,1.04,1.05,1.04,.23,0,.5-.04,.66-.08l.15,.83c-.21,.06-.57,.12-.99,.12Z"/><path class="f" d="M230.23,62.58c-.39,0-.72-.33-.72-.72s.33-.72,.72-.72,.71,.33,.71,.72-.32,.72-.71,.72Zm-.5,8.79v-7.09h.98v7.09h-.98Z"/><path class="f" d="M237.75,71.37v-4.89c0-.92-.42-1.47-1.32-1.47-.75,0-1.51,.47-2.29,1.23v5.13h-.99v-7.09h.76l.17,1.05c.78-.69,1.59-1.2,2.55-1.2,1.41,0,2.12,.81,2.12,2.17v5.07h-.99Z"/><path class="f" d="M243.42,74.07c-1.83,0-3.24-.61-3.24-1.84,0-.72,.56-1.33,1.62-1.88-.36-.23-.52-.48-.52-.75,0-.36,.24-.66,.7-.94-.78-.39-1.3-1.14-1.3-2.11,0-1.5,1.25-2.42,2.62-2.42,.71,0,1.32,.21,1.8,.6l1.77-.57,.17,.98-1.43,.15c.24,.36,.38,.78,.38,1.26,0,1.5-1.24,2.41-2.65,2.41-.21,0-.42-.01-.63-.06-.3,.17-.45,.35-.45,.51,0,.29,.29,.39,1.59,.63l.53,.1c1.57,.29,2.43,.75,2.43,1.8,0,1.37-1.54,2.13-3.38,2.13Zm-.84-3.4c-.98,.45-1.42,.93-1.42,1.5,0,.73,.93,1.15,2.32,1.15s2.37-.55,2.37-1.26c0-.56-.45-.85-1.71-1.09l-.69-.12c-.36-.08-.6-.1-.87-.18Zm.72-5.8c-1,0-1.65,.73-1.65,1.71,0,.92,.65,1.65,1.68,1.65s1.68-.72,1.68-1.68-.69-1.68-1.71-1.68Z"/><path class="f" d="M259.75,71.46l-1.65-1.65c-.87,1.12-2.04,1.73-3.4,1.73-2.03,0-3.29-1.11-3.29-2.79,0-1.54,1.04-2.49,2.47-3.15-.74-.76-1.09-1.4-1.09-2.34,0-1.33,1.02-2.4,2.7-2.4,.91,0,1.72,.24,2.44,.65l-.2,1.04c-.78-.5-1.56-.78-2.28-.78-1.05,0-1.63,.63-1.63,1.46,0,.73,.31,1.26,1.09,2.05l3.03,3.06c.39-.78,.67-1.77,.85-2.98l.95,.19c-.24,1.38-.62,2.54-1.12,3.46l2.19,2.21-1.06,.25Zm-2.29-2.29l-2.97-2.95c-1.29,.54-2.02,1.36-2.02,2.44,0,1.14,.92,2,2.25,2,1.05,0,2.01-.47,2.75-1.49Z"/><path class="f" d="M268.54,71.37h-2.78v-10.35h2.82c3.45,0,5.38,2.08,5.38,5.16s-2.1,5.19-5.43,5.19Zm.06-9.42h-1.8v8.49h1.8c2.62,0,4.3-1.41,4.3-4.24s-1.72-4.24-4.3-4.24Z"/><path class="f" d="M280.26,71.37l-.17-.94c-.66,.61-1.49,1.09-2.5,1.09-1.23,0-2.12-.67-2.12-1.94,0-1.66,1.35-2.44,4.56-2.76v-.46c0-.96-.57-1.36-1.47-1.36-.84,0-1.67,.25-2.45,.63l-.13-.89c.83-.36,1.63-.61,2.64-.61,1.58,0,2.39,.73,2.39,2.19v5.05h-.75Zm-.23-3.76c-2.79,.28-3.57,.96-3.57,1.92,0,.76,.52,1.15,1.27,1.15s1.61-.42,2.29-1.06v-2.01Z"/><path class="f" d="M285.45,71.49c-1.11,0-1.84-.44-1.84-1.74v-4.63h-1.09v-.84h1.09v-2.46l.97-.17v2.62h1.63l.14,.84h-1.77v4.47c0,.72,.29,1.04,1.05,1.04,.23,0,.5-.04,.66-.08l.15,.83c-.21,.06-.57,.12-.99,.12Z"/><path class="f" d="M292.54,71.37l-.17-.94c-.66,.61-1.49,1.09-2.5,1.09-1.23,0-2.12-.67-2.12-1.94,0-1.66,1.35-2.44,4.56-2.76v-.46c0-.96-.57-1.36-1.47-1.36-.84,0-1.67,.25-2.45,.63l-.13-.89c.83-.36,1.63-.61,2.64-.61,1.58,0,2.39,.73,2.39,2.19v5.05h-.75Zm-.23-3.76c-2.79,.28-3.57,.96-3.57,1.92,0,.76,.52,1.15,1.27,1.15s1.61-.42,2.29-1.06v-2.01Z"/><path class="f" d="M301.44,71.49c-1.11,0-2.06-.29-2.75-.65l.15-1.05c.63,.4,1.59,.78,2.64,.78,1.21,0,2.13-.69,2.13-1.86,0-1.02-.51-1.53-2.08-2.22-1.98-.87-2.7-1.53-2.7-2.98,0-1.56,1.26-2.61,2.97-2.61,.98,0,1.74,.23,2.28,.54l-.15,1.04c-.58-.39-1.3-.66-2.17-.66-1.21,0-1.89,.73-1.89,1.63s.5,1.38,2.08,2.08c1.92,.84,2.7,1.59,2.7,3.1,0,1.77-1.4,2.85-3.21,2.85Z"/><path class="f" d="M309.39,71.52c-1.81,0-3.21-1.35-3.21-3.69s1.44-3.7,3.27-3.7c.96,0,1.72,.31,2.28,.72l-.17,.99c-.66-.56-1.32-.85-2.14-.85-1.29,0-2.24,1.02-2.24,2.83s.96,2.83,2.29,2.83c.75,0,1.46-.23,2.17-.84l.14,.92c-.66,.51-1.42,.79-2.4,.79Z"/><path class="f" d="M314.19,62.58c-.39,0-.72-.33-.72-.72s.33-.72,.72-.72,.71,.33,.71,.72-.32,.72-.71,.72Zm-.5,8.79v-7.09h.98v7.09h-.98Z"/><path class="f" d="M319.86,71.52c-1.86,0-3.2-1.26-3.2-3.7,0-2.28,1.29-3.69,3.04-3.69,1.92,0,2.88,1.59,2.88,3.55v.21h-4.93c.03,1.75,.84,2.77,2.26,2.77,.95,0,1.77-.42,2.5-1.05l.15,.9c-.71,.6-1.62,1-2.71,1Zm-2.17-4.41h3.88c-.09-1.27-.72-2.19-1.88-2.19-1.04,0-1.82,.77-2.01,2.19Z"/><path class="f" d="M329.07,71.37v-4.89c0-.92-.42-1.47-1.32-1.47-.75,0-1.51,.47-2.29,1.23v5.13h-.99v-7.09h.76l.17,1.05c.78-.69,1.59-1.2,2.55-1.2,1.41,0,2.12,.81,2.12,2.17v5.07h-.99Z"/><path class="f" d="M335.08,71.52c-1.81,0-3.21-1.35-3.21-3.69s1.44-3.7,3.27-3.7c.96,0,1.72,.31,2.28,.72l-.17,.99c-.66-.56-1.32-.85-2.14-.85-1.29,0-2.24,1.02-2.24,2.83s.96,2.83,2.29,2.83c.75,0,1.46-.23,2.17-.84l.14,.92c-.66,.51-1.42,.79-2.4,.79Z"/><path class="f" d="M341.91,71.52c-1.86,0-3.2-1.26-3.2-3.7,0-2.28,1.29-3.69,3.04-3.69,1.92,0,2.88,1.59,2.88,3.55v.21h-4.93c.03,1.75,.84,2.77,2.26,2.77,.95,0,1.77-.42,2.5-1.05l.15,.9c-.71,.6-1.62,1-2.71,1Zm-2.17-4.41h3.88c-.09-1.27-.72-2.19-1.88-2.19-1.04,0-1.82,.77-2.01,2.19Z"/><path class="f" d="M348.58,71.51c-.94,0-1.93-.3-2.55-.64l.17-.96c.66,.42,1.53,.76,2.47,.76s1.61-.42,1.61-1.14-.42-1.02-1.83-1.4c-1.58-.41-2.25-.92-2.25-2.08,0-1.11,.95-1.92,2.42-1.92,.84,0,1.58,.19,2.21,.48l-.17,.94c-.65-.34-1.37-.55-2.07-.55-.97,0-1.44,.42-1.44,1s.39,.88,1.59,1.2c1.68,.45,2.49,.99,2.49,2.25s-1.01,2.05-2.64,2.05Z"/><path class="f" d="M2.67,89.37H.29v-10.35H2.69c2.13,0,3.19,1.04,3.19,2.58,0,1.11-.63,1.88-1.58,2.26,1.23,.35,2.04,1.14,2.04,2.52,0,1.98-1.46,2.98-3.67,2.98Zm-.01-9.45H1.31v3.6h1.32c1.47,0,2.24-.79,2.24-1.88s-.72-1.73-2.21-1.73Zm.04,4.46H1.31v4.09h1.45c1.58,0,2.57-.73,2.57-2.02,0-1.41-1-2.07-2.62-2.07Z"/><path class="f" d="M12.2,89.54c-2.43,0-3.87-1.62-3.87-4.03v-6.48h1.04v6.34c0,1.92,.95,3.24,2.85,3.24s2.87-1.21,2.87-3.18v-6.4h1.04v6.4c0,2.5-1.49,4.11-3.92,4.11Z"/><path class="f" d="M24.38,89.49c-1.11,0-2.06-.29-2.75-.65l.15-1.05c.63,.4,1.59,.78,2.64,.78,1.21,0,2.13-.69,2.13-1.86,0-1.02-.51-1.53-2.08-2.22-1.98-.87-2.7-1.53-2.7-2.98,0-1.56,1.26-2.61,2.97-2.61,.98,0,1.74,.23,2.28,.54l-.15,1.04c-.58-.39-1.3-.66-2.17-.66-1.21,0-1.89,.73-1.89,1.63s.5,1.38,2.08,2.08c1.92,.84,2.7,1.59,2.7,3.1,0,1.77-1.4,2.85-3.21,2.85Z"/><path class="f" d="M32.39,89.46c-.71,0-1.33-.13-1.85-.34v2.83l-.99,.17v-9.84h.76l.17,1.02c.55-.63,1.26-1.17,2.29-1.17,1.54,0,2.85,1.12,2.85,3.49,0,2.6-1.51,3.84-3.24,3.84Zm.28-6.45c-.84,0-1.48,.5-2.13,1.27v3.92c.56,.27,1.08,.42,1.82,.42,1.27,0,2.26-.98,2.26-2.96,0-1.72-.83-2.65-1.95-2.65Z"/><path class="f" d="M41.85,89.37l-.17-.94c-.66,.61-1.49,1.09-2.5,1.09-1.23,0-2.12-.67-2.12-1.94,0-1.66,1.35-2.44,4.56-2.76v-.46c0-.96-.57-1.36-1.47-1.36-.84,0-1.67,.25-2.45,.63l-.13-.89c.83-.36,1.63-.61,2.64-.61,1.58,0,2.39,.73,2.39,2.19v5.05h-.75Zm-.23-3.76c-2.79,.28-3.57,.96-3.57,1.92,0,.76,.52,1.15,1.27,1.15s1.61-.42,2.29-1.06v-2.01Z"/><path class="f" d="M45.84,84.92v4.45h-.99v-7.09h.73l.23,1.46c.52-.79,1.35-1.58,2.52-1.6l.17,.93c-1.17,.08-2.17,.92-2.66,1.86Z"/><path class="f" d="M54.52,89.48l-3.53-3.87v3.76h-.99v-10.59l.99-.18v6.72l3.09-3.04h1.28l-3.31,3.17,3.55,3.84-1.08,.19Z"/><path class="f" d="M58.15,86.37l-.6,.14-.3-7.48h1.2l-.3,7.35Zm-.88,3v-1.47h1.17v1.47h-1.17Z"/></g></g></g></svg>