<svg id="Layer_1" data-name="Layer 1" xmlns="http://www.w3.org/2000/svg" viewBox="0 0 725.03 70.57"><defs><style>.cls-1{fill:#231f20;}.cls-2{fill:#e3173e;}.cls-3{fill:#fff;}</style></defs><path class="cls-1" d="M247.8,114.05h-3.57V101.62h3.62c2.79,0,4.13,1.26,4.13,3.23a2.68,2.68,0,0,1-1.8,2.59,2.92,2.92,0,0,1,2.3,3C252.48,112.88,250.72,114.05,247.8,114.05Zm-.07-10.61h-1.21v3.3h1.1c1.4,0,2.14-.63,2.14-1.7S249.17,103.44,247.73,103.44Zm0,5h-1.24v3.8h1.28c1.51,0,2.39-.63,2.39-1.87S249.35,108.43,247.76,108.43Z" transform="translate(-18.46 -73.81)"/><path class="cls-1" d="M257.88,114.23c-2.36,0-4.07-1.7-4.07-4.52s1.73-4.54,4.09-4.54,4.1,1.71,4.1,4.54S260.26,114.23,257.88,114.23Zm0-7.3c-1.28,0-2,1.16-2,2.78s.7,2.75,2,2.75,2-1.13,2-2.75S259.18,106.93,257.88,106.93Z" transform="translate(-18.46 -73.81)"/><path class="cls-1" d="M266.68,114.23a7.55,7.55,0,0,1-3.38-.85l.29-1.8a6,6,0,0,0,3.16,1c.94,0,1.44-.35,1.44-.92s-.37-.87-1.76-1.21c-2.11-.54-3-1.15-3-2.73s1.19-2.58,3.21-2.58a7.63,7.63,0,0,1,3,.61l-.29,1.8a6,6,0,0,0-2.75-.79c-.81,0-1.21.32-1.21.79s.32.74,1.62,1.08c2.25.58,3.13,1.19,3.13,2.83S269,114.23,266.68,114.23Z" transform="translate(-18.46 -73.81)"/><path class="cls-1" d="M275.18,114.19c-1.71,0-2.87-.63-2.87-2.61v-4.47h-1.22v-1.76h1.22V102.6l2.13-.33v3.08h1.78l.27,1.76h-2.05v4.11c0,.7.32,1.08,1.15,1.08a2.93,2.93,0,0,0,.69-.07l.26,1.82A6.14,6.14,0,0,1,275.18,114.19Z" transform="translate(-18.46 -73.81)"/><path class="cls-1" d="M281.71,114.23c-2.36,0-4.07-1.7-4.07-4.52s1.73-4.54,4.09-4.54,4.1,1.71,4.1,4.54S284.09,114.23,281.71,114.23Zm0-7.3c-1.28,0-2,1.16-2,2.78s.7,2.75,2,2.75,2-1.13,2-2.75S283,106.93,281.71,106.93Z" transform="translate(-18.46 -73.81)"/><path class="cls-1" d="M292.83,114.05v-5.69c0-.76-.32-1.28-1.11-1.28a2.88,2.88,0,0,0-2,1.1v5.87h-2.16v-8.7h1.83l.2,1.22a4.23,4.23,0,0,1,2.9-1.4,2.32,2.32,0,0,1,2.49,2.61v6.27Z" transform="translate(-18.46 -73.81)"/><path class="cls-1" d="M306.07,114.26c-3,0-5-1.78-5-5v-7.62h2.37v7.49c0,1.89.87,3.08,2.61,3.08s2.65-1.11,2.65-3v-7.55h2.39v7.57A4.67,4.67,0,0,1,306.07,114.26Z" transform="translate(-18.46 -73.81)"/><path class="cls-1" d="M318.65,114.05v-5.69c0-.76-.33-1.28-1.12-1.28a2.9,2.9,0,0,0-2,1.1v5.87h-2.16v-8.7h1.84l.19,1.22a4.23,4.23,0,0,1,2.9-1.4,2.32,2.32,0,0,1,2.49,2.61v6.27Z" transform="translate(-18.46 -73.81)"/><path class="cls-1" d="M324.15,103.89a1.22,1.22,0,0,1-1.29-1.22,1.29,1.29,0,0,1,2.57,0A1.22,1.22,0,0,1,324.15,103.89Zm-1.09,10.16v-8.7h2.16v8.7Z" transform="translate(-18.46 -73.81)"/><path class="cls-1" d="M331.86,114.1h-2.14l-3-8.59,2.27-.29,1.91,6.18,1.87-6.05h2.16Z" transform="translate(-18.46 -73.81)"/><path class="cls-1" d="M339.83,114.23c-2.43,0-4.25-1.39-4.25-4.52,0-2.83,1.7-4.54,4-4.54,2.61,0,3.78,2,3.78,4.43,0,.18,0,.4,0,.52h-5.6c.11,1.71,1,2.43,2.36,2.43a5.07,5.07,0,0,0,3-1.08l.25,1.69A5.94,5.94,0,0,1,339.83,114.23Zm-2.09-5.46h3.48c-.14-1.35-.68-2.11-1.73-2.11C338.63,106.66,337.91,107.37,337.74,108.77Z" transform="translate(-18.46 -73.81)"/><path class="cls-1" d="M347.23,109.06v5h-2.16v-8.7h1.84l.27,1.75a3.38,3.38,0,0,1,2.79-1.93l.34,2.14A4,4,0,0,0,347.23,109.06Z" transform="translate(-18.46 -73.81)"/><path class="cls-1" d="M354.49,114.23a7.56,7.56,0,0,1-3.39-.85l.29-1.8a6,6,0,0,0,3.17,1c.93,0,1.44-.35,1.44-.92s-.38-.87-1.77-1.21c-2.1-.54-3-1.15-3-2.73s1.19-2.58,3.21-2.58a7.59,7.59,0,0,1,3,.61l-.29,1.8a6,6,0,0,0-2.75-.79c-.81,0-1.21.32-1.21.79s.33.74,1.62,1.08c2.25.58,3.14,1.19,3.14,2.83S356.77,114.23,354.49,114.23Z" transform="translate(-18.46 -73.81)"/><path class="cls-1" d="M360.89,103.89a1.22,1.22,0,0,1-1.29-1.22,1.29,1.29,0,0,1,2.57,0A1.23,1.23,0,0,1,360.89,103.89Zm-1.1,10.16v-8.7H362v8.7Z" transform="translate(-18.46 -73.81)"/><path class="cls-1" d="M367.55,114.19c-1.71,0-2.86-.63-2.86-2.61v-4.47h-1.22v-1.76h1.22V102.6l2.12-.33v3.08h1.79l.27,1.76h-2.06v4.11c0,.7.33,1.08,1.16,1.08a2.84,2.84,0,0,0,.68-.07l.27,1.82A6.25,6.25,0,0,1,367.55,114.19Z" transform="translate(-18.46 -73.81)"/><path class="cls-1" d="M374.61,114.6c-.74,2.09-1.75,2.72-3.31,2.72a2.94,2.94,0,0,1-.89-.09l-.28-1.82a3.25,3.25,0,0,0,.95.13,1.54,1.54,0,0,0,1.53-1.1l.13-.36-3.16-8.57,2.26-.29,2,6.18,1.91-6.05h2.18Z" transform="translate(-18.46 -73.81)"/><path class="cls-1" d="M387.88,114.24c-2.8,0-4.69-2.16-4.69-5.35s1.92-5.39,4.77-5.39a5,5,0,0,1,2.91.89l-.17,1a4.56,4.56,0,0,0-2.76-1c-2.28,0-3.69,1.8-3.69,4.43s1.43,4.44,3.68,4.44a4.87,4.87,0,0,0,2.95-1.08l.15,1A5.41,5.41,0,0,1,387.88,114.24Z" transform="translate(-18.46 -73.81)"/><path class="cls-1" d="M395.61,114.2c-1.86,0-3.2-1.26-3.2-3.71,0-2.28,1.29-3.69,3-3.69,1.92,0,2.88,1.59,2.88,3.56v.21H393.4c0,1.75.84,2.77,2.27,2.77a3.82,3.82,0,0,0,2.5-1l.15.9A4.12,4.12,0,0,1,395.61,114.2Zm-2.18-4.41h3.89c-.09-1.28-.72-2.19-1.88-2.19S393.63,108.36,393.43,109.79Z" transform="translate(-18.46 -73.81)"/><path class="cls-1" d="M404.82,114.05v-4.89c0-.92-.42-1.47-1.32-1.47a3.5,3.5,0,0,0-2.3,1.23v5.13h-1V107H401l.16,1a3.9,3.9,0,0,1,2.55-1.2,1.94,1.94,0,0,1,2.12,2.18v5.07Z" transform="translate(-18.46 -73.81)"/><path class="cls-1" d="M410.25,114.17c-1.11,0-1.85-.44-1.85-1.74v-4.64h-1.09V107h1.09v-2.46l1-.16V107H411l.14.84h-1.77v4.47c0,.72.28,1,1.05,1a4.11,4.11,0,0,0,.66-.08l.15.83A3.83,3.83,0,0,1,410.25,114.17Z" transform="translate(-18.46 -73.81)"/><path class="cls-1" d="M415.71,114.2c-1.86,0-3.2-1.26-3.2-3.71,0-2.28,1.29-3.69,3.05-3.69,1.92,0,2.88,1.59,2.88,3.56v.21H413.5c0,1.75.84,2.77,2.27,2.77a3.82,3.82,0,0,0,2.5-1l.15.9A4.12,4.12,0,0,1,415.71,114.2Zm-2.18-4.41h3.89c-.09-1.28-.72-2.19-1.88-2.19S413.73,108.36,413.53,109.79Z" transform="translate(-18.46 -73.81)"/><path class="cls-1" d="M421.3,109.59v4.46h-1V107h.73l.23,1.46a3.15,3.15,0,0,1,2.51-1.61l.17.93A3.4,3.4,0,0,0,421.3,109.59Z" transform="translate(-18.46 -73.81)"/><path class="cls-1" d="M431.32,104.22a1,1,0,0,0-1.08,1.1V107h1.46l.13.84h-1.59v6.26h-1v-6.26h-1.08V107h1.08v-1.71a1.75,1.75,0,0,1,2-1.9,3.49,3.49,0,0,1,.51,0l.15.91A2.7,2.7,0,0,0,431.32,104.22Z" transform="translate(-18.46 -73.81)"/><path class="cls-1" d="M435.94,114.2c-1.81,0-3.18-1.35-3.18-3.69s1.4-3.71,3.18-3.71,3.23,1.35,3.23,3.71S437.76,114.2,435.94,114.2Zm0-6.56c-1.32,0-2.17,1.08-2.17,2.87s.88,2.85,2.17,2.85,2.21-1.08,2.21-2.85S437.28,107.64,435.94,107.64Z" transform="translate(-18.46 -73.81)"/><path class="cls-1" d="M442,109.59v4.46h-1V107h.74l.22,1.46a3.18,3.18,0,0,1,2.52-1.61l.17.93A3.4,3.4,0,0,0,442,109.59Z" transform="translate(-18.46 -73.81)"/><path class="cls-1" d="M449.82,114.05V103.7h5.4v.94h-4.37v3.53h3.45l.15.93h-3.6v4h4.52v1Z" transform="translate(-18.46 -73.81)"/><path class="cls-1" d="M466.24,114.05v-4.89c0-.92-.37-1.47-1.29-1.47a3.45,3.45,0,0,0-2.25,1.21v5.15h-1v-4.89c0-.92-.38-1.47-1.29-1.47a3.41,3.41,0,0,0-2.25,1.2v5.16h-1V107H458l.17,1a3.84,3.84,0,0,1,2.5-1.17,1.79,1.79,0,0,1,1.95,1.23,4,4,0,0,1,2.58-1.23,1.89,1.89,0,0,1,2.07,2.16v5.09Z" transform="translate(-18.46 -73.81)"/><path class="cls-1" d="M472.24,114.2c-1.86,0-3.19-1.26-3.19-3.71,0-2.28,1.29-3.69,3-3.69,1.92,0,2.88,1.59,2.88,3.56v.21H470c0,1.75.84,2.77,2.26,2.77a3.85,3.85,0,0,0,2.51-1l.15.9A4.14,4.14,0,0,1,472.24,114.2Zm-2.17-4.41H474c-.09-1.28-.72-2.19-1.87-2.19S470.26,108.36,470.07,109.79Z" transform="translate(-18.46 -73.81)"/><path class="cls-1" d="M477.84,109.59v4.46h-1V107h.73l.23,1.46a3.17,3.17,0,0,1,2.52-1.61l.16.93A3.38,3.38,0,0,0,477.84,109.59Z" transform="translate(-18.46 -73.81)"/><path class="cls-1" d="M484.33,116.75c-1.83,0-3.24-.62-3.24-1.85,0-.72.56-1.33,1.62-1.87a.92.92,0,0,1-.52-.75c0-.36.24-.66.7-1a2.29,2.29,0,0,1-1.3-2.11,2.46,2.46,0,0,1,2.62-2.42,2.79,2.79,0,0,1,1.8.6l1.77-.57.17,1-1.43.15a2.23,2.23,0,0,1,.38,1.26,2.47,2.47,0,0,1-2.66,2.41,2.69,2.69,0,0,1-.63-.06c-.3.17-.45.35-.45.51s.29.39,1.59.63l.53.11c1.57.28,2.43.75,2.43,1.8C487.71,116,486.16,116.75,484.33,116.75Zm-.84-3.41c-1,.45-1.42.93-1.42,1.5,0,.74.93,1.16,2.32,1.16s2.37-.56,2.37-1.26-.45-.86-1.71-1.1l-.69-.12C484,113.45,483.76,113.42,483.49,113.34Zm.72-5.8a1.68,1.68,0,1,0,1.71,1.68A1.64,1.64,0,0,0,484.21,107.54Z" transform="translate(-18.46 -73.81)"/><path class="cls-1" d="M490,105.26a.72.72,0,1,1,.71-.72A.73.73,0,0,1,490,105.26Zm-.49,8.79V107h1v7.1Z" transform="translate(-18.46 -73.81)"/><path class="cls-1" d="M497.55,114.05v-4.89c0-.92-.42-1.47-1.32-1.47a3.5,3.5,0,0,0-2.3,1.23v5.13h-1V107h.77l.16,1a3.9,3.9,0,0,1,2.55-1.2,1.94,1.94,0,0,1,2.12,2.18v5.07Z" transform="translate(-18.46 -73.81)"/><path class="cls-1" d="M503.22,116.75c-1.83,0-3.24-.62-3.24-1.85,0-.72.55-1.33,1.62-1.87a.93.93,0,0,1-.53-.75c0-.36.24-.66.71-1a2.3,2.3,0,0,1-1.31-2.11,2.47,2.47,0,0,1,2.63-2.42,2.81,2.81,0,0,1,1.8.6l1.77-.57.16,1-1.42.15a2.22,2.22,0,0,1,.37,1.26,2.46,2.46,0,0,1-2.65,2.41,2.69,2.69,0,0,1-.63-.06c-.3.17-.45.35-.45.51s.28.39,1.59.63l.52.11c1.58.28,2.43.75,2.43,1.8C506.59,116,505.05,116.75,503.22,116.75Zm-.84-3.41c-1,.45-1.43.93-1.43,1.5,0,.74.93,1.16,2.33,1.16s2.37-.56,2.37-1.26-.45-.86-1.71-1.1l-.69-.12C502.89,113.45,502.65,113.42,502.38,113.34Zm.72-5.8a1.68,1.68,0,1,0,1.71,1.68A1.64,1.64,0,0,0,503.1,107.54Z" transform="translate(-18.46 -73.81)"/><path class="cls-1" d="M512,114.05V103.7h1v10.35Z" transform="translate(-18.46 -73.81)"/><path class="cls-1" d="M520.33,114.05v-4.89c0-.92-.42-1.47-1.32-1.47a3.48,3.48,0,0,0-2.29,1.23v5.13h-1V107h.76l.17,1a3.9,3.9,0,0,1,2.55-1.2,1.93,1.93,0,0,1,2.11,2.18v5.07Z" transform="translate(-18.46 -73.81)"/><path class="cls-1" d="M526,104.22a1,1,0,0,0-1.08,1.1V107h1.46l.13.84H525v6.26h-1v-6.26H522.9V107H524v-1.71a1.75,1.75,0,0,1,2-1.9,3.49,3.49,0,0,1,.51,0l.15.91A2.7,2.7,0,0,0,526,104.22Z" transform="translate(-18.46 -73.81)"/><path class="cls-1" d="M530.67,114.2c-1.86,0-3.2-1.26-3.2-3.71,0-2.28,1.29-3.69,3-3.69,1.92,0,2.88,1.59,2.88,3.56v.21h-4.94c0,1.75.84,2.77,2.27,2.77a3.82,3.82,0,0,0,2.5-1l.15.9A4.12,4.12,0,0,1,530.67,114.2Zm-2.18-4.41h3.89c-.09-1.28-.72-2.19-1.88-2.19S528.69,108.36,528.49,109.79Z" transform="translate(-18.46 -73.81)"/><path class="cls-1" d="M538.05,114.2c-1.82,0-3.21-1.35-3.21-3.69s1.44-3.71,3.27-3.71a3.87,3.87,0,0,1,2.28.72l-.17,1a3.21,3.21,0,0,0-2.14-.85c-1.29,0-2.24,1-2.24,2.83s1,2.84,2.3,2.84a3.21,3.21,0,0,0,2.17-.84l.14.91A3.77,3.77,0,0,1,538.05,114.2Z" transform="translate(-18.46 -73.81)"/><path class="cls-1" d="M544.44,114.17c-1.11,0-1.85-.44-1.85-1.74v-4.64H541.5V107h1.09v-2.46l1-.16V107h1.63l.14.84h-1.77v4.47c0,.72.28,1,1,1a4.11,4.11,0,0,0,.66-.08l.15.83A3.83,3.83,0,0,1,544.44,114.17Z" transform="translate(-18.46 -73.81)"/><path class="cls-1" d="M547.8,105.26a.72.72,0,1,1,0-1.44.72.72,0,0,1,0,1.44Zm-.5,8.79V107h1v7.1Z" transform="translate(-18.46 -73.81)"/><path class="cls-1" d="M553.45,114.2c-1.81,0-3.18-1.35-3.18-3.69s1.4-3.71,3.18-3.71,3.23,1.35,3.23,3.71S555.27,114.2,553.45,114.2Zm0-6.56c-1.32,0-2.17,1.08-2.17,2.87s.88,2.85,2.17,2.85,2.21-1.08,2.21-2.85S554.79,107.64,553.45,107.64Z" transform="translate(-18.46 -73.81)"/><path class="cls-1" d="M563.32,114.05l-.16-1a3.9,3.9,0,0,1-2.55,1.2,1.94,1.94,0,0,1-2.12-2.18V107h1v4.89c0,.92.42,1.46,1.32,1.46a3.48,3.48,0,0,0,2.3-1.22V107h1v7.1Z" transform="translate(-18.46 -73.81)"/><path class="cls-1" d="M568.47,114.18a5.64,5.64,0,0,1-2.55-.64l.16-1a4.69,4.69,0,0,0,2.48.76c1,0,1.6-.42,1.6-1.14s-.42-1-1.83-1.39c-1.57-.41-2.25-.92-2.25-2.09s.95-1.92,2.42-1.92a5.36,5.36,0,0,1,2.2.48l-.16,1a4.43,4.43,0,0,0-2.07-.56c-1,0-1.44.42-1.44,1s.39.88,1.59,1.2c1.68.45,2.49,1,2.49,2.25S570.1,114.18,568.47,114.18Z" transform="translate(-18.46 -73.81)"/><path class="cls-1" d="M579.36,114.05h-2.78V103.7h2.82c3.45,0,5.39,2.08,5.39,5.16S582.69,114.05,579.36,114.05Zm.06-9.42h-1.8v8.49h1.8c2.62,0,4.3-1.41,4.3-4.25S582,104.63,579.42,104.63Z" transform="translate(-18.46 -73.81)"/><path class="cls-1" d="M587.47,105.26a.72.72,0,0,1,0-1.44.72.72,0,0,1,0,1.44Zm-.49,8.79V107h1v7.1Z" transform="translate(-18.46 -73.81)"/><path class="cls-1" d="M592.45,114.18a5.7,5.7,0,0,1-2.55-.64l.17-1a4.68,4.68,0,0,0,2.47.76c1,0,1.61-.42,1.61-1.14s-.42-1-1.83-1.39c-1.58-.41-2.25-.92-2.25-2.09s.94-1.92,2.41-1.92a5.41,5.41,0,0,1,2.21.48l-.17,1a4.37,4.37,0,0,0-2.07-.56c-1,0-1.44.42-1.44,1s.39.88,1.59,1.2c1.68.45,2.49,1,2.49,2.25S594.09,114.18,592.45,114.18Z" transform="translate(-18.46 -73.81)"/><path class="cls-1" d="M599.71,114.2c-1.86,0-3.19-1.26-3.19-3.71,0-2.28,1.29-3.69,3-3.69,1.92,0,2.88,1.59,2.88,3.56v.21h-4.93c0,1.75.84,2.77,2.26,2.77a3.85,3.85,0,0,0,2.51-1l.15.9A4.14,4.14,0,0,1,599.71,114.2Zm-2.17-4.41h3.88c-.09-1.28-.72-2.19-1.87-2.19S597.73,108.36,597.54,109.79Z" transform="translate(-18.46 -73.81)"/><path class="cls-1" d="M608.65,114.05l-.16-1a3.65,3.65,0,0,1-2.51,1.1,1.89,1.89,0,0,1-2.11-1.94c0-1.66,1.35-2.44,4.56-2.76V109c0-1-.57-1.37-1.47-1.37a5.78,5.78,0,0,0-2.45.63l-.13-.88a6.29,6.29,0,0,1,2.64-.62c1.57,0,2.38.74,2.38,2.19v5.06Zm-.22-3.77c-2.79.29-3.57,1-3.57,1.92a1.12,1.12,0,0,0,1.27,1.16,3.55,3.55,0,0,0,2.3-1.07Z" transform="translate(-18.46 -73.81)"/><path class="cls-1" d="M613.72,114.18a5.7,5.7,0,0,1-2.55-.64l.17-1a4.68,4.68,0,0,0,2.47.76c1,0,1.61-.42,1.61-1.14s-.42-1-1.83-1.39c-1.58-.41-2.25-.92-2.25-2.09s.94-1.92,2.41-1.92a5.41,5.41,0,0,1,2.21.48l-.17,1a4.37,4.37,0,0,0-2.07-.56c-1,0-1.44.42-1.44,1s.39.88,1.59,1.2c1.68.45,2.49,1,2.49,2.25S615.36,114.18,613.72,114.18Z" transform="translate(-18.46 -73.81)"/><path class="cls-1" d="M621,114.2c-1.86,0-3.19-1.26-3.19-3.71,0-2.28,1.29-3.69,3-3.69,1.92,0,2.88,1.59,2.88,3.56v.21h-4.93c0,1.75.84,2.77,2.26,2.77a3.85,3.85,0,0,0,2.51-1l.15.9A4.14,4.14,0,0,1,621,114.2Zm-2.17-4.41h3.88c-.09-1.28-.72-2.19-1.87-2.19S619,108.36,618.81,109.79Z" transform="translate(-18.46 -73.81)"/><path class="cls-1" d="M627.66,114.18a5.64,5.64,0,0,1-2.55-.64l.16-1a4.69,4.69,0,0,0,2.48.76c1,0,1.6-.42,1.6-1.14s-.42-1-1.83-1.39c-1.57-.41-2.25-.92-2.25-2.09s1-1.92,2.42-1.92a5.36,5.36,0,0,1,2.2.48l-.16,1a4.43,4.43,0,0,0-2.07-.56c-1,0-1.44.42-1.44,1s.39.88,1.59,1.2c1.68.45,2.49,1,2.49,2.25S629.29,114.18,627.66,114.18Z" transform="translate(-18.46 -73.81)"/><path class="cls-1" d="M638.1,109.68h-1.29v4.37h-1V103.7h2.55c2.12,0,3.41,1,3.41,2.91C641.73,108.65,640.21,109.68,638.1,109.68Zm.16-5.07h-1.45v4.16h1.33c1.58,0,2.54-.69,2.54-2.13S639.84,104.61,638.26,104.61Z" transform="translate(-18.46 -73.81)"/><path class="cls-1" d="M645.84,114.2c-1.82,0-3.18-1.35-3.18-3.69s1.39-3.71,3.18-3.71,3.22,1.35,3.22,3.71S647.65,114.2,645.84,114.2Zm0-6.56c-1.32,0-2.18,1.08-2.18,2.87s.89,2.85,2.18,2.85,2.2-1.08,2.2-2.85S647.17,107.64,645.84,107.64Z" transform="translate(-18.46 -73.81)"/><path class="cls-1" d="M651,114.05V103.46l1-.18v10.77Z" transform="translate(-18.46 -73.81)"/><path class="cls-1" d="M655.05,105.26a.72.72,0,1,1,0-1.44.72.72,0,0,1,0,1.44Zm-.5,8.79V107h1v7.1Z" transform="translate(-18.46 -73.81)"/><path class="cls-1" d="M660.73,114.2c-1.81,0-3.21-1.35-3.21-3.69s1.44-3.71,3.27-3.71a3.84,3.84,0,0,1,2.28.72l-.17,1a3.19,3.19,0,0,0-2.14-.85c-1.29,0-2.23,1-2.23,2.83s1,2.84,2.29,2.84a3.19,3.19,0,0,0,2.17-.84l.14.91A3.75,3.75,0,0,1,660.73,114.2Z" transform="translate(-18.46 -73.81)"/><path class="cls-1" d="M667.51,115c-.49,1.36-1.14,1.77-2.13,1.77a2.23,2.23,0,0,1-.44,0l-.15-.88a3.22,3.22,0,0,0,.57.06c.62,0,1-.27,1.26-1l.3-.74-2.68-7,1-.18,2.19,6,2.09-5.94h1Z" transform="translate(-18.46 -73.81)"/><path class="cls-1" d="M683.36,114.14l-1.65-1.65a4.19,4.19,0,0,1-3.4,1.72c-2,0-3.28-1.11-3.28-2.79s1-2.49,2.47-3.15a3.14,3.14,0,0,1-1.1-2.34,2.45,2.45,0,0,1,2.71-2.4,4.86,4.86,0,0,1,2.44.65l-.2,1a4.42,4.42,0,0,0-2.28-.78,1.46,1.46,0,0,0-1.63,1.46,2.8,2.8,0,0,0,1.09,2l3,3.06a10,10,0,0,0,.86-3l.94.19a11.23,11.23,0,0,1-1.12,3.47l2.19,2.2Zm-2.29-2.3-3-3c-1.29.54-2,1.36-2,2.44a2.06,2.06,0,0,0,2.25,2A3.31,3.31,0,0,0,681.07,111.84Z" transform="translate(-18.46 -73.81)"/><path class="cls-1" d="M695.08,114.15l-3.3-4.62h-1.37v4.52h-1V103.7H692c2.06,0,3.33,1.06,3.33,2.85a2.83,2.83,0,0,1-2.41,2.85l3.24,4.53Zm-3.14-9.54h-1.53v4h1.35c1.55,0,2.52-.74,2.52-2S693.49,104.61,691.94,104.61Z" transform="translate(-18.46 -73.81)"/><path class="cls-1" d="M700.15,114.2c-1.86,0-3.2-1.26-3.2-3.71,0-2.28,1.29-3.69,3-3.69,1.92,0,2.88,1.59,2.88,3.56v.21h-4.94c0,1.75.84,2.77,2.27,2.77a3.82,3.82,0,0,0,2.5-1l.15.9A4.12,4.12,0,0,1,700.15,114.2ZM698,109.79h3.89c-.09-1.28-.72-2.19-1.88-2.19S698.17,108.36,698,109.79Z" transform="translate(-18.46 -73.81)"/><path class="cls-1" d="M706.82,114.18a5.7,5.7,0,0,1-2.55-.64l.17-1a4.68,4.68,0,0,0,2.47.76c1,0,1.61-.42,1.61-1.14s-.42-1-1.83-1.39c-1.58-.41-2.25-.92-2.25-2.09s.94-1.92,2.41-1.92a5.41,5.41,0,0,1,2.21.48l-.17,1a4.37,4.37,0,0,0-2.07-.56c-1,0-1.44.42-1.44,1s.39.88,1.59,1.2c1.68.45,2.49,1,2.49,2.25S708.46,114.18,706.82,114.18Z" transform="translate(-18.46 -73.81)"/><path class="cls-1" d="M714.08,114.2c-1.86,0-3.19-1.26-3.19-3.71,0-2.28,1.29-3.69,3-3.69,1.92,0,2.88,1.59,2.88,3.56v.21h-4.93c0,1.75.84,2.77,2.26,2.77a3.85,3.85,0,0,0,2.51-1l.15.9A4.14,4.14,0,0,1,714.08,114.2Zm-2.17-4.41h3.88c-.09-1.28-.72-2.19-1.87-2.19S712.1,108.36,711.91,109.79Z" transform="translate(-18.46 -73.81)"/><path class="cls-1" d="M723,114.05l-.16-1a3.65,3.65,0,0,1-2.51,1.1,1.89,1.89,0,0,1-2.11-1.94c0-1.66,1.35-2.44,4.56-2.76V109c0-1-.57-1.37-1.47-1.37a5.78,5.78,0,0,0-2.45.63l-.13-.88a6.29,6.29,0,0,1,2.64-.62c1.57,0,2.38.74,2.38,2.19v5.06Zm-.22-3.77c-2.79.29-3.57,1-3.57,1.92a1.12,1.12,0,0,0,1.27,1.16,3.55,3.55,0,0,0,2.3-1.07Z" transform="translate(-18.46 -73.81)"/><path class="cls-1" d="M727,109.59v4.46h-1V107h.74l.22,1.46a3.18,3.18,0,0,1,2.52-1.61l.17.93A3.4,3.4,0,0,0,727,109.59Z" transform="translate(-18.46 -73.81)"/><path class="cls-1" d="M733.69,114.2c-1.82,0-3.21-1.35-3.21-3.69s1.44-3.71,3.27-3.71a3.87,3.87,0,0,1,2.28.72l-.17,1a3.21,3.21,0,0,0-2.14-.85c-1.29,0-2.24,1-2.24,2.83s1,2.84,2.3,2.84a3.21,3.21,0,0,0,2.17-.84l.14.91A3.77,3.77,0,0,1,733.69,114.2Z" transform="translate(-18.46 -73.81)"/><path class="cls-1" d="M742.49,114.05v-4.89c0-.92-.42-1.47-1.32-1.47a3.48,3.48,0,0,0-2.29,1.23v5.13h-1V103.46l1-.18V108a3.79,3.79,0,0,1,2.49-1.16,1.92,1.92,0,0,1,2.11,2.16v5.09Z" transform="translate(-18.46 -73.81)"/><polygon class="cls-2" points="157.51 70.57 0 70.57 0 0 157.51 0 157.51 70.57 157.51 70.57"/><path class="cls-3" d="M172.3,140.71H22.12V77.47H172.3v63.24ZM21.05,76.4v65.39H173.38V76.4Z" transform="translate(-18.46 -73.81)"/><path class="cls-3" d="M46.22,101c0,2.34-1.12,4.76-5.07,4.76-2.52,0-3.36-.77-3.38-3V96.38H41c3.5,0,5.24,2.35,5.25,4.64ZM41,95.68H37.77V88.35c.76,0,1.95-.09,2.6-.09,3.68,0,4.9,1.9,4.91,4,0,2.32-1.4,3.43-4.28,3.44Zm3.76.19a4,4,0,0,0,3.36-3.72,3.9,3.9,0,0,0-1.87-3.4c-1.11-.8-3.43-1.19-6.1-1.19-.57,0-2.86,0-4.52.09-.88,0-3,.15-3.8.18h-.06v.69h1.11c2.09,0,2.25.84,2.26,2.56v12.53c0,1.88-.42,2.39-2.89,2.41h-.76v.69H42.6c4.89,0,6.57-3.38,6.58-5.79s-1.64-4.2-4.42-5.06Z" transform="translate(-18.46 -73.81)"/><path class="cls-3" d="M63.47,88.26c4.94,0,8.47,3.92,8.47,9.5,0,4.27-2.33,8.56-7.2,8.57s-8.63-4-8.63-9.56c0-3.61,2.1-8.5,7.36-8.51Zm.78-.88c-6.45,0-11.09,4.28-11.1,10.32,0,5.68,5,9.5,10.95,9.51s10.79-4.31,10.81-10.44c0-5.48-4.93-9.38-10.66-9.39Z" transform="translate(-18.46 -73.81)"/><path class="cls-3" d="M80.12,106.72h0l0,0a.67.67,0,0,1,.55-.31,23.73,23.73,0,0,0,4.2.82c3.55,0,6.21-2.23,6.21-5.22,0-5.62-9.72-6.79-9.68-11,0-1.65,1.35-2.77,3.32-2.77a5.28,5.28,0,0,1,4.8,3.52v0h.63l-.53-4h-.57l0,0c-.18.23-.26.27-.49.28-1,0-1.56-.76-4.1-.76-3.11,0-5.44,1.89-5.44,4.44,0,5.35,9.73,6.69,9.69,11,0,2.34-2.1,3.49-4.1,3.5a5.17,5.17,0,0,1-5-4.21v0h-.7l.65,4.71Z" transform="translate(-18.46 -73.81)"/><path class="cls-3" d="M94.9,92.39v0c.46-2.66,1-3.29,2.14-3.3h5.19v14.85c0,1.61-.49,2.12-2.32,2.14H98.73v.69h9.63V106h-1.18c-1.83,0-2.3-.53-2.32-2.14V89h5.19c1.16,0,1.68.63,2.14,3.29v0h.66l-.49-5h-.69v.05c0,.31-.45.41-.87.4H96.29a2.14,2.14,0,0,1-.58-.08.38.38,0,0,1-.29-.32v-.05h-.68l-.5,5h.67Z" transform="translate(-18.46 -73.81)"/><path class="cls-3" d="M126.57,106.33c-4.82,0-8.62-4-8.62-9.56,0-3.61,2.1-8.5,7.36-8.51,4.94,0,8.47,3.92,8.47,9.5,0,4.27-2.33,8.56-7.21,8.57Zm-.48-19c-6.45,0-11.09,4.28-11.1,10.32,0,5.68,5,9.5,11,9.51s10.79-4.31,10.8-10.44c0-5.48-4.92-9.38-10.65-9.39Z" transform="translate(-18.46 -73.81)"/><path class="cls-3" d="M146.85,106.09V106h-.06c-2.57,0-3-.4-3-2.57V90.68l15.54,16.26h.87V90c0-1.15.42-1.49,2.69-1.51H163v-.7h-7.19v.7h.06c2.42.08,2.88.35,2.9,2.17v11.85L144.61,87.83h-4.83v.7h.06a4.33,4.33,0,0,1,2.48.73v14.81c0,1.36-.55,1.94-2.41,2h-.19v.69h7.13v-.63Z" transform="translate(-18.46 -73.81)"/><path class="cls-3" d="M42.1,117.4v.51h.06c1.64.1,1.87.36,1.89,2.27v4.65c0,3.35-2.24,4.25-4.48,4.26-3,0-4.48-1.58-4.49-4.25V119.3c0-1.13.43-1.37,1.52-1.39h.24v-.51H31.59v.51h.06c1.36,0,1.63.17,1.65,1.43v5.82c0,2.89,2,5.08,5.83,5.09,4.35,0,6-2.69,6-5.19v-5.38c0-1.26.44-1.74,1.75-1.77h.07v-.51H42.1Z" transform="translate(-18.46 -73.81)"/><path class="cls-3" d="M59.43,117.85v.06h.06c1.6.06,1.88.22,1.9,1.41v7.78l-9.3-9.69H48.87v.5h.06a2.87,2.87,0,0,1,1.61.47v9.77c0,.9-.35,1.26-1.57,1.28h-.14v.5h4.75v-.5h-.07c-1.69,0-1.93-.25-1.95-1.67v-8.4L61.8,130.07h.61V118.88c0-.74.25-.95,1.75-1h.06v-.51H59.43v.45Z" transform="translate(-18.46 -73.81)"/><path class="cls-3" d="M66.94,117.85v.06H67c1.11.07,1.42.31,1.44,1.37v8.5c0,1.33-.21,1.57-1.43,1.65h-.06v.5h5v-.5h-.06c-1.37,0-1.62-.35-1.63-1.51v-8.46c0-1.32.38-1.53,1.63-1.55h.06v-.51h-5v.45Z" transform="translate(-18.46 -73.81)"/><path class="cls-3" d="M82.57,117.85v.06h.06c1.36,0,1.79.23,1.79.78a4.09,4.09,0,0,1-.33,1.21L81,128l-3.53-8.78a1.33,1.33,0,0,1-.12-.5c0-.49.52-.76,2-.79h.06v-.51H73.75v.51h.07c1.2,0,1.38.26,1.89,1.52l4.34,10.82h1.09l4.12-10.67c.48-1.22,1-1.67,2-1.67h.07v-.51H82.57v.45Z" transform="translate(-18.46 -73.81)"/><path class="cls-3" d="M98.82,126.84v0c-.51,1.71-.88,2.2-2.25,2.21H93.49c-.74,0-1-.14-1-1v-4.18h3.31c.8,0,1.12.11,1.29,1.52v.06h.5v-3.92h-.5v.06C97,122.74,96.67,123,96,123H92.47v-4.78h4.15c.68,0,1.14.31,1.41,2v0h.48l-.17-2.9H88.66v.51h.5c1.32,0,1.51.42,1.53,1.53v8.42c0,1.18-.22,1.55-1.81,1.57h-.62v.5H99l.34-3.09h-.48Z" transform="translate(-18.46 -73.81)"/><path class="cls-3" d="M118.43,119.52c0-1.07.87-1.81,2.16-1.81a3.47,3.47,0,0,1,3.16,2.31v0h.45l-.35-2.66h-.4l0,0c-.12.15-.16.17-.31.18-.66,0-1-.5-2.71-.5-2.06,0-3.61,1.25-3.62,3,0,3.56,6.45,4.45,6.4,7.24a2.44,2.44,0,0,1-2.68,2.29,3.39,3.39,0,0,1-3.31-2.77v0h-.5l.43,3.15h.43l0,0a.42.42,0,0,1,.34-.19,15.36,15.36,0,0,0,2.77.54c2.36,0,4.13-1.48,4.13-3.47,0-3.74-6.44-4.51-6.39-7.26Z" transform="translate(-18.46 -73.81)"/><path class="cls-3" d="M128.31,117.85v.06h.06c1.11.07,1.42.31,1.44,1.37v8.5c0,1.33-.22,1.57-1.44,1.65h-.06v.5h5v-.5h-.06c-1.37,0-1.62-.35-1.63-1.51v-8.46c0-1.32.38-1.53,1.63-1.55h.06v-.51h-5v.45Z" transform="translate(-18.46 -73.81)"/><path class="cls-3" d="M147.39,117.11h-.06v0c0,.18-.27.25-.55.24h-9.59a1.13,1.13,0,0,1-.38-.05.25.25,0,0,1-.18-.19v0h-.49l-.33,3.35h.48v0c.31-1.76.64-2.16,1.4-2.16h3.4V128c0,1.07-.3,1.38-1.51,1.4h-.8v.5h6.41v-.5h-.8c-1.21,0-1.5-.33-1.52-1.4v-9.78h3.41c.76,0,1.08.4,1.39,2.16v0h.48l-.33-3.35Z" transform="translate(-18.46 -73.81)"/><path class="cls-3" d="M158.33,117.41v.5h.07c.87,0,1.25.16,1.25.54a1.73,1.73,0,0,1-.29.8L156.6,124l-3.14-4.84a1.7,1.7,0,0,1-.33-.75c0-.29.33-.45,1.34-.45h.06v-.51H149.1v.51h.06c1.29,0,1.7.29,2.68,1.83l3.54,5.52v2.79c0,1-.31,1.36-1.53,1.38h-.44v.5H159v-.5h-.32c-1.2,0-1.52-.37-1.53-1.42v-3l3.3-5.57a2.72,2.72,0,0,1,2.45-1.54H163v-.5Z" transform="translate(-18.46 -73.81)"/><path class="cls-3" d="M110.13,121c0,2.36-1.4,3.25-3.59,3.26H106a5.56,5.56,0,0,1-.67,0v-6.39a7.08,7.08,0,0,1,.93,0c3,0,3.82,1.39,3.83,3.21Zm2.83,7.17s-2.53-3.23-2.93-3.74l-.29-.32a3.35,3.35,0,0,0,2.38-3.22c0-2.07-1.69-3.6-5.38-3.6-1.29,0-1.69,0-2.5.06s-2,.12-2.5.12h-.07v.5h.5c1.14,0,1.41.3,1.43,1.53v8.35c0,1.32-.36,1.57-1.52,1.59h-.41v.5h5.75v-.5h-.52c-1.1,0-1.51-.26-1.53-1.43v-3.29c.29,0,.56,0,1,0a8.48,8.48,0,0,0,1.49-.12v0h0c.19,0,.91,1,1.65,1.93l1.17,1.44c1.58,1.8,2,2.15,4.75,2.14h.14v-.47h0a3.42,3.42,0,0,1-2.54-1.5Z" transform="translate(-18.46 -73.81)"/></svg>