<?xml version="1.0" encoding="UTF-8"?>
<svg id="Layer_1" data-name="Layer 1" xmlns="http://www.w3.org/2000/svg" viewBox="0 0 801.3 86.16">
  <defs>
    <style>
      .footer-logo-text-title, .footer-logo-polygon {
        fill: #e3173e;
      }

      .footer-logo-text-title, .footer-logo-text-3, .footer-logo-text-4 {
        font-family: MarlinGeo-Bold, 'Marlin Geo';
        font-weight: 700;
      }

      .footer-logo-text-title, .footer-logo-text-4 {
        font-size: 17px;
      }

      .footer-logo-text-5 {
        fill: #fff;
      }

      .footer-logo-text-3, .footer-logo-text-6 {
        font-size: 16px;
      }

      .footer-logo-text-6 {
        font-family: MarlinGeo-SemiLight, 'Marlin Geo';
        font-weight: 300;
      }

      .footer-logo-text-7 {
        letter-spacing: 0em;
      }

      .footer-logo-text-8 {
        letter-spacing: -.02em;
      }
    </style>
  </defs>
  <polygon class="footer-logo-polygon" points="157.51 84.19 0 84.19 0 13.62 157.51 13.62 157.51 84.19 157.51 84.19"/>
  <path class="footer-logo-text-5" d="M153.84,80.53H3.66V17.29H153.84v63.24ZM2.59,16.22V81.61H154.92V16.22H2.59Z"/>
  <path class="footer-logo-text-5" d="M27.76,40.82c0,2.34-1.12,4.76-5.07,4.76-2.52,0-3.36-.77-3.38-3v-6.38h3.23c3.5,0,5.24,2.35,5.25,4.64l-.03-.02Zm-5.22-5.32h-3.23v-7.33c.76,0,1.95-.09,2.6-.09,3.68,0,4.9,1.9,4.91,4,0,2.32-1.4,3.43-4.28,3.44v-.02Zm3.76,.19c1.85-.3,3.25-1.84,3.36-3.72,.02-1.39-.69-2.68-1.87-3.4-1.11-.8-3.43-1.19-6.1-1.19-.57,0-2.86,0-4.52,.09-.88,0-3,.15-3.8,.18h-.06v.69h1.11c2.09,0,2.25,.84,2.26,2.56v12.53c0,1.88-.42,2.39-2.89,2.41h-.76v.69h11.11c4.89,0,6.57-3.38,6.58-5.79s-1.64-4.2-4.42-5.06h0Z"/>
  <path class="footer-logo-text-5" d="M45.01,28.08c4.94,0,8.47,3.92,8.47,9.5,0,4.27-2.33,8.56-7.2,8.57s-8.63-4-8.63-9.56c0-3.61,2.1-8.5,7.36-8.51Zm.78-.88c-6.45,0-11.09,4.28-11.1,10.32,0,5.68,5,9.5,10.95,9.51s10.79-4.31,10.81-10.44c0-5.48-4.93-9.38-10.66-9.39Z"/>
  <path class="footer-logo-text-5" d="M61.66,46.54h0c.12-.19,.33-.3,.55-.31,1.37,.4,2.78,.67,4.2,.82,3.55,0,6.21-2.23,6.21-5.22,0-5.62-9.72-6.79-9.68-11,0-1.65,1.35-2.77,3.32-2.77,2.17,.07,4.08,1.47,4.8,3.52h.63l-.53-4h-.57c-.18,.23-.26,.27-.49,.28-1,0-1.56-.76-4.1-.76-3.11,0-5.44,1.89-5.44,4.44,0,5.35,9.73,6.69,9.69,11,0,2.34-2.1,3.49-4.1,3.5-2.45-.04-4.54-1.8-5-4.21h-.7l.65,4.71h.56Z"/>
  <path class="footer-logo-text-5" d="M76.44,32.21h0c.46-2.66,1-3.29,2.14-3.3h5.19v14.85c0,1.61-.49,2.12-2.32,2.14h-1.18v.69h9.63v-.77h-1.18c-1.83,0-2.3-.53-2.32-2.14v-14.86h5.19c1.16,0,1.68,.63,2.14,3.29h.66l-.49-5h-.69v.05c0,.31-.45,.41-.87,.4h-14.51c-.2,0-.39-.03-.58-.08-.15-.04-.27-.16-.29-.32v-.05h-.68l-.5,5h.67v.1Z"/>
  <path class="footer-logo-text-5" d="M108.11,46.15c-4.82,0-8.62-4-8.62-9.56,0-3.61,2.1-8.5,7.36-8.51,4.94,0,8.47,3.92,8.47,9.5,0,4.27-2.33,8.56-7.21,8.57Zm-.48-19c-6.45,0-11.09,4.28-11.1,10.32,0,5.68,5,9.5,11,9.51,6,.01,10.79-4.31,10.8-10.44,0-5.48-4.92-9.38-10.65-9.39h-.05Z"/>
  <path class="footer-logo-text-5" d="M128.39,45.9v-.09h-.06c-2.57,0-3-.4-3-2.57v-12.75l15.54,16.26h.87V29.82c0-1.15,.42-1.49,2.69-1.51h.11v-.7h-7.19v.7h.06c2.42,.08,2.88,.35,2.9,2.17v11.85l-14.16-14.68h-4.83v.7h.06c.88-.01,1.75,.24,2.48,.73v14.81c0,1.36-.55,1.94-2.41,2h-.19v.69h7.13v-.67Z"/>
  <path class="footer-logo-text-5" d="M23.64,57.22v.51h.06c1.64,.1,1.87,.36,1.89,2.27v4.65c0,3.35-2.24,4.25-4.48,4.26-3,0-4.48-1.58-4.49-4.25v-5.54c0-1.13,.43-1.37,1.52-1.39h.24v-.51h-5.25v.51h.06c1.36,0,1.63,.17,1.65,1.43v5.82c0,2.89,2,5.08,5.83,5.09,4.35,0,6-2.69,6-5.19v-5.38c0-1.26,.44-1.74,1.75-1.77h.07v-.51h-4.85Z"/>
  <path class="footer-logo-text-5" d="M40.97,57.67v.06h.06c1.6,.06,1.88,.22,1.9,1.41v7.78l-9.3-9.69h-3.22v.5h.06c.57,0,1.13,.16,1.61,.47v9.77c0,.9-.35,1.26-1.57,1.28h-.14v.5h4.75v-.5h-.07c-1.69,0-1.93-.25-1.95-1.67v-8.4l10.24,10.71h.61v-11.19c0-.74,.25-.95,1.75-1h.06v-.51h-4.79v.48Z"/>
  <path class="footer-logo-text-5" d="M48.48,57.67v.06h.06c1.11,.07,1.42,.31,1.44,1.37v8.5c0,1.33-.21,1.57-1.43,1.65h-.06v.5h5v-.5h-.06c-1.37,0-1.62-.35-1.63-1.51v-8.46c0-1.32,.38-1.53,1.63-1.55h.06v-.51h-5v.45h-.01Z"/>
  <path class="footer-logo-text-5" d="M64.11,57.67v.06h.06c1.36,0,1.79,.23,1.79,.78-.05,.42-.16,.83-.33,1.21l-3.09,8.1-3.53-8.78c-.07-.16-.11-.33-.12-.5,0-.49,.52-.76,2-.79h.06v-.51h-5.66v.51h.07c1.2,0,1.38,.26,1.89,1.52l4.34,10.82h1.09l4.12-10.67c.48-1.22,1-1.67,2-1.67h.07v-.51h-4.76v.43Z"/>
  <path class="footer-logo-text-5" d="M80.36,66.65h0c-.51,1.71-.88,2.2-2.25,2.21h-3.08c-.74,0-1-.14-1-1v-4.18h3.31c.8,0,1.12,.11,1.29,1.52v.06h.5v-3.92h-.5v.06c-.09,1.15-.42,1.41-1.09,1.41h-3.53v-4.78h4.15c.68,0,1.14,.31,1.41,2h.48l-.17-2.9h-9.68v.51h.5c1.32,0,1.51,.42,1.53,1.53v8.42c0,1.18-.22,1.55-1.81,1.57h-.62v.5h10.74l.34-3.09h-.48l-.04,.08Z"/>
  <path class="footer-logo-text-5" d="M99.97,59.33c0-1.07,.87-1.81,2.16-1.81,1.43,.05,2.68,.96,3.16,2.31h.45l-.35-2.66h-.4c-.12,.15-.16,.17-.31,.18-.66,0-1-.5-2.71-.5-2.06,0-3.61,1.25-3.62,3,0,3.56,6.45,4.45,6.4,7.24-.08,1.35-1.23,2.37-2.57,2.3-.04,0-.07,0-.11,0-1.62-.01-3.01-1.17-3.31-2.77h-.5l.43,3.15h.43c.08-.12,.2-.19,.34-.19,.9,.26,1.83,.45,2.77,.54,2.36,0,4.13-1.48,4.13-3.47,0-3.74-6.44-4.51-6.39-7.26v-.05Z"/>
  <path class="footer-logo-text-5" d="M109.85,57.67v.06h.06c1.11,.07,1.42,.31,1.44,1.37v8.5c0,1.33-.22,1.57-1.44,1.65h-.06v.5h5v-.5h-.06c-1.37,0-1.62-.35-1.63-1.51v-8.46c0-1.32,.38-1.53,1.63-1.55h.06v-.51h-5v.45h0Z"/>
  <path class="footer-logo-text-5" d="M128.93,56.93h-.06c0,.18-.27,.25-.55,.24h-9.59c-.13,0-.26-.01-.38-.05-.09-.02-.16-.1-.18-.19h-.49l-.33,3.35h.48c.31-1.76,.64-2.16,1.4-2.16h3.4v9.7c0,1.07-.3,1.38-1.51,1.4h-.8v.5h6.41v-.5h-.8c-1.21,0-1.5-.33-1.52-1.4v-9.78h3.41c.76,0,1.08,.4,1.39,2.16h.48l-.33-3.35-.43,.08Z"/>
  <path class="footer-logo-text-5" d="M139.87,57.23v.5h.07c.87,0,1.25,.16,1.25,.54-.03,.29-.13,.56-.29,.8l-2.76,4.75-3.14-4.84c-.17-.22-.28-.48-.33-.75,0-.29,.33-.45,1.34-.45h.06v-.51h-5.43v.51h.06c1.29,0,1.7,.29,2.68,1.83l3.54,5.52v2.79c0,1-.31,1.36-1.53,1.38h-.44v.5h5.59v-.5h-.32c-1.2,0-1.52-.37-1.53-1.42v-3l3.3-5.57c.45-.94,1.41-1.54,2.45-1.54h.1v-.5l-4.67-.04Z"/>
  <path class="footer-logo-text-5" d="M91.67,60.82c0,2.36-1.4,3.25-3.59,3.26h-.54c-.22,.01-.45,.01-.67,0v-6.39c.31-.02,.62-.02,.93,0,3,0,3.82,1.39,3.83,3.21l.04-.08Zm2.83,7.17s-2.53-3.23-2.93-3.74l-.29-.32c1.42-.43,2.39-1.74,2.38-3.22,0-2.07-1.69-3.6-5.38-3.6-1.29,0-1.69,0-2.5,.06s-2,.12-2.5,.12h-.07v.5h.5c1.14,0,1.41,.3,1.43,1.53v8.35c0,1.32-.36,1.57-1.52,1.59h-.41v.5h5.75v-.5h-.52c-1.1,0-1.51-.26-1.53-1.43v-3.29h1c.5,0,1-.04,1.49-.12h0c.19,0,.91,1,1.65,1.93l1.17,1.44c1.58,1.8,2,2.15,4.75,2.14h.14v-.47h0c-1.03-.09-1.96-.64-2.54-1.5l-.07,.03Z"/>
  <text class="footer-logo-text-4" transform="translate(189.8 33.87)"><tspan x="0" y="0">Boston University</tspan></text>
  <text class="footer-logo-text-6" transform="translate(337.46 33.98)"><tspan x="0" y="0">Center for Emerging Infectious Diseases Policy & Research</tspan></text>
  <text class="footer-logo-text-4" transform="translate(190.86 57.48)"><tspan x="0" y="0">The Robert </tspan><tspan class="footer-logo-text-8" x="95.25" y="0">W</tspan><tspan x="111.6" y="0">ood Johnson </tspan><tspan class="footer-logo-text-7" x="221.28" y="0">F</tspan><tspan x="230.51" y="0">oundation</tspan></text>
  <text class="footer-logo-text-3" transform="translate(190.86 80.38)"><tspan x="0" y="0">W.K. </tspan><tspan class="footer-logo-text-8" x="39.12" y="0">K</tspan><tspan x="49.77" y="0">ellog </tspan><tspan class="footer-logo-text-7" x="91.09" y="0">F</tspan><tspan x="99.78" y="0">oundation</tspan></text>
  <text class="footer-logo-text-title" transform="translate(189.8 12.2)"><tspan x="0" y="0">Our Sponsors:</tspan></text>
</svg>