<svg xmlns="http://www.w3.org/2000/svg" id="a" data-name="Layer 1" viewBox="0 27.15 1455.35 206.16">
  <defs>
    <style>
      .b, .c, .d, .e, .f, .g {
        font-family: Whitney-Bold, Whitney;
        font-weight: 700;
      }

      .b, .h {
        letter-spacing: 0em;
      }

      .i, .c {
        letter-spacing: 0em;
      }

      .j {
        letter-spacing: 0em;
      }

      .k {
        fill: #fff;
      }

      .l {
        letter-spacing: 0em;
      }

      .l, .m, .h, .n, .o, .p {
        font-family: Whitney-Book, 'Whitney Book';
      }

      .q {
        fill: #e3173e;
      }

      .r {
        letter-spacing: 0em;
      }

      .s {
        letter-spacing: -.02em;
      }

      .d {
        letter-spacing: 0em;
      }

      .t {
        font-size: 43.38px;
      }

      .m {
        letter-spacing: -.02em;
      }

      .f, .o {
        letter-spacing: 0em;
      }

      .g {
        letter-spacing: -.02em;
      }

      .u {
        letter-spacing: -.03em;
      }

      .v {
        letter-spacing: 0em;
      }

      .w {
        letter-spacing: -.03em;
      }

      .x {
        letter-spacing: -.07em;
      }

      .y {
        letter-spacing: -.06em;
      }

      .z {
        letter-spacing: -.03em;
      }

      .p {
        letter-spacing: 0em;
      }
    </style>
  </defs>
  <text/>
  <text class="t" transform="translate(394.47 68.35)"><tspan class="e"><tspan x="0" y="0">Our Sponso</tspan><tspan class="r" x="217.31" y="0">r</tspan><tspan class="i" x="233.45" y="0">s:</tspan></tspan><tspan class="e" x="0" y="52.05">Bo</tspan><tspan class="f" x="48.36" y="52.05">st</tspan><tspan class="c" x="83.89" y="52.05">on Uni</tspan><tspan class="g" x="203.61" y="52.05">v</tspan><tspan class="e" x="224.9" y="52.05">e</tspan><tspan class="d" x="246.81" y="52.05">r</tspan><tspan class="e" x="262.95" y="52.05">si</tspan><tspan class="b" x="294.44" y="52.05">t</tspan><tspan class="e" x="309.79" y="52.05">y</tspan><tspan class="n" x="331.91" y="52.05"> </tspan><tspan class="m" x="341.72" y="52.05">C</tspan><tspan class="n" x="369.04" y="52.05">en</tspan><tspan class="o" x="413.03" y="52.05">t</tspan><tspan class="n" x="427.17" y="52.05">er </tspan><tspan class="h" x="473.19" y="52.05">f</tspan><tspan class="n" x="485.73" y="52.05">or Eme</tspan><tspan class="p" x="611.82" y="52.05">r</tspan><tspan class="l" x="626.44" y="52.05">ging In</tspan><tspan class="h" x="746.89" y="52.05">f</tspan><tspan class="n" x="759.43" y="52.05">ectious Diseases</tspan><tspan class="e"><tspan class="s" x="0" y="104.1">T</tspan><tspan x="25.64" y="104.1">he </tspan><tspan class="s" x="79.9" y="104.1">R</tspan><tspan class="i" x="105.79" y="104.1">obe</tspan><tspan class="j" x="174.02" y="104.1">r</tspan><tspan class="v" x="190.77" y="104.1">t </tspan><tspan class="y" x="215.58" y="104.1">W</tspan><tspan class="i" x="255.92" y="104.1">ood Johnson </tspan><tspan class="z" x="497.52" y="104.1">F</tspan><tspan x="517.91" y="104.1">oundation</tspan></tspan><tspan class="e"><tspan class="x" x="0" y="156.16">W</tspan><tspan x="39.99" y="156.16">.K. </tspan><tspan class="u" x="99.64" y="156.16">K</tspan><tspan x="126.66" y="156.16">ellog </tspan><tspan class="w" x="226.38" y="156.16">F</tspan><tspan x="246.77" y="156.16">oundation</tspan></tspan></text>
  <polygon class="q" points="338.25 190.97 .02 191.01 0 39.46 338.24 39.43 338.25 190.97 338.25 190.97"/>
  <path class="k" d="M330.37,183.09l-322.5,.03V47.32s322.48-.03,322.48-.03V183.09ZM5.56,45.03V185.44s327.13-.03,327.13-.03V44.99s-327.13,.03-327.13,.03Z"/>
  <path class="k" d="M59.62,97.85c0,5.02-2.4,10.22-10.89,10.22-5.41,0-7.22-1.65-7.26-6.44v-13.7s6.93,0,6.93,0c7.52,0,11.25,5.05,11.27,9.96l-.06-.04Zm-11.21-11.42h-6.94s0-15.74,0-15.74c1.63,0,4.19-.19,5.58-.19,7.9,0,10.52,4.08,10.54,8.59,0,4.98-3.01,7.37-9.19,7.39v-.04Zm8.07,.41c3.98-.64,6.98-3.96,7.21-7.99,.05-2.97-1.48-5.75-4.02-7.3-2.38-1.72-7.37-2.55-13.1-2.55-1.22,0-6.14,0-9.71,.19-1.89,0-6.44,.32-8.16,.39h-.13s0,1.48,0,1.48h2.38c4.49,0,4.83,1.8,4.85,5.5v26.91c0,4.04-.9,5.13-6.2,5.18h-1.63s0,1.48,0,1.48h23.86c10.5,0,14.11-7.26,14.13-12.44s-3.52-9.02-9.49-10.86v.02Z"/>
  <path class="k" d="M96.66,70.48c10.61,0,18.19,8.42,18.19,20.4,0,9.17-5,18.38-15.46,18.4-10.46,.02-18.53-8.59-18.53-20.53,0-7.75,4.51-18.25,15.8-18.28Zm1.67-1.89c-13.85,0-23.81,9.19-23.83,22.16,0,12.2,10.74,20.4,23.52,20.42,12.78,.02,23.17-9.26,23.21-22.42,0-11.77-10.59-20.14-22.89-20.16Z"/>
  <path class="k" d="M132.42,110.12h0c.26-.41,.7-.65,1.18-.67,2.95,.86,5.97,1.45,9.02,1.76,7.62,0,13.33-4.79,13.33-11.21,0-12.07-20.87-14.58-20.79-23.62,0-3.54,2.9-5.95,7.13-5.95,4.66,.16,8.75,3.16,10.31,7.56h1.35s-1.14-8.59-1.14-8.59h-1.22c-.39,.49-.56,.58-1.05,.6-2.15,0-3.35-1.63-8.8-1.63-6.68,0-11.68,4.06-11.68,9.54,0,11.49,20.9,14.36,20.81,23.62,0,5.02-4.51,7.49-8.8,7.52-5.27-.08-9.76-3.86-10.74-9.04h-1.5s1.4,10.11,1.4,10.11h1.2Z"/>
  <path class="k" d="M164.15,79.35h0c.99-5.71,2.15-7.07,4.59-7.09h11.15s0,31.89,0,31.89c0,3.46-1.05,4.55-4.98,4.6h-2.53s0,1.48,0,1.48h20.68s0-1.66,0-1.66h-2.53c-3.93,0-4.94-1.14-4.98-4.59v-31.91s11.14,0,11.14,0c2.49,0,3.61,1.35,4.6,7.06h1.42s-1.05-10.74-1.05-10.74h-1.48s0,.11,0,.11c0,.67-.97,.88-1.87,.86h-31.16c-.42,0-.84-.05-1.25-.17-.33-.08-.58-.35-.62-.69v-.11s-1.46,0-1.46,0l-1.07,10.74h1.44s-.02,.21-.02,.21Z"/>
  <path class="k" d="M232.16,109.27c-10.35,0-18.51-8.59-18.51-20.53,0-7.75,4.51-18.25,15.8-18.28,10.61,0,18.19,8.42,18.19,20.4,0,9.17-5,18.38-15.48,18.4Zm-1.03-40.8c-13.85,0-23.81,9.19-23.83,22.16,0,12.2,10.74,20.4,23.62,20.42,12.88,.02,23.17-9.26,23.19-22.42,0-11.77-10.57-20.14-22.87-20.16h-.11Z"/>
  <path class="k" d="M275.71,108.75v-.19s-.13,0-.13,0c-5.52,0-6.44-.86-6.44-5.52v-27.38s33.37,34.91,33.37,34.91h1.87s0-36.38,0-36.38c0-2.47,.9-3.2,5.78-3.24h.24s0-1.5,0-1.5h-15.44s0,1.5,0,1.5h.13c5.2,.17,6.18,.75,6.23,4.66v25.45s-30.41-31.52-30.41-31.52h-10.37s0,1.5,0,1.5h.13c1.89-.03,3.75,.51,5.33,1.57v31.8c0,2.92-1.18,4.17-5.17,4.3h-.41s0,1.48,0,1.48h15.31s0-1.35,0-1.35v-.09Z"/>
  <path class="k" d="M50.77,133.06v1.1s.13,0,.13,0c3.52,.21,4.02,.77,4.06,4.87v9.99c0,7.19-4.81,9.13-9.62,9.15-6.44,0-9.62-3.39-9.64-9.13v-11.9c0-2.43,.92-2.94,3.26-2.99h.52s0-1.1,0-1.1h-11.27s0,1.1,0,1.1h.13c2.92,0,3.5,.36,3.54,3.07v12.5c0,6.21,4.3,10.91,12.52,10.93,9.34,0,12.88-5.78,12.88-11.15v-11.55c0-2.71,.94-3.74,3.76-3.8h.15s0-1.1,0-1.1h-10.41Z"/>
  <path class="k" d="M87.99,134.03v.13s.13,0,.13,0c3.44,.13,4.04,.47,4.08,3.03v16.71s-19.97-20.81-19.97-20.81h-6.91s0,1.07,0,1.07h.13c1.23-.02,2.43,.34,3.46,1.01v20.98c0,1.93-.75,2.71-3.37,2.75h-.3s0,1.07,0,1.07h10.2s0-1.07,0-1.07h-.15c-3.63,0-4.14-.54-4.19-3.59v-18.04s21.99,23,21.99,23h1.31s0-24.03,0-24.03c0-1.59,.54-2.04,3.76-2.15h.13s0-1.1,0-1.1h-10.29s0,.97,0,.97v.06Z"/>
  <path class="k" d="M104.12,134.03v.13s.13,0,.13,0c2.38,.15,3.05,.67,3.09,2.94v18.25c0,2.86-.45,3.37-3.07,3.54h-.13s0,1.07,0,1.07h10.74s0-1.07,0-1.07h-.13c-2.94,0-3.48-.75-3.5-3.24v-18.17c0-2.83,.81-3.29,3.5-3.33h.13s0-1.1,0-1.1h-10.74s0,.97,0,.97h-.02Z"/>
  <path class="k" d="M137.68,134.02v.13s.13,0,.13,0c2.92,0,3.84,.49,3.84,1.67-.1,.9-.34,1.77-.71,2.6l-6.63,17.39-7.58-18.85c-.15-.34-.24-.7-.26-1.07,0-1.05,1.12-1.63,4.29-1.7h.13s0-1.1,0-1.1h-12.15s0,1.1,0,1.1h.15c2.58,0,2.96,.56,4.06,3.26l9.32,23.23h2.34s8.84-22.91,8.84-22.91c1.03-2.62,2.15-3.59,4.29-3.59h.15s0-1.1,0-1.1h-10.22s0,.97,0,.97v-.04Z"/>
  <path class="k" d="M172.58,153.32h0c-1.09,3.67-1.89,4.72-4.83,4.75h-6.61c-1.59,0-2.15-.3-2.15-2.15v-8.98s7.11,0,7.11,0c1.72,0,2.41,.24,2.77,3.26v.13s1.07,0,1.07,0v-8.42s-1.07,0-1.07,0v.13c-.19,2.47-.9,3.03-2.34,3.03h-7.58s0-10.26,0-10.26h8.91c1.46,0,2.45,.66,3.03,4.29h1.03s-.37-6.23-.37-6.23h-20.79s0,1.1,0,1.1h1.07c2.83,0,3.24,.9,3.29,3.29v18.08c0,2.53-.47,3.33-3.88,3.37h-1.33s0,1.07,0,1.07h23.06s.73-6.64,.73-6.64h-1.03s-.09,.17-.09,.17Z"/>
  <path class="k" d="M214.69,137.6c0-2.3,1.87-3.89,4.64-3.89,3.07,.1,5.76,2.07,6.79,4.96h.97s-.75-5.71-.75-5.71h-.86c-.26,.32-.34,.37-.67,.39-1.42,0-2.15-1.07-5.82-1.07-4.42,0-7.75,2.69-7.77,6.44,0,7.64,13.85,9.55,13.74,15.55-.16,2.89-2.64,5.1-5.53,4.94-.08,0-.15-.01-.23-.02-3.49-.02-6.47-2.52-7.11-5.95h-1.07s.92,6.76,.92,6.76h.92c.16-.25,.43-.4,.73-.41,1.94,.57,3.93,.96,5.95,1.16,5.07,0,8.87-3.18,8.87-7.45,0-8.03-13.83-9.68-13.72-15.59v-.11Z"/>
  <path class="k" d="M235.9,134.01v.13s.13,0,.13,0c2.38,.15,3.05,.67,3.09,2.94v18.25c0,2.86-.47,3.37-3.09,3.54h-.13s0,1.07,0,1.07h10.74s0-1.07,0-1.07h-.13c-2.94,0-3.48-.75-3.5-3.24v-18.17c0-2.83,.81-3.29,3.5-3.33h.13s0-1.1,0-1.1h-10.74s0,.97,0,.97h0Z"/>
  <path class="k" d="M276.87,132.42h-.13c0,.39-.58,.54-1.18,.52h-20.59c-.28,.01-.55-.02-.82-.11-.2-.05-.34-.21-.39-.41h-1.05s-.71,7.19-.71,7.19h1.03c.67-3.78,1.37-4.64,3.01-4.64h7.3s0,20.83,0,20.83c0,2.3-.64,2.96-3.24,3.01h-1.72s0,1.07,0,1.07h13.76s0-1.08,0-1.08h-1.72c-2.6,0-3.22-.71-3.26-3.01v-21s7.32,0,7.32,0c1.63,0,2.32,.86,2.99,4.64h1.03s-.71-7.19-.71-7.19l-.92,.17Z"/>
  <path class="k" d="M300.37,133.06v1.07s.15,0,.15,0c1.87,0,2.68,.34,2.68,1.16-.06,.62-.28,1.21-.62,1.72l-5.93,10.2-6.74-10.39c-.36-.47-.61-1.02-.71-1.61,0-.62,.71-.97,2.88-.97h.13s0-1.1,0-1.1h-11.66s0,1.1,0,1.1h.13c2.77,0,3.65,.62,5.76,3.93l7.6,11.85v5.99c0,2.15-.66,2.92-3.28,2.96h-.94s0,1.07,0,1.07h12s0-1.07,0-1.07h-.69c-2.58,0-3.26-.79-3.29-3.05v-6.44s7.08-11.96,7.08-11.96c.97-2.02,3.02-3.31,5.26-3.31h.21s0-1.07,0-1.07l-10.03-.08Z"/>
  <path class="k" d="M196.86,140.78c0,5.07-3.01,6.98-7.71,7h-1.16c-.48,.03-.96,.03-1.44,0v-13.72c.66-.04,1.33-.04,2,0,6.44,0,8.2,2.98,8.23,6.89l.09-.17Zm6.08,15.4s-5.43-6.94-6.29-8.03l-.62-.69c3.05-.92,5.12-3.73,5.11-6.92,0-4.45-3.63-7.73-11.55-7.73-2.77,0-3.63,0-5.37,.13s-4.29,.26-5.37,.26h-.15s0,1.07,0,1.07h1.07c2.45,0,3.03,.64,3.07,3.29v17.93c0,2.83-.77,3.37-3.26,3.41h-.88s0,1.07,0,1.07h12.35s0-1.07,0-1.07h-1.12c-2.36,0-3.24-.56-3.29-3.07v-7.06c.62,0,1.2,0,2.15,0,1.07,0,2.14-.08,3.2-.26h0c.41,0,1.95,2.15,3.54,4.14l2.51,3.09c3.39,3.86,4.3,4.62,10.2,4.59h.3s0-1.01,0-1.01h0c-2.21-.19-4.22-1.38-5.45-3.22l-.15,.06Z"/>
</svg>