<?xml version="1.0" encoding="utf-8"?>
<svg id="a" data-name="Layer 1" viewBox="0 0 905.46 100" xmlns="http://www.w3.org/2000/svg">
  <defs>
    <style>
      .footer-logo-text-1, .footer-logo-text-2 {
        fill: #e3173e;
      }

      .footer-logo-text-1, .footer-logo-text-3 {
        font-family: MarlinGeo-Bold, 'Marlin Geo';
        font-size: 17px;
        font-weight: 700;
      }

      .footer-logo-text-4 {
        fill: #fff;
      }
    </style>
  </defs>
  <polygon class="footer-logo-text-2" points="179.61 90.677 0 90.677 0 9.157 179.61 9.157 179.61 90.677 179.61 90.677"/>
  <path class="footer-logo-text-4" d="M 175.43 86.437 L 4.17 86.437 L 4.17 13.387 L 175.43 13.387 L 175.43 86.437 Z M 2.95 12.147 L 2.95 87.687 L 176.66 87.687 L 176.66 12.147 L 2.95 12.147 Z"/>
  <path class="footer-logo-text-4" d="M 31.66 40.567 C 31.66 43.267 30.38 46.067 25.88 46.067 C 23.01 46.067 22.05 45.177 22.03 42.597 L 22.03 35.227 L 25.71 35.227 C 29.7 35.227 31.69 37.937 31.7 40.587 L 31.67 40.567 L 31.66 40.567 Z M 25.71 34.417 L 22.03 34.417 L 22.03 25.947 C 22.9 25.947 24.25 25.847 24.99 25.847 C 29.19 25.847 30.58 28.037 30.59 30.467 C 30.59 33.147 28.99 34.427 25.71 34.437 L 25.71 34.417 Z M 30 34.637 C 32.11 34.297 33.71 32.507 33.83 30.337 C 33.86 28.737 33.05 27.247 31.7 26.407 C 30.43 25.487 27.79 25.037 24.74 25.037 C 24.09 25.037 21.48 25.037 19.59 25.137 C 18.59 25.137 16.17 25.307 15.26 25.347 L 15.19 25.347 L 15.19 26.147 L 16.46 26.147 C 18.84 26.147 19.03 27.117 19.04 29.107 L 19.04 43.577 C 19.04 45.747 18.56 46.337 15.74 46.357 L 14.87 46.357 L 14.87 47.157 L 27.54 47.157 C 33.12 47.157 35.03 43.257 35.04 40.467 C 35.05 37.677 33.17 35.617 30 34.617 L 30 34.637 Z"/>
  <path class="footer-logo-text-4" d="M 51.33 25.847 C 56.96 25.847 60.99 30.377 60.99 36.817 C 60.99 41.747 58.33 46.707 52.78 46.717 C 47.23 46.727 42.94 42.097 42.94 35.677 C 42.94 31.507 45.33 25.857 51.33 25.847 Z M 52.22 24.827 C 44.86 24.827 39.57 29.767 39.56 36.747 C 39.56 43.307 45.26 47.717 52.05 47.737 C 58.83 47.747 64.35 42.757 64.38 35.677 C 64.38 29.347 58.76 24.837 52.22 24.827 Z"/>
  <path class="footer-logo-text-4" d="M 70.31 47.177 C 70.45 46.957 70.68 46.827 70.94 46.817 C 72.51 47.277 74.11 47.597 75.73 47.767 C 79.78 47.767 82.81 45.187 82.81 41.737 C 82.81 35.247 71.73 33.897 71.77 29.027 C 71.77 27.117 73.31 25.827 75.56 25.827 C 78.04 25.917 80.21 27.527 81.03 29.897 L 81.75 29.897 L 81.15 25.277 L 80.5 25.277 C 80.29 25.547 80.2 25.587 79.94 25.597 C 78.8 25.597 78.16 24.717 75.26 24.717 C 71.71 24.717 69.06 26.897 69.06 29.847 C 69.06 36.027 80.16 37.577 80.11 42.557 C 80.11 45.257 77.72 46.587 75.43 46.597 C 72.63 46.557 70.25 44.517 69.73 41.737 L 68.93 41.737 L 69.67 47.177 L 70.31 47.177 Z"/>
  <path class="footer-logo-text-4" d="M 87.17 30.617 C 87.69 27.547 88.31 26.817 89.61 26.807 L 95.53 26.807 L 95.53 43.957 C 95.53 45.817 94.97 46.407 92.88 46.427 L 91.53 46.427 L 91.53 47.227 L 102.51 47.227 L 102.51 46.337 L 101.16 46.337 C 99.07 46.337 98.54 45.727 98.51 43.867 L 98.51 26.697 L 104.43 26.697 C 105.75 26.697 106.35 27.427 106.87 30.497 L 107.62 30.497 L 107.06 24.717 L 106.27 24.717 L 106.27 24.777 C 106.27 25.137 105.76 25.247 105.28 25.237 L 88.73 25.237 C 88.51 25.237 88.28 25.207 88.07 25.147 C 87.89 25.107 87.76 24.957 87.74 24.777 L 87.74 24.717 L 86.96 24.717 L 86.39 30.497 L 87.15 30.497 L 87.15 30.617 L 87.17 30.617 Z"/>
  <path class="footer-logo-text-4" d="M 123.28 46.717 C 117.78 46.717 113.45 42.097 113.45 35.677 C 113.45 31.507 115.84 25.857 121.84 25.847 C 127.47 25.847 131.5 30.377 131.5 36.817 C 131.5 41.747 128.84 46.707 123.28 46.717 Z M 122.73 24.767 C 115.37 24.767 110.08 29.707 110.07 36.687 C 110.07 43.247 115.77 47.657 122.61 47.677 C 129.45 47.687 134.91 42.697 134.93 35.617 C 134.93 29.287 129.32 24.777 122.79 24.767 L 122.73 24.767 Z"/>
  <path class="footer-logo-text-4" d="M 146.41 46.447 L 146.41 46.347 L 146.34 46.347 C 143.41 46.347 142.92 45.887 142.92 43.377 L 142.92 28.647 L 160.64 47.427 L 161.63 47.427 L 161.63 27.857 C 161.63 26.527 162.11 26.137 164.7 26.117 L 164.83 26.117 L 164.83 25.307 L 156.63 25.307 L 156.63 26.117 L 156.7 26.117 C 159.46 26.207 159.98 26.517 160.01 28.627 L 160.01 42.317 L 143.86 25.357 L 138.35 25.357 L 138.35 26.167 L 138.42 26.167 C 139.43 26.147 140.41 26.447 141.25 27.007 L 141.25 44.117 C 141.25 45.687 140.62 46.357 138.5 46.427 L 138.28 46.427 L 138.28 47.227 L 146.41 47.227 L 146.41 46.457 L 146.41 46.447 Z"/>
  <path class="footer-logo-text-4" d="M 26.96 59.507 L 26.96 60.097 L 27.03 60.097 C 28.9 60.217 29.16 60.517 29.19 62.717 L 29.19 68.087 C 29.19 71.957 26.64 72.997 24.08 73.007 C 20.66 73.007 18.97 71.177 18.96 68.097 L 18.96 61.697 C 18.96 60.387 19.45 60.117 20.69 60.087 L 20.96 60.087 L 20.96 59.497 L 14.97 59.497 L 14.97 60.087 L 15.04 60.087 C 16.59 60.087 16.9 60.287 16.92 61.737 L 16.92 68.457 C 16.92 71.797 19.2 74.327 23.57 74.337 C 28.53 74.337 30.41 71.227 30.41 68.337 L 30.41 62.127 C 30.41 60.667 30.91 60.117 32.41 60.087 L 32.49 60.087 L 32.49 59.497 L 26.96 59.497 L 26.96 59.507 Z"/>
  <path class="footer-logo-text-4" d="M 46.72 60.027 L 46.72 60.097 L 46.79 60.097 C 48.61 60.167 48.93 60.347 48.96 61.727 L 48.96 70.717 L 38.35 59.527 L 34.68 59.527 L 34.68 60.107 L 34.75 60.107 C 35.4 60.107 36.04 60.287 36.59 60.647 L 36.59 71.937 C 36.59 72.977 36.19 73.397 34.8 73.417 L 34.64 73.417 L 34.64 73.997 L 40.06 73.997 L 40.06 73.417 L 39.98 73.417 C 38.05 73.417 37.78 73.127 37.76 71.487 L 37.76 61.787 L 49.44 74.157 L 50.14 74.157 L 50.14 61.227 C 50.14 60.377 50.43 60.127 52.14 60.067 L 52.21 60.067 L 52.21 59.477 L 46.75 59.477 L 46.75 60.027 L 46.72 60.027 Z"/>
  <path class="footer-logo-text-4" d="M 55.28 60.027 L 55.28 60.097 L 55.35 60.097 C 56.62 60.177 56.97 60.457 56.99 61.677 L 56.99 71.497 C 56.99 73.037 56.75 73.307 55.36 73.407 L 55.29 73.407 L 55.29 73.987 L 60.99 73.987 L 60.99 73.407 L 60.92 73.407 C 59.36 73.407 59.07 73.007 59.06 71.667 L 59.06 61.897 C 59.06 60.377 59.49 60.127 60.92 60.107 L 60.99 60.107 L 60.99 59.517 L 55.29 59.517 L 55.29 60.037 L 55.28 60.037 L 55.28 60.027 Z"/>
  <path class="footer-logo-text-4" d="M 73.11 60.027 L 73.11 60.097 L 73.18 60.097 C 74.73 60.097 75.22 60.367 75.22 60.997 C 75.17 61.477 75.04 61.947 74.84 62.397 L 71.32 71.757 L 67.29 61.617 C 67.21 61.437 67.16 61.237 67.15 61.037 C 67.15 60.467 67.74 60.157 69.43 60.127 L 69.5 60.127 L 69.5 59.537 L 63.05 59.537 L 63.05 60.127 L 63.13 60.127 C 64.5 60.127 64.7 60.427 65.29 61.887 L 70.24 74.387 L 71.48 74.387 L 76.18 62.057 C 76.73 60.647 77.32 60.127 78.46 60.127 L 78.54 60.127 L 78.54 59.537 L 73.11 59.537 L 73.11 60.037 L 73.11 60.027 Z"/>
  <path class="footer-logo-text-4" d="M 91.64 70.417 C 91.06 72.397 90.64 72.957 89.07 72.967 L 85.56 72.967 C 84.72 72.967 84.42 72.807 84.42 71.807 L 84.42 66.977 L 88.19 66.977 C 89.1 66.977 89.47 67.107 89.66 68.737 L 89.66 68.807 L 90.23 68.807 L 90.23 64.277 L 89.66 64.277 L 89.66 64.347 C 89.56 65.677 89.18 65.977 88.42 65.977 L 84.39 65.977 L 84.39 60.457 L 89.12 60.457 C 89.9 60.457 90.42 60.817 90.73 62.767 L 91.28 62.767 L 91.09 59.417 L 80.05 59.417 L 80.05 60.007 L 80.62 60.007 C 82.13 60.007 82.34 60.497 82.36 61.777 L 82.36 71.507 C 82.36 72.867 82.11 73.297 80.3 73.317 L 79.59 73.317 L 79.59 73.897 L 91.84 73.897 L 92.23 70.327 L 91.68 70.327 L 91.63 70.417 L 91.64 70.417 Z"/>
  <path class="footer-logo-text-4" d="M 114 61.957 C 114 60.717 114.99 59.867 116.46 59.867 C 118.09 59.917 119.52 60.977 120.06 62.537 L 120.57 62.537 L 120.17 59.467 L 119.71 59.467 C 119.57 59.637 119.53 59.667 119.36 59.677 C 118.61 59.677 118.22 59.097 116.27 59.097 C 113.92 59.097 112.15 60.537 112.14 62.567 C 112.14 66.677 119.5 67.707 119.44 70.927 C 119.35 72.477 118.04 73.667 116.5 73.587 C 116.46 73.587 116.42 73.587 116.38 73.587 C 114.53 73.577 112.94 72.237 112.61 70.387 L 112.04 70.387 L 112.53 74.027 L 113.02 74.027 C 113.11 73.897 113.25 73.807 113.41 73.807 C 114.44 74.117 115.5 74.317 116.57 74.427 C 119.26 74.427 121.28 72.717 121.28 70.417 C 121.28 66.097 113.94 65.207 113.99 62.027 L 113.99 61.967 L 114 61.957 Z"/>
  <path class="footer-logo-text-4" d="M 125.26 60.027 L 125.26 60.097 L 125.33 60.097 C 126.6 60.177 126.95 60.457 126.97 61.677 L 126.97 71.497 C 126.97 73.037 126.72 73.307 125.33 73.407 L 125.26 73.407 L 125.26 73.987 L 130.96 73.987 L 130.96 73.407 L 130.89 73.407 C 129.33 73.407 129.04 73.007 129.03 71.667 L 129.03 61.897 C 129.03 60.377 129.46 60.127 130.89 60.107 L 130.96 60.107 L 130.96 59.517 L 125.26 59.517 L 125.26 60.037 L 125.26 60.027 Z"/>
  <path class="footer-logo-text-4" d="M 147.02 59.177 L 146.95 59.177 C 146.95 59.387 146.64 59.467 146.32 59.457 L 135.38 59.457 C 135.23 59.457 135.09 59.447 134.95 59.397 C 134.85 59.367 134.77 59.287 134.74 59.177 L 134.18 59.177 L 133.8 63.047 L 134.35 63.047 C 134.7 61.017 135.08 60.547 135.95 60.547 L 139.83 60.547 L 139.83 71.757 C 139.83 72.997 139.49 73.347 138.11 73.377 L 137.2 73.377 L 137.2 73.957 L 144.51 73.957 L 144.51 73.377 L 143.6 73.377 C 142.22 73.377 141.89 72.997 141.87 71.757 L 141.87 60.457 L 145.76 60.457 C 146.63 60.457 146.99 60.917 147.35 62.957 L 147.9 62.957 L 147.52 59.087 L 147.03 59.177 L 147.02 59.177 Z"/>
  <path class="footer-logo-text-4" d="M 159.5 59.517 L 159.5 60.097 L 159.58 60.097 C 160.57 60.097 161.01 60.277 161.01 60.717 C 160.98 61.047 160.86 61.367 160.68 61.637 L 157.53 67.127 L 153.95 61.537 C 153.76 61.287 153.63 60.987 153.57 60.667 C 153.57 60.327 153.95 60.147 155.1 60.147 L 155.17 60.147 L 155.17 59.557 L 148.98 59.557 L 148.98 60.147 L 149.05 60.147 C 150.52 60.147 150.99 60.487 152.11 62.257 L 156.15 68.637 L 156.15 71.857 C 156.15 73.017 155.8 73.427 154.41 73.447 L 153.91 73.447 L 153.91 74.027 L 160.28 74.027 L 160.28 73.447 L 159.92 73.447 C 158.55 73.447 158.19 73.017 158.18 71.807 L 158.18 68.337 L 161.94 61.907 C 162.46 60.817 163.54 60.127 164.73 60.127 L 164.84 60.127 L 164.84 59.547 L 159.51 59.497 L 159.5 59.517 Z"/>
  <path class="footer-logo-text-4" d="M 104.53 63.667 C 104.53 66.397 102.93 67.417 100.44 67.437 L 99.82 67.437 C 99.57 67.457 99.31 67.457 99.06 67.437 L 99.06 60.057 C 99.41 60.037 99.77 60.037 100.12 60.057 C 103.54 60.057 104.48 61.667 104.49 63.767 L 104.54 63.677 L 104.53 63.667 Z M 107.76 71.947 C 107.76 71.947 104.87 68.217 104.42 67.627 L 104.09 67.257 C 105.71 66.757 106.81 65.247 106.8 63.537 C 106.8 61.147 104.87 59.377 100.67 59.377 C 99.2 59.377 98.74 59.377 97.82 59.447 C 96.9 59.517 95.54 59.587 94.97 59.587 L 94.89 59.587 L 94.89 60.167 L 95.46 60.167 C 96.76 60.167 97.07 60.517 97.09 61.937 L 97.09 71.587 C 97.09 73.107 96.68 73.397 95.36 73.427 L 94.89 73.427 L 94.89 74.007 L 101.45 74.007 L 101.45 73.427 L 100.86 73.427 C 99.61 73.427 99.14 73.127 99.12 71.777 L 99.12 67.977 L 100.26 67.977 C 100.83 67.977 101.4 67.937 101.96 67.837 C 102.18 67.837 103 68.997 103.84 70.067 L 105.17 71.727 C 106.97 73.807 107.45 74.207 110.59 74.197 L 110.75 74.197 L 110.75 73.657 C 109.58 73.557 108.51 72.917 107.85 71.927 L 107.77 71.957 L 107.76 71.947 Z"/>
  <g transform="matrix(1, 0, 0, 1, 0, -178.15274)">
    <path d="M202.11,234.16h-4.84v-11.9h4.53c1.07,0,1.9,.27,2.47,.82,.57,.55,.85,1.31,.85,2.28,0,1.23-.56,2.09-1.69,2.56v.06c1.39,.34,2.09,1.3,2.09,2.89,0,.99-.3,1.79-.89,2.39-.6,.6-1.44,.9-2.53,.9Zm-.46-10.72h-3.03v4.03h3.03c.63,0,1.14-.18,1.52-.54s.57-.87,.57-1.52-.18-1.12-.55-1.46c-.37-.34-.88-.51-1.54-.51Zm.29,5.15h-3.32v4.41h3.32c.69,0,1.23-.19,1.63-.56,.4-.37,.6-.91,.6-1.6s-.2-1.27-.59-1.66c-.39-.39-.94-.59-1.64-.59Z"/>
    <path d="M206.93,229.82c0-1.32,.43-2.4,1.29-3.26,.87-.88,1.95-1.33,3.25-1.33s2.36,.43,3.23,1.3,1.3,1.96,1.3,3.29-.43,2.43-1.3,3.3c-.86,.86-1.94,1.29-3.23,1.29s-2.38-.44-3.25-1.31c-.86-.86-1.29-1.95-1.29-3.28Zm4.54,3.52c.92,0,1.68-.33,2.29-.99,.63-.66,.94-1.5,.94-2.53s-.31-1.87-.92-2.51c-.61-.66-1.38-.99-2.31-.99s-1.71,.33-2.33,.99c-.61,.65-.92,1.49-.92,2.51s.31,1.87,.92,2.53c.63,.66,1.4,.99,2.33,.99Z"/>
    <path d="M220.98,230.3l-1.43-.39c-.64-.16-1.15-.42-1.53-.79-.38-.37-.56-.86-.56-1.45,0-.7,.28-1.28,.83-1.74,.55-.46,1.29-.69,2.22-.69,.82,0,1.55,.21,2.17,.63,.64,.42,.97,1.04,.99,1.88h-1.25c-.02-.46-.21-.82-.58-1.07-.36-.25-.8-.37-1.32-.37s-.98,.12-1.3,.37c-.32,.24-.49,.57-.49,.98,0,.33,.12,.59,.36,.78,.24,.19,.59,.34,1.07,.45l1.51,.44c.8,.18,1.4,.46,1.81,.84,.41,.38,.62,.91,.62,1.59,0,.79-.3,1.43-.9,1.92-.6,.49-1.41,.74-2.43,.74s-1.81-.24-2.47-.73c-.65-.48-1-1.24-1.05-2.28h1.25c0,.63,.22,1.11,.64,1.44,.42,.33,.96,.5,1.63,.5s1.16-.14,1.51-.43c.36-.29,.54-.66,.54-1.12,0-.41-.15-.72-.44-.94-.29-.22-.76-.4-1.42-.56Z"/>
    <path d="M226.69,232.1v-5.56h-1.5v-1.05h1.5v-2.38h1.27v2.38h2.28v1.05h-2.28v5.51c0,.43,.09,.75,.27,.95s.5,.3,.95,.3,.9-.07,1.38-.21v1.09c-.54,.14-1.05,.21-1.52,.21-.82,0-1.42-.18-1.8-.53-.37-.35-.56-.94-.56-1.75Z"/>
    <path d="M231.86,229.82c0-1.32,.43-2.4,1.29-3.26,.87-.88,1.95-1.33,3.25-1.33s2.36,.43,3.23,1.3,1.3,1.96,1.3,3.29-.43,2.43-1.3,3.3c-.86,.86-1.94,1.29-3.23,1.29s-2.38-.44-3.25-1.31c-.86-.86-1.29-1.95-1.29-3.28Zm4.54,3.52c.92,0,1.68-.33,2.29-.99,.63-.66,.94-1.5,.94-2.53s-.31-1.87-.92-2.51c-.61-.66-1.38-.99-2.31-.99s-1.71,.33-2.33,.99c-.61,.65-.92,1.49-.92,2.51s.31,1.87,.92,2.53c.63,.66,1.4,.99,2.33,.99Z"/>
    <path d="M242.73,234.16v-8.67h1.25v1.25h.08c.7-1.01,1.68-1.51,2.96-1.51,1.04,0,1.83,.29,2.37,.88,.54,.58,.81,1.4,.81,2.44v5.61h-1.27v-5.53c0-.72-.19-1.29-.56-1.7-.38-.41-.91-.61-1.59-.61-.74,0-1.38,.27-1.94,.81-.54,.52-.81,1.17-.81,1.94v5.08h-1.28Z"/>
    <path d="M256.75,230.16v-7.91h1.36v7.93c0,.97,.29,1.74,.86,2.3,.57,.56,1.32,.83,2.25,.83s1.7-.27,2.28-.82c.58-.55,.87-1.32,.87-2.31v-7.93h1.36v7.91c0,1.31-.4,2.35-1.21,3.15-.8,.77-1.9,1.15-3.3,1.15s-2.48-.39-3.28-1.17-1.2-1.82-1.2-3.13Z"/>
    <path d="M268.03,234.16v-8.67h1.25v1.25h.08c.7-1.01,1.68-1.51,2.96-1.51,1.04,0,1.83,.29,2.37,.88,.54,.58,.81,1.4,.81,2.44v5.61h-1.27v-5.53c0-.72-.19-1.29-.56-1.7-.38-.41-.91-.61-1.59-.61-.74,0-1.38,.27-1.94,.81-.54,.52-.81,1.17-.81,1.94v5.08h-1.28Z"/>
    <path d="M279.05,223.77c-.16,.17-.37,.26-.61,.26s-.46-.09-.63-.26c-.16-.17-.24-.38-.24-.61s.08-.44,.24-.62c.17-.17,.38-.26,.63-.26s.45,.09,.61,.26c.17,.17,.26,.38,.26,.62s-.09,.44-.26,.61Zm.03,1.72v8.67h-1.28v-8.67h1.28Z"/>
    <path d="M283.89,234.16l-3.52-8.67h1.43l1.99,5.21,.78,2.12h.08l.77-2.11,2-5.23h1.41l-3.52,8.67h-1.43Z"/>
    <path d="M298.39,230.23h-7.49c.08,.98,.43,1.75,1.04,2.29,.61,.55,1.33,.82,2.16,.82,.69,0,1.28-.17,1.79-.5,.51-.33,.88-.79,1.11-1.36h1.32c-.3,.92-.83,1.64-1.57,2.16s-1.62,.77-2.65,.77c-1.26,0-2.33-.43-3.2-1.28-.86-.86-1.29-1.96-1.29-3.31s.42-2.42,1.27-3.29c.87-.87,1.94-1.3,3.21-1.3,1.16,0,2.17,.38,3.03,1.14,.89,.75,1.33,1.78,1.33,3.1,0,.34-.02,.59-.07,.76Zm-4.29-3.91c-.82,0-1.52,.25-2.09,.76-.58,.5-.93,1.19-1.06,2.07h6.28c-.1-.89-.45-1.58-1.05-2.08-.61-.5-1.3-.75-2.08-.75Z"/>
    <path d="M301.52,230.75v3.4h-1.28v-8.67h1.21v2.17h.07c.37-.75,.9-1.32,1.62-1.73s1.51-.62,2.37-.66v1.25c-1.15,.02-2.1,.37-2.86,1.05-.76,.68-1.14,1.73-1.14,3.16Z"/>
    <path d="M310.21,230.3l-1.43-.39c-.64-.16-1.15-.42-1.53-.79-.38-.37-.56-.86-.56-1.45,0-.7,.28-1.28,.83-1.74,.55-.46,1.29-.69,2.22-.69,.82,0,1.55,.21,2.17,.63,.64,.42,.97,1.04,.99,1.88h-1.25c-.02-.46-.21-.82-.58-1.07-.36-.25-.8-.37-1.32-.37s-.98,.12-1.3,.37c-.32,.24-.49,.57-.49,.98,0,.33,.12,.59,.36,.78,.24,.19,.59,.34,1.07,.45l1.51,.44c.8,.18,1.4,.46,1.81,.84,.41,.38,.62,.91,.62,1.59,0,.79-.3,1.43-.9,1.92-.6,.49-1.41,.74-2.43,.74s-1.81-.24-2.47-.73c-.65-.48-1-1.24-1.05-2.28h1.25c0,.63,.22,1.11,.64,1.44,.42,.33,.96,.5,1.63,.5s1.16-.14,1.51-.43c.36-.29,.54-.66,.54-1.12,0-.41-.15-.72-.44-.94-.29-.22-.76-.4-1.42-.56Z"/>
    <path d="M316.34,223.77c-.16,.17-.37,.26-.61,.26s-.46-.09-.63-.26c-.16-.17-.24-.38-.24-.61s.08-.44,.24-.62c.17-.17,.38-.26,.63-.26s.45,.09,.61,.26c.17,.17,.26,.38,.26,.62s-.09,.44-.26,.61Zm.03,1.72v8.67h-1.28v-8.67h1.28Z"/>
    <path d="M319.5,232.1v-5.56h-1.5v-1.05h1.5v-2.38h1.27v2.38h2.28v1.05h-2.28v5.51c0,.43,.09,.75,.27,.95s.5,.3,.95,.3,.9-.07,1.38-.21v1.09c-.54,.14-1.05,.21-1.52,.21-.82,0-1.42-.18-1.8-.53-.37-.35-.56-.94-.56-1.75Z"/>
    <path d="M327.71,234.07l-3.55-8.58h1.41l1.57,4.03c.61,1.54,1.01,2.6,1.2,3.18h.08c.23-.65,.64-1.72,1.21-3.21l1.53-3.99h1.41l-3.47,8.53c-.59,1.43-1.08,2.39-1.46,2.87-.4,.5-.96,.75-1.69,.75-.49,0-.93-.05-1.3-.16v-1.1c.34,.13,.71,.19,1.12,.19,.49,0,.9-.27,1.22-.81,.27-.46,.51-1.02,.71-1.68Z"/>
    <path d="M349.5,226.22h-1.35c-.25-.94-.76-1.69-1.52-2.25-.77-.56-1.72-.84-2.85-.84-1.33,0-2.45,.47-3.38,1.41-.91,.94-1.36,2.16-1.36,3.67s.45,2.74,1.36,3.69c.92,.94,2.05,1.41,3.38,1.41,1.2,0,2.2-.3,3-.91,.81-.61,1.33-1.45,1.57-2.53h1.33c-.26,1.47-.92,2.61-1.99,3.4-1.06,.79-2.37,1.19-3.91,1.19-1.67,0-3.1-.57-4.32-1.72-1.21-1.16-1.82-2.68-1.82-4.54s.61-3.38,1.82-4.52c1.2-1.15,2.64-1.73,4.32-1.73,1.49,0,2.74,.39,3.76,1.17,1.02,.76,1.67,1.79,1.97,3.1Z"/>
    <path d="M359.73,230.23h-7.49c.08,.98,.43,1.75,1.04,2.29,.61,.55,1.33,.82,2.16,.82,.69,0,1.28-.17,1.79-.5,.51-.33,.88-.79,1.11-1.36h1.32c-.3,.92-.83,1.64-1.57,2.16s-1.62,.77-2.65,.77c-1.26,0-2.33-.43-3.2-1.28-.86-.86-1.29-1.96-1.29-3.31s.42-2.42,1.27-3.29c.87-.87,1.94-1.3,3.21-1.3,1.16,0,2.17,.38,3.03,1.14,.89,.75,1.33,1.78,1.33,3.1,0,.34-.02,.59-.07,.76Zm-4.29-3.91c-.82,0-1.52,.25-2.09,.76-.58,.5-.93,1.19-1.06,2.07h6.28c-.1-.89-.45-1.58-1.05-2.08-.61-.5-1.3-.75-2.08-.75Z"/>
    <path d="M361.59,234.16v-8.67h1.25v1.25h.08c.7-1.01,1.68-1.51,2.96-1.51,1.04,0,1.83,.29,2.37,.88,.54,.58,.81,1.4,.81,2.44v5.61h-1.27v-5.53c0-.72-.19-1.29-.56-1.7-.38-.41-.91-.61-1.59-.61-.74,0-1.38,.27-1.94,.81-.54,.52-.81,1.17-.81,1.94v5.08h-1.28Z"/>
    <path d="M372.18,232.1v-5.56h-1.5v-1.05h1.5v-2.38h1.27v2.38h2.28v1.05h-2.28v5.51c0,.43,.09,.75,.27,.95s.5,.3,.96,.3,.9-.07,1.38-.21v1.09c-.54,.14-1.05,.21-1.52,.21-.82,0-1.42-.18-1.8-.53-.37-.35-.56-.94-.56-1.75Z"/>
    <path d="M386.12,230.23h-7.49c.08,.98,.43,1.75,1.04,2.29,.61,.55,1.33,.82,2.16,.82,.69,0,1.28-.17,1.79-.5,.51-.33,.88-.79,1.11-1.36h1.32c-.3,.92-.83,1.64-1.57,2.16-.74,.51-1.62,.77-2.65,.77-1.26,0-2.33-.43-3.2-1.28-.86-.86-1.29-1.96-1.29-3.31s.42-2.42,1.27-3.29c.87-.87,1.94-1.3,3.21-1.3,1.16,0,2.17,.38,3.03,1.14,.88,.75,1.33,1.78,1.33,3.1,0,.34-.02,.59-.07,.76Zm-4.29-3.91c-.82,0-1.52,.25-2.09,.76-.58,.5-.93,1.19-1.06,2.07h6.28c-.1-.89-.45-1.58-1.05-2.08-.61-.5-1.3-.75-2.08-.75Z"/>
    <path d="M389.25,230.75v3.4h-1.28v-8.67h1.21v2.17h.07c.37-.75,.91-1.32,1.62-1.73s1.5-.62,2.37-.66v1.25c-1.15,.02-2.1,.37-2.86,1.05-.76,.68-1.14,1.73-1.14,3.16Z"/>
    <path d="M398.2,226.54v-1.05h1.56v-1.2c0-1.55,.75-2.32,2.25-2.32,.53,0,1.05,.06,1.54,.17v1.04c-.51-.1-.95-.15-1.33-.15-.79,0-1.19,.42-1.19,1.27v1.2h2.27v1.05h-2.27v7.62h-1.28v-7.62h-1.56Z"/>
    <path d="M404.36,229.82c0-1.32,.43-2.4,1.29-3.26,.87-.88,1.95-1.33,3.25-1.33s2.36,.43,3.23,1.3,1.3,1.96,1.3,3.29-.43,2.43-1.3,3.3-1.94,1.29-3.23,1.29-2.38-.44-3.25-1.31-1.29-1.95-1.29-3.28Zm4.54,3.52c.92,0,1.68-.33,2.29-.99,.63-.66,.94-1.5,.94-2.53s-.31-1.87-.92-2.51c-.61-.66-1.38-.99-2.31-.99s-1.71,.33-2.33,.99c-.61,.65-.92,1.49-.92,2.51s.31,1.87,.92,2.53c.62,.66,1.4,.99,2.33,.99Z"/>
    <path d="M416.52,230.75v3.4h-1.28v-8.67h1.21v2.17h.07c.37-.75,.91-1.32,1.62-1.73s1.5-.62,2.37-.66v1.25c-1.15,.02-2.1,.37-2.86,1.05-.76,.68-1.14,1.73-1.14,3.16Z"/>
    <path d="M434.11,234.16h-7.7v-11.9h7.46v1.18h-6.11v4.04h5.61v1.17h-5.61v4.34h6.34v1.17Z"/>
    <path d="M436.04,234.16v-8.67h1.24v1.2h.08c.7-.97,1.63-1.46,2.8-1.46,1.29,0,2.11,.58,2.47,1.75h.03c.65-1.17,1.62-1.75,2.92-1.75,.96,0,1.68,.28,2.15,.83s.72,1.31,.72,2.29v5.81h-1.27v-5.74c0-.67-.16-1.19-.47-1.55-.31-.36-.76-.54-1.35-.54-.74,0-1.33,.27-1.79,.81-.45,.54-.68,1.17-.68,1.89v5.13h-1.28v-5.44c0-1.6-.6-2.4-1.8-2.4-.71,0-1.3,.28-1.79,.83-.49,.56-.73,1.19-.73,1.89v5.11h-1.28Z"/>
    <path d="M459.04,230.23h-7.49c.08,.98,.43,1.75,1.04,2.29,.61,.55,1.33,.82,2.16,.82,.69,0,1.28-.17,1.79-.5,.51-.33,.88-.79,1.11-1.36h1.32c-.3,.92-.83,1.64-1.57,2.16-.74,.51-1.62,.77-2.65,.77-1.26,0-2.33-.43-3.2-1.28-.86-.86-1.29-1.96-1.29-3.31s.42-2.42,1.27-3.29c.87-.87,1.94-1.3,3.21-1.3,1.16,0,2.17,.38,3.03,1.14,.88,.75,1.33,1.78,1.33,3.1,0,.34-.02,.59-.07,.76Zm-4.29-3.91c-.82,0-1.52,.25-2.09,.76-.58,.5-.93,1.19-1.06,2.07h6.28c-.1-.89-.45-1.58-1.05-2.08-.61-.5-1.3-.75-2.08-.75Z"/>
    <path d="M462.18,230.75v3.4h-1.28v-8.67h1.21v2.17h.07c.37-.75,.91-1.32,1.62-1.73s1.5-.62,2.37-.66v1.25c-1.15,.02-2.1,.37-2.86,1.05-.76,.68-1.14,1.73-1.14,3.16Z"/>
    <path d="M474.6,233.65v-1.15h-.08c-.7,1.01-1.77,1.52-3.2,1.52-1.17,0-2.16-.43-2.98-1.28-.8-.87-1.2-1.91-1.2-3.11s.39-2.23,1.17-3.1c.79-.87,1.79-1.3,3.01-1.3,1.41,0,2.48,.52,3.23,1.56h.08v-1.3h1.24v8.14c0,1.23-.37,2.19-1.1,2.89s-1.73,1.05-3,1.05c-1.11,0-2.03-.24-2.76-.71-.73-.47-1.19-1.16-1.39-2.06h1.33c.11,.54,.42,.95,.93,1.25,.51,.3,1.14,.45,1.9,.45,.89,0,1.58-.25,2.08-.74s.74-1.2,.74-2.11Zm.12-4.02c0-.95-.29-1.74-.88-2.36-.59-.64-1.34-.96-2.27-.96s-1.65,.32-2.26,.96c-.58,.63-.87,1.42-.87,2.36s.3,1.74,.89,2.37c.6,.64,1.35,.96,2.24,.96s1.65-.32,2.25-.96c.6-.63,.9-1.42,.9-2.37Z"/>
    <path d="M479.43,223.77c-.16,.17-.37,.26-.61,.26s-.46-.09-.63-.26c-.16-.17-.24-.38-.24-.61s.08-.44,.24-.62c.17-.17,.38-.26,.63-.26s.45,.09,.61,.26c.17,.17,.26,.38,.26,.62s-.09,.44-.26,.61Zm.03,1.72v8.67h-1.28v-8.67h1.28Z"/>
    <path d="M481.77,234.16v-8.67h1.24v1.25h.08c.7-1.01,1.68-1.51,2.96-1.51,1.04,0,1.83,.29,2.37,.88,.54,.58,.81,1.4,.81,2.44v5.61h-1.27v-5.53c0-.72-.19-1.29-.56-1.7-.38-.41-.91-.61-1.59-.61-.74,0-1.38,.27-1.94,.81-.54,.52-.81,1.17-.81,1.94v5.08h-1.28Z"/>
    <path d="M498.46,233.65v-1.15h-.08c-.7,1.01-1.77,1.52-3.2,1.52-1.17,0-2.16-.43-2.98-1.28-.8-.87-1.2-1.91-1.2-3.11s.39-2.23,1.17-3.1c.79-.87,1.79-1.3,3.01-1.3,1.41,0,2.48,.52,3.23,1.56h.08v-1.3h1.24v8.14c0,1.23-.37,2.19-1.1,2.89s-1.73,1.05-3,1.05c-1.11,0-2.03-.24-2.76-.71-.73-.47-1.19-1.16-1.39-2.06h1.33c.11,.54,.42,.95,.93,1.25,.51,.3,1.14,.45,1.9,.45,.89,0,1.58-.25,2.08-.74s.74-1.2,.74-2.11Zm.12-4.02c0-.95-.29-1.74-.88-2.36-.59-.64-1.34-.96-2.27-.96s-1.65,.32-2.26,.96c-.58,.63-.87,1.42-.87,2.36s.3,1.74,.89,2.37c.6,.64,1.35,.96,2.24,.96s1.65-.32,2.25-.96c.6-.63,.9-1.42,.9-2.37Z"/>
    <path d="M507.78,222.25v11.9h-1.35v-11.9h1.35Z"/>
    <path d="M510.23,234.16v-8.67h1.24v1.25h.08c.7-1.01,1.68-1.51,2.96-1.51,1.04,0,1.83,.29,2.37,.88,.54,.58,.81,1.4,.81,2.44v5.61h-1.27v-5.53c0-.72-.19-1.29-.56-1.7-.38-.41-.91-.61-1.59-.61-.74,0-1.38,.27-1.94,.81-.54,.52-.81,1.17-.81,1.94v5.08h-1.28Z"/>
    <path d="M519.19,226.54v-1.05h1.56v-1.2c0-1.55,.75-2.32,2.25-2.32,.53,0,1.05,.06,1.54,.17v1.04c-.51-.1-.95-.15-1.33-.15-.79,0-1.19,.42-1.19,1.27v1.2h2.27v1.05h-2.27v7.62h-1.28v-7.62h-1.56Z"/>
    <path d="M534.13,230.23h-7.49c.08,.98,.43,1.75,1.04,2.29,.61,.55,1.33,.82,2.16,.82,.69,0,1.28-.17,1.79-.5,.51-.33,.88-.79,1.11-1.36h1.32c-.3,.92-.83,1.64-1.57,2.16-.74,.51-1.62,.77-2.65,.77-1.26,0-2.33-.43-3.2-1.28-.86-.86-1.29-1.96-1.29-3.31s.42-2.42,1.27-3.29c.87-.87,1.94-1.3,3.21-1.3,1.16,0,2.17,.38,3.03,1.14,.88,.75,1.33,1.78,1.33,3.1,0,.34-.02,.59-.07,.76Zm-4.29-3.91c-.82,0-1.52,.25-2.09,.76-.58,.5-.93,1.19-1.06,2.07h6.28c-.1-.89-.45-1.58-1.05-2.08-.61-.5-1.3-.75-2.08-.75Z"/>
    <path d="M544.13,228.3h-1.29c-.2-.6-.56-1.08-1.08-1.45-.52-.36-1.1-.54-1.73-.54-.93,0-1.71,.33-2.33,.99-.62,.64-.94,1.48-.94,2.51s.31,1.89,.94,2.55c.63,.65,1.41,.97,2.33,.97,.64,0,1.25-.21,1.82-.61,.55-.4,.93-.96,1.12-1.69h1.29c-.25,1.12-.78,1.96-1.58,2.53-.79,.56-1.67,.84-2.65,.84-1.3,0-2.38-.43-3.25-1.29-.87-.88-1.31-1.97-1.31-3.3s.44-2.41,1.31-3.29,1.95-1.3,3.25-1.3c.97,0,1.83,.28,2.58,.83,.79,.57,1.29,1.32,1.51,2.24Z"/>
    <path d="M546.89,232.1v-5.56h-1.5v-1.05h1.5v-2.38h1.27v2.38h2.28v1.05h-2.28v5.51c0,.43,.09,.75,.27,.95s.5,.3,.96,.3,.9-.07,1.38-.21v1.09c-.54,.14-1.05,.21-1.52,.21-.82,0-1.42-.18-1.8-.53-.37-.35-.56-.94-.56-1.75Z"/>
    <path d="M553.8,223.77c-.16,.17-.37,.26-.61,.26s-.46-.09-.63-.26c-.16-.17-.24-.38-.24-.61s.08-.44,.24-.62c.17-.17,.38-.26,.63-.26s.45,.09,.61,.26c.17,.17,.26,.38,.26,.62s-.09,.44-.26,.61Zm.03,1.72v8.67h-1.28v-8.67h1.28Z"/>
    <path d="M555.63,229.82c0-1.32,.43-2.4,1.29-3.26,.87-.88,1.95-1.33,3.25-1.33s2.36,.43,3.23,1.3,1.3,1.96,1.3,3.29-.43,2.43-1.3,3.3-1.94,1.29-3.23,1.29-2.38-.44-3.25-1.31-1.29-1.95-1.29-3.28Zm4.54,3.52c.92,0,1.68-.33,2.29-.99,.63-.66,.94-1.5,.94-2.53s-.31-1.87-.92-2.51c-.61-.66-1.38-.99-2.31-.99s-1.71,.33-2.33,.99c-.61,.65-.92,1.49-.92,2.51s.31,1.87,.92,2.53c.62,.66,1.4,.99,2.33,.99Z"/>
    <path d="M566.51,231.09v-5.6h1.28v5.52c0,.72,.18,1.29,.54,1.7,.36,.41,.85,.62,1.49,.62,.7,0,1.31-.27,1.85-.8,.53-.56,.8-1.21,.8-1.95v-5.08h1.28v8.67h-1.25v-1.2h-.08c-.61,.97-1.56,1.46-2.84,1.46-1,0-1.76-.29-2.28-.88-.52-.59-.78-1.4-.78-2.44Z"/>
    <path d="M579.22,230.3l-1.43-.39c-.64-.16-1.15-.42-1.53-.79-.38-.37-.56-.86-.56-1.45,0-.7,.28-1.28,.83-1.74s1.29-.69,2.22-.69c.83,0,1.55,.21,2.18,.63,.64,.42,.97,1.04,.99,1.88h-1.25c-.02-.46-.21-.82-.58-1.07-.36-.25-.8-.37-1.32-.37s-.98,.12-1.3,.37c-.32,.24-.49,.57-.49,.98,0,.33,.12,.59,.36,.78,.24,.19,.59,.34,1.07,.45l1.51,.44c.8,.18,1.4,.46,1.81,.84,.41,.38,.62,.91,.62,1.59,0,.79-.3,1.43-.9,1.92-.6,.49-1.41,.74-2.43,.74s-1.81-.24-2.47-.73c-.65-.48-1-1.24-1.05-2.28h1.25c0,.63,.22,1.11,.64,1.44s.96,.5,1.63,.5,1.16-.14,1.51-.43c.36-.29,.54-.66,.54-1.12,0-.41-.14-.72-.44-.94-.29-.22-.76-.4-1.42-.56Z"/>
    <path d="M593.43,234.16h-4.93v-11.9h4.93c1.72,0,3.1,.54,4.14,1.62,1.04,1.07,1.55,2.52,1.55,4.35s-.52,3.27-1.55,4.33c-1.03,1.07-2.42,1.6-4.14,1.6Zm-3.58-10.72v9.55h3.4c1.43,0,2.53-.43,3.3-1.29,.79-.87,1.18-2.03,1.18-3.47s-.39-2.61-1.16-3.49c-.77-.87-1.87-1.3-3.31-1.3h-3.4Z"/>
    <path d="M602.19,223.77c-.16,.17-.37,.26-.61,.26s-.46-.09-.63-.26c-.16-.17-.24-.38-.24-.61s.08-.44,.24-.62c.17-.17,.38-.26,.63-.26s.45,.09,.61,.26c.17,.17,.26,.38,.26,.62s-.09,.44-.26,.61Zm.03,1.72v8.67h-1.28v-8.67h1.28Z"/>
    <path d="M607.71,230.3l-1.43-.39c-.64-.16-1.15-.42-1.53-.79-.38-.37-.56-.86-.56-1.45,0-.7,.28-1.28,.83-1.74s1.29-.69,2.22-.69c.83,0,1.55,.21,2.18,.63,.64,.42,.97,1.04,.99,1.88h-1.25c-.02-.46-.21-.82-.58-1.07-.36-.25-.8-.37-1.32-.37s-.98,.12-1.3,.37c-.32,.24-.49,.57-.49,.98,0,.33,.12,.59,.36,.78,.24,.19,.59,.34,1.07,.45l1.51,.44c.8,.18,1.4,.46,1.81,.84,.41,.38,.62,.91,.62,1.59,0,.79-.3,1.43-.9,1.92-.6,.49-1.41,.74-2.43,.74s-1.81-.24-2.47-.73c-.65-.48-1-1.24-1.05-2.28h1.25c0,.63,.22,1.11,.64,1.44s.96,.5,1.63,.5,1.16-.14,1.51-.43c.36-.29,.54-.66,.54-1.12,0-.41-.14-.72-.44-.94-.29-.22-.76-.4-1.42-.56Z"/>
    <path d="M620.87,230.23h-7.49c.08,.98,.43,1.75,1.04,2.29,.61,.55,1.33,.82,2.16,.82,.69,0,1.28-.17,1.79-.5,.51-.33,.88-.79,1.11-1.36h1.32c-.3,.92-.83,1.64-1.57,2.16-.74,.51-1.62,.77-2.65,.77-1.26,0-2.33-.43-3.2-1.28-.86-.86-1.29-1.96-1.29-3.31s.42-2.42,1.27-3.29c.87-.87,1.94-1.3,3.21-1.3,1.16,0,2.17,.38,3.03,1.14,.88,.75,1.33,1.78,1.33,3.1,0,.34-.02,.59-.07,.76Zm-4.29-3.91c-.82,0-1.52,.25-2.09,.76-.58,.5-.93,1.19-1.06,2.07h6.28c-.1-.89-.45-1.58-1.05-2.08-.61-.5-1.3-.75-2.08-.75Z"/>
    <path d="M629.94,234.16v-1.39h-.07c-.8,1.1-1.9,1.65-3.3,1.65-1.21,0-2.23-.43-3.08-1.29-.85-.86-1.27-1.96-1.27-3.3s.42-2.42,1.25-3.29c.85-.87,1.88-1.3,3.1-1.3,1.41,0,2.48,.54,3.23,1.63h.08v-1.37h1.28v8.67h-1.22Zm-3.18-.81c.91,0,1.67-.33,2.28-.99,.61-.66,.92-1.51,.92-2.53s-.31-1.85-.92-2.51c-.61-.66-1.37-.99-2.28-.99s-1.69,.33-2.32,.99c-.62,.64-.94,1.48-.94,2.51s.31,1.87,.94,2.53c.62,.66,1.4,.99,2.32,.99Z"/>
    <path d="M636.65,230.3l-1.43-.39c-.64-.16-1.15-.42-1.53-.79-.38-.37-.56-.86-.56-1.45,0-.7,.28-1.28,.83-1.74s1.29-.69,2.22-.69c.83,0,1.55,.21,2.18,.63,.64,.42,.97,1.04,.99,1.88h-1.25c-.02-.46-.21-.82-.58-1.07-.36-.25-.8-.37-1.32-.37s-.98,.12-1.3,.37c-.32,.24-.49,.57-.49,.98,0,.33,.12,.59,.36,.78,.24,.19,.59,.34,1.07,.45l1.51,.44c.8,.18,1.4,.46,1.81,.84,.41,.38,.62,.91,.62,1.59,0,.79-.3,1.43-.9,1.92-.6,.49-1.41,.74-2.43,.74s-1.81-.24-2.47-.73c-.65-.48-1-1.24-1.05-2.28h1.25c0,.63,.22,1.11,.64,1.44s.96,.5,1.63,.5,1.16-.14,1.51-.43c.36-.29,.54-.66,.54-1.12,0-.41-.14-.72-.44-.94-.29-.22-.76-.4-1.42-.56Z"/>
    <path d="M649.81,230.23h-7.49c.08,.98,.43,1.75,1.04,2.29,.61,.55,1.33,.82,2.16,.82,.69,0,1.28-.17,1.79-.5,.51-.33,.88-.79,1.11-1.36h1.32c-.3,.92-.83,1.64-1.57,2.16-.74,.51-1.62,.77-2.65,.77-1.26,0-2.33-.43-3.2-1.28-.86-.86-1.29-1.96-1.29-3.31s.42-2.42,1.27-3.29c.87-.87,1.94-1.3,3.21-1.3,1.16,0,2.17,.38,3.03,1.14,.88,.75,1.33,1.78,1.33,3.1,0,.34-.02,.59-.07,.76Zm-4.29-3.91c-.82,0-1.52,.25-2.09,.76-.58,.5-.93,1.19-1.06,2.07h6.28c-.1-.89-.45-1.58-1.05-2.08-.61-.5-1.3-.75-2.08-.75Z"/>
    <path d="M654.85,230.3l-1.43-.39c-.64-.16-1.15-.42-1.53-.79-.38-.37-.56-.86-.56-1.45,0-.7,.28-1.28,.83-1.74s1.29-.69,2.22-.69c.83,0,1.55,.21,2.18,.63,.64,.42,.97,1.04,.99,1.88h-1.25c-.02-.46-.21-.82-.58-1.07-.36-.25-.8-.37-1.32-.37s-.98,.12-1.3,.37c-.32,.24-.49,.57-.49,.98,0,.33,.12,.59,.36,.78,.24,.19,.59,.34,1.07,.45l1.51,.44c.8,.18,1.4,.46,1.81,.84,.41,.38,.62,.91,.62,1.59,0,.79-.3,1.43-.9,1.92-.6,.49-1.41,.74-2.43,.74s-1.81-.24-2.47-.73c-.65-.48-1-1.24-1.05-2.28h1.25c0,.63,.22,1.11,.64,1.44s.96,.5,1.63,.5,1.16-.14,1.51-.43c.36-.29,.54-.66,.54-1.12,0-.41-.14-.72-.44-.94-.29-.22-.76-.4-1.42-.56Z"/>
    <path d="M665.48,234.16h-1.35v-11.9h4.52c1.16,0,2.07,.33,2.72,1,.65,.66,.97,1.5,.97,2.51s-.32,1.85-.97,2.51c-.64,.66-1.55,.99-2.72,.99h-3.16v4.88Zm3.05-10.72h-3.05v4.67h3.05c.74,0,1.33-.21,1.77-.63,.44-.42,.66-.99,.66-1.71s-.22-1.31-.65-1.72-1.03-.62-1.78-.62Z"/>
    <path d="M673.51,229.82c0-1.32,.43-2.4,1.29-3.26,.87-.88,1.95-1.33,3.25-1.33s2.36,.43,3.23,1.3,1.3,1.96,1.3,3.29-.43,2.43-1.3,3.3-1.94,1.29-3.23,1.29-2.38-.44-3.25-1.31-1.29-1.95-1.29-3.28Zm4.54,3.52c.92,0,1.68-.33,2.29-.99,.63-.66,.94-1.5,.94-2.53s-.31-1.87-.92-2.51c-.61-.66-1.38-.99-2.31-.99s-1.71,.33-2.33,.99c-.61,.65-.92,1.49-.92,2.51s.31,1.87,.92,2.53c.62,.66,1.4,.99,2.33,.99Z"/>
    <path d="M685.66,222.25v11.9h-1.28v-11.9h1.28Z"/>
    <path d="M689.21,223.77c-.16,.17-.37,.26-.61,.26s-.46-.09-.63-.26c-.16-.17-.24-.38-.24-.61s.08-.44,.24-.62c.17-.17,.38-.26,.63-.26s.45,.09,.61,.26c.17,.17,.26,.38,.26,.62s-.09,.44-.26,.61Zm.03,1.72v8.67h-1.28v-8.67h1.28Z"/>
    <path d="M699.7,228.3h-1.29c-.2-.6-.56-1.08-1.08-1.45-.52-.36-1.1-.54-1.73-.54-.93,0-1.71,.33-2.33,.99-.62,.64-.94,1.48-.94,2.51s.31,1.89,.94,2.55c.63,.65,1.41,.97,2.33,.97,.64,0,1.25-.21,1.82-.61,.55-.4,.93-.96,1.12-1.69h1.29c-.25,1.12-.78,1.96-1.58,2.53-.79,.56-1.67,.84-2.65,.84-1.3,0-2.38-.43-3.25-1.29-.87-.88-1.31-1.97-1.31-3.3s.44-2.41,1.31-3.29,1.95-1.3,3.25-1.3c.97,0,1.83,.28,2.58,.83,.79,.57,1.29,1.32,1.51,2.24Z"/>
    <path d="M704.16,234.07l-3.55-8.58h1.41l1.57,4.03c.61,1.54,1.01,2.6,1.2,3.18h.08c.23-.65,.64-1.72,1.21-3.21l1.53-3.99h1.41l-3.47,8.53c-.59,1.43-1.08,2.39-1.46,2.87-.4,.5-.96,.75-1.69,.75-.49,0-.93-.05-1.3-.16v-1.1c.34,.13,.71,.19,1.12,.19,.49,0,.9-.27,1.22-.81,.27-.46,.51-1.02,.71-1.68Z"/>
    <path d="M723.17,234.16h-1.6l-.65-.94c-.92,.83-2.04,1.24-3.36,1.24-1.05,0-1.9-.3-2.57-.9-.66-.61-1-1.41-1-2.37,0-1.02,.3-1.84,.91-2.45,.29-.3,.58-.56,.86-.76s.65-.42,1.1-.67l-.34-.52c-.53-.81-.8-1.56-.8-2.26,0-.77,.25-1.38,.74-1.83,.49-.45,1.14-.67,1.94-.67s1.42,.22,1.9,.66c.48,.44,.72,1.04,.72,1.79,0,.68-.19,1.25-.58,1.72s-1,.94-1.83,1.41l2.45,3.49c.4-.81,.61-1.65,.61-2.51h1.2c-.02,1.36-.37,2.56-1.05,3.6l1.36,1.96Zm-2.91-1.92l-2.75-4.02c-.75,.43-1.31,.86-1.67,1.31-.36,.45-.54,.99-.54,1.63s.22,1.2,.66,1.59c.44,.4,.99,.6,1.66,.6,1.04,0,1.92-.37,2.65-1.12Zm-2.53-5.93l.26,.39c.62-.36,1.07-.7,1.36-1.03,.29-.33,.43-.72,.43-1.18s-.12-.79-.36-1.05c-.24-.25-.57-.38-.98-.38s-.75,.13-1.02,.4c-.27,.27-.41,.62-.41,1.06,0,.5,.24,1.09,.73,1.78Z"/>
    <path d="M730.77,234.16h-1.35v-11.9h4.72c1.1,0,1.96,.31,2.58,.92s.94,1.41,.94,2.39c0,1.41-.7,2.33-2.11,2.79v.07c1.26,.27,1.88,1.16,1.88,2.66s.19,2.47,.58,3.08h-1.43c-.34-.67-.53-1.61-.55-2.82,0-.28-.02-.53-.05-.74-.03-.21-.1-.43-.2-.65-.1-.22-.24-.41-.4-.55-.17-.14-.4-.25-.69-.34s-.64-.12-1.04-.11h-2.88v5.21Zm3.22-10.72h-3.22v4.35h3.22c.69,0,1.25-.2,1.66-.61,.42-.41,.63-.93,.63-1.56s-.21-1.16-.62-1.56c-.41-.41-.97-.61-1.68-.61Z"/>
    <path d="M747.88,230.23h-7.49c.08,.98,.43,1.75,1.04,2.29,.61,.55,1.33,.82,2.16,.82,.69,0,1.28-.17,1.79-.5,.51-.33,.88-.79,1.11-1.36h1.32c-.3,.92-.83,1.64-1.57,2.16-.74,.51-1.62,.77-2.65,.77-1.26,0-2.33-.43-3.2-1.28-.86-.86-1.29-1.96-1.29-3.31s.42-2.42,1.27-3.29c.87-.87,1.94-1.3,3.21-1.3,1.16,0,2.17,.38,3.03,1.14,.88,.75,1.33,1.78,1.33,3.1,0,.34-.02,.59-.07,.76Zm-4.29-3.91c-.82,0-1.52,.25-2.09,.76-.58,.5-.93,1.19-1.06,2.07h6.28c-.1-.89-.45-1.58-1.05-2.08-.61-.5-1.3-.75-2.08-.75Z"/>
    <path d="M752.92,230.3l-1.43-.39c-.64-.16-1.15-.42-1.53-.79-.38-.37-.56-.86-.56-1.45,0-.7,.28-1.28,.83-1.74s1.29-.69,2.22-.69c.83,0,1.55,.21,2.18,.63,.64,.42,.97,1.04,.99,1.88h-1.25c-.02-.46-.21-.82-.58-1.07-.36-.25-.8-.37-1.32-.37s-.98,.12-1.3,.37c-.32,.24-.49,.57-.49,.98,0,.33,.12,.59,.36,.78,.24,.19,.59,.34,1.07,.45l1.51,.44c.8,.18,1.4,.46,1.81,.84,.41,.38,.62,.91,.62,1.59,0,.79-.3,1.43-.9,1.92-.6,.49-1.41,.74-2.43,.74s-1.81-.24-2.47-.73c-.65-.48-1-1.24-1.05-2.28h1.25c0,.63,.22,1.11,.64,1.44s.96,.5,1.63,.5,1.16-.14,1.51-.43c.36-.29,.54-.66,.54-1.12,0-.41-.14-.72-.44-.94-.29-.22-.76-.4-1.42-.56Z"/>
    <path d="M766.08,230.23h-7.49c.08,.98,.43,1.75,1.04,2.29,.61,.55,1.33,.82,2.16,.82,.69,0,1.28-.17,1.79-.5,.51-.33,.88-.79,1.11-1.36h1.32c-.3,.92-.83,1.64-1.57,2.16-.74,.51-1.62,.77-2.65,.77-1.26,0-2.33-.43-3.2-1.28-.86-.86-1.29-1.96-1.29-3.31s.42-2.42,1.27-3.29c.87-.87,1.94-1.3,3.21-1.3,1.16,0,2.17,.38,3.03,1.14,.88,.75,1.33,1.78,1.33,3.1,0,.34-.02,.59-.07,.76Zm-4.29-3.91c-.82,0-1.52,.25-2.09,.76-.58,.5-.93,1.19-1.06,2.07h6.28c-.1-.89-.45-1.58-1.05-2.08-.61-.5-1.3-.75-2.08-.75Z"/>
    <path d="M775.15,234.16v-1.39h-.07c-.8,1.1-1.9,1.65-3.3,1.65-1.21,0-2.23-.43-3.08-1.29-.85-.86-1.27-1.96-1.27-3.3s.42-2.42,1.25-3.29c.85-.87,1.88-1.3,3.1-1.3,1.41,0,2.48,.54,3.23,1.63h.08v-1.37h1.28v8.67h-1.22Zm-3.18-.81c.91,0,1.67-.33,2.28-.99,.61-.66,.92-1.51,.92-2.53s-.31-1.85-.92-2.51c-.61-.66-1.37-.99-2.28-.99s-1.69,.33-2.32,.99c-.62,.64-.94,1.48-.94,2.51s.31,1.87,.94,2.53c.62,.66,1.4,.99,2.32,.99Z"/>
    <path d="M779.95,230.75v3.4h-1.28v-8.67h1.21v2.17h.07c.37-.75,.91-1.32,1.62-1.73s1.5-.62,2.37-.66v1.25c-1.15,.02-2.1,.37-2.86,1.05-.76,.68-1.14,1.73-1.14,3.16Z"/>
    <path d="M793.6,228.3h-1.29c-.2-.6-.56-1.08-1.08-1.45-.52-.36-1.1-.54-1.73-.54-.93,0-1.71,.33-2.33,.99-.62,.64-.94,1.48-.94,2.51s.31,1.89,.94,2.55c.63,.65,1.41,.97,2.33,.97,.64,0,1.25-.21,1.82-.61,.55-.4,.93-.96,1.12-1.69h1.29c-.25,1.12-.78,1.96-1.58,2.53-.79,.56-1.67,.84-2.65,.84-1.3,0-2.38-.43-3.25-1.29-.87-.88-1.31-1.97-1.31-3.3s.44-2.41,1.31-3.29,1.95-1.3,3.25-1.3c.97,0,1.83,.28,2.58,.83,.79,.57,1.29,1.32,1.51,2.24Z"/>
    <path d="M796.81,234.16h-1.28v-11.9h1.28v4.49h.08c.66-1.01,1.64-1.51,2.94-1.51,1.04,0,1.83,.29,2.36,.87s.8,1.39,.8,2.44v5.61h-1.27v-5.53c0-.72-.19-1.29-.56-1.7-.38-.41-.91-.61-1.59-.61-.74,0-1.38,.27-1.94,.81-.54,.52-.81,1.17-.81,1.94v5.08Z"/>
    <path d="M811.16,229.91c-.5,0-.91-.16-1.23-.48s-.47-.73-.47-1.24,.16-.89,.48-1.22c.32-.32,.73-.49,1.22-.49s.92,.16,1.24,.47c.32,.32,.48,.73,.48,1.23s-.16,.92-.48,1.24-.73,.48-1.24,.48Z"/>
  </g>
  <g transform="matrix(1, 0, 0, 1, 0, -178.15274)">
    <path d="M431.75,262.71l-3.76-11.9h1.5l2.19,7.46,.76,2.74h.08l.39-1.69,2.25-8.52h1.53l2.21,8.47c.11,.39,.19,.72,.24,.99l.18,.75h.09l.76-2.76,2.17-7.45h1.51l-3.75,11.9h-1.47l-2.7-10.37h-.07l-2.67,10.37h-1.46Z"/>
    <path d="M445.58,262.88c-.26,0-.47-.09-.64-.26-.17-.17-.25-.39-.25-.65s.09-.46,.26-.64c.17-.18,.38-.27,.64-.27s.49,.09,.66,.27c.18,.18,.26,.39,.26,.64,0,.27-.09,.48-.26,.66-.17,.17-.39,.26-.66,.26Z"/>
    <path d="M450.18,258.31v4.4h-1.35v-11.9h1.35v5.87l6.08-5.87h1.82l-5.03,4.83,5.59,7.07h-1.72l-4.84-6.17-1.89,1.77Z"/>
    <path d="M460.55,262.88c-.26,0-.47-.09-.64-.26-.17-.17-.25-.39-.25-.65s.09-.46,.26-.64c.17-.18,.38-.27,.64-.27s.49,.09,.66,.27c.17,.18,.26,.39,.26,.64,0,.27-.09,.48-.26,.66-.17,.17-.39,.26-.66,.26Z"/>
    <path d="M469.4,258.31v4.4h-1.35v-11.9h1.35v5.87l6.08-5.87h1.82l-5.03,4.83,5.59,7.07h-1.72l-4.84-6.17-1.89,1.77Z"/>
    <path d="M486.93,258.79h-7.49c.08,.98,.43,1.75,1.04,2.29,.61,.55,1.33,.82,2.16,.82,.69,0,1.28-.17,1.79-.5,.51-.33,.88-.79,1.11-1.36h1.32c-.3,.92-.83,1.64-1.57,2.16-.74,.51-1.62,.77-2.65,.77-1.26,0-2.33-.43-3.2-1.28-.86-.86-1.29-1.96-1.29-3.31s.42-2.42,1.27-3.29c.87-.87,1.94-1.3,3.21-1.3,1.16,0,2.17,.38,3.03,1.14,.88,.75,1.33,1.78,1.33,3.1,0,.34-.02,.59-.07,.76Zm-4.29-3.91c-.82,0-1.52,.25-2.09,.76-.58,.5-.93,1.19-1.06,2.07h6.28c-.1-.89-.45-1.58-1.05-2.08-.61-.5-1.3-.75-2.08-.75Z"/>
    <path d="M490.06,250.81v11.9h-1.28v-11.9h1.28Z"/>
    <path d="M493.65,250.81v11.9h-1.28v-11.9h1.28Z"/>
    <path d="M495.45,258.38c0-1.32,.43-2.4,1.29-3.26,.87-.88,1.95-1.33,3.25-1.33s2.36,.43,3.23,1.3,1.3,1.96,1.3,3.29-.44,2.43-1.3,3.3c-.86,.86-1.94,1.29-3.23,1.29s-2.38-.44-3.25-1.31-1.29-1.95-1.29-3.28Zm4.54,3.52c.92,0,1.68-.33,2.29-.99,.63-.66,.94-1.5,.94-2.53s-.31-1.87-.92-2.51c-.61-.66-1.38-.99-2.31-.99s-1.71,.33-2.33,.99c-.61,.65-.92,1.49-.92,2.51s.31,1.87,.92,2.53c.62,.66,1.4,.99,2.33,.99Z"/>
    <path d="M513.25,262.21v-1.15h-.08c-.7,1.01-1.77,1.52-3.2,1.52-1.17,0-2.16-.43-2.98-1.28-.8-.87-1.2-1.91-1.2-3.11s.39-2.23,1.17-3.1c.79-.87,1.79-1.3,3.01-1.3,1.41,0,2.48,.52,3.23,1.56h.08v-1.3h1.24v8.14c0,1.23-.37,2.19-1.1,2.89s-1.73,1.05-3,1.05c-1.11,0-2.03-.24-2.76-.71-.73-.47-1.19-1.16-1.39-2.06h1.33c.11,.54,.42,.95,.92,1.25,.51,.3,1.14,.45,1.9,.45,.89,0,1.58-.25,2.08-.74,.5-.5,.74-1.2,.74-2.11Zm.12-4.02c0-.95-.29-1.74-.88-2.36-.59-.64-1.34-.96-2.27-.96s-1.65,.32-2.26,.96c-.58,.63-.87,1.42-.87,2.36s.3,1.74,.89,2.37c.6,.64,1.35,.96,2.24,.96s1.65-.32,2.25-.96c.6-.63,.9-1.42,.9-2.37Z"/>
    <path d="M523.75,262.21v-1.15h-.08c-.7,1.01-1.77,1.52-3.2,1.52-1.17,0-2.16-.43-2.98-1.28-.8-.87-1.2-1.91-1.2-3.11s.39-2.23,1.17-3.1c.79-.87,1.79-1.3,3.01-1.3,1.41,0,2.48,.52,3.23,1.56h.08v-1.3h1.24v8.14c0,1.23-.37,2.19-1.1,2.89s-1.73,1.05-3,1.05c-1.11,0-2.03-.24-2.76-.71-.73-.47-1.19-1.16-1.39-2.06h1.33c.11,.54,.42,.95,.92,1.25,.51,.3,1.14,.45,1.9,.45,.89,0,1.58-.25,2.08-.74s.74-1.2,.74-2.11Zm.12-4.02c0-.95-.29-1.74-.88-2.36-.59-.64-1.34-.96-2.27-.96s-1.66,.32-2.26,.96c-.58,.63-.87,1.42-.87,2.36s.3,1.74,.89,2.37c.6,.64,1.35,.96,2.24,.96s1.65-.32,2.25-.96c.6-.63,.9-1.42,.9-2.37Z"/>
    <path d="M533.07,262.71h-1.35v-11.9h6.83v1.18h-5.48v4.22h4.63v1.17h-4.63v5.34Z"/>
    <path d="M539.59,258.38c0-1.32,.43-2.4,1.29-3.26,.87-.88,1.95-1.33,3.25-1.33s2.36,.43,3.23,1.3,1.3,1.96,1.3,3.29-.43,2.43-1.3,3.3-1.94,1.29-3.23,1.29-2.38-.44-3.25-1.31c-.86-.86-1.29-1.95-1.29-3.28Zm4.54,3.52c.92,0,1.68-.33,2.29-.99,.62-.66,.94-1.5,.94-2.53s-.31-1.87-.92-2.51c-.61-.66-1.38-.99-2.31-.99s-1.71,.33-2.33,.99c-.61,.65-.92,1.49-.92,2.51s.31,1.87,.92,2.53c.63,.66,1.4,.99,2.33,.99Z"/>
    <path d="M550.47,259.65v-5.6h1.28v5.52c0,.72,.18,1.29,.54,1.7s.85,.62,1.49,.62c.7,0,1.31-.27,1.85-.8,.53-.56,.8-1.21,.8-1.95v-5.08h1.28v8.67h-1.24v-1.2h-.08c-.61,.97-1.56,1.46-2.84,1.46-1,0-1.76-.29-2.28-.88-.52-.59-.78-1.4-.78-2.44Z"/>
    <path d="M560,262.71v-8.67h1.25v1.25h.08c.7-1.01,1.68-1.51,2.96-1.51,1.04,0,1.83,.29,2.37,.88s.81,1.4,.81,2.44v5.61h-1.27v-5.53c0-.72-.19-1.29-.56-1.7-.38-.41-.91-.61-1.59-.61-.74,0-1.38,.27-1.94,.81-.54,.52-.81,1.17-.81,1.94v5.08h-1.28Z"/>
    <path d="M576.96,262.71v-1.38h-.08c-.8,1.09-1.9,1.64-3.31,1.64-1.21,0-2.23-.43-3.08-1.29-.85-.86-1.27-1.96-1.27-3.3s.42-2.42,1.25-3.29c.85-.87,1.88-1.3,3.1-1.3,1.42,0,2.5,.55,3.25,1.64h.07v-4.62h1.28v11.9h-1.2Zm-3.2-.81c.91,0,1.67-.33,2.28-.99,.61-.66,.92-1.51,.92-2.53s-.31-1.85-.92-2.51c-.61-.66-1.37-.99-2.28-.99s-1.69,.33-2.32,.99c-.63,.64-.94,1.48-.94,2.51s.31,1.87,.94,2.53c.63,.66,1.4,.99,2.32,.99Z"/>
    <path d="M587.69,262.71v-1.39h-.08c-.8,1.1-1.89,1.65-3.29,1.65-1.21,0-2.23-.43-3.08-1.29-.85-.86-1.27-1.96-1.27-3.3s.42-2.42,1.25-3.29c.85-.87,1.88-1.3,3.1-1.3,1.41,0,2.48,.54,3.23,1.63h.08v-1.37h1.28v8.67h-1.22Zm-3.18-.81c.91,0,1.67-.33,2.27-.99,.62-.66,.92-1.51,.92-2.53s-.31-1.85-.92-2.51c-.61-.66-1.37-.99-2.27-.99s-1.69,.33-2.32,.99c-.62,.64-.94,1.48-.94,2.51s.31,1.87,.94,2.53c.62,.66,1.4,.99,2.32,.99Z"/>
    <path d="M592.04,260.65v-5.56h-1.5v-1.05h1.5v-2.38h1.27v2.38h2.28v1.05h-2.28v5.51c0,.43,.09,.75,.27,.95s.5,.3,.96,.3,.9-.07,1.38-.21v1.09c-.54,.14-1.05,.21-1.52,.21-.83,0-1.42-.18-1.8-.53-.37-.35-.56-.94-.56-1.75Z"/>
    <path d="M598.95,252.33c-.16,.17-.37,.26-.62,.26s-.46-.09-.63-.26c-.16-.17-.24-.38-.24-.61s.08-.44,.24-.62c.17-.17,.38-.26,.63-.26s.45,.09,.62,.26c.17,.17,.26,.38,.26,.62s-.09,.44-.26,.61Zm.03,1.72v8.67h-1.28v-8.67h1.28Z"/>
    <path d="M600.79,258.38c0-1.32,.43-2.4,1.29-3.26,.87-.88,1.95-1.33,3.25-1.33s2.36,.43,3.23,1.3,1.3,1.96,1.3,3.29-.43,2.43-1.3,3.3-1.94,1.29-3.23,1.29-2.38-.44-3.25-1.31c-.86-.86-1.29-1.95-1.29-3.28Zm4.54,3.52c.92,0,1.68-.33,2.29-.99,.63-.66,.94-1.5,.94-2.53s-.31-1.87-.92-2.51c-.61-.66-1.38-.99-2.31-.99s-1.71,.33-2.33,.99c-.61,.65-.92,1.49-.92,2.51s.31,1.87,.92,2.53c.63,.66,1.4,.99,2.33,.99Z"/>
    <path d="M611.66,262.71v-8.67h1.24v1.25h.08c.7-1.01,1.68-1.51,2.96-1.51,1.04,0,1.83,.29,2.37,.88,.54,.58,.81,1.4,.81,2.44v5.61h-1.27v-5.53c0-.72-.19-1.29-.56-1.7-.38-.41-.91-.61-1.59-.61-.74,0-1.38,.27-1.94,.81-.54,.52-.81,1.17-.81,1.94v5.08h-1.28Z"/>
  </g>
  <text class="footer-logo-text-1" style="white-space: pre;" x="195.98" y="23.667"><tspan x="195.98" y="23.667" style="font-size: 17px; word-spacing: 0px;">Our Sponsors:</tspan></text>
  <g transform="matrix(1, 0, 0, 1, 0, -178.15274)">
    <path d="M638.19,263.24h-1.3v-11.9h1.44l6.82,10.02h.07c-.03-.58-.05-1.27-.05-2.07v-7.94h1.33v11.9h-1.46l-6.82-9.94h-.07c0,.26,0,.55,.02,.88,.02,.63,.03,.99,.03,1.09v7.98Z"/>
    <path d="M656.14,263.24v-1.39h-.07c-.8,1.1-1.9,1.65-3.3,1.65-1.21,0-2.23-.43-3.08-1.29s-1.27-1.96-1.27-3.3,.42-2.42,1.25-3.29c.85-.87,1.88-1.3,3.1-1.3,1.41,0,2.48,.54,3.23,1.63h.08v-1.37h1.28v8.67h-1.22Zm-3.18-.81c.91,0,1.67-.33,2.27-.99,.61-.66,.92-1.51,.92-2.53s-.31-1.85-.92-2.51c-.61-.66-1.37-.99-2.27-.99s-1.69,.33-2.32,.99c-.62,.64-.94,1.48-.94,2.51s.31,1.87,.94,2.53c.63,.66,1.4,.99,2.32,.99Z"/>
    <path d="M660.49,261.18v-5.56h-1.5v-1.05h1.5v-2.38h1.27v2.38h2.28v1.05h-2.28v5.51c0,.43,.09,.75,.27,.95s.5,.3,.96,.3,.9-.07,1.38-.21v1.09c-.54,.14-1.05,.21-1.52,.21-.82,0-1.42-.18-1.8-.53-.37-.35-.56-.94-.56-1.75Z"/>
    <path d="M667.41,252.86c-.16,.17-.37,.26-.61,.26s-.46-.09-.63-.26c-.16-.17-.24-.38-.24-.61s.08-.44,.24-.62c.17-.17,.38-.26,.63-.26s.45,.09,.61,.26c.17,.17,.26,.38,.26,.62s-.09,.44-.26,.61Zm.03,1.72v8.67h-1.28v-8.67h1.28Z"/>
    <path d="M669.24,258.91c0-1.32,.43-2.4,1.29-3.26,.87-.88,1.95-1.33,3.25-1.33s2.36,.43,3.23,1.3c.87,.87,1.3,1.96,1.3,3.29s-.43,2.43-1.3,3.3-1.94,1.29-3.23,1.29-2.38-.44-3.25-1.31c-.86-.86-1.29-1.95-1.29-3.28Zm4.54,3.52c.92,0,1.68-.33,2.29-.99,.62-.66,.94-1.5,.94-2.53s-.31-1.87-.92-2.51c-.61-.66-1.38-.99-2.31-.99s-1.71,.33-2.33,.99c-.61,.65-.92,1.49-.92,2.51s.31,1.87,.92,2.53c.63,.66,1.4,.99,2.33,.99Z"/>
    <path d="M680.11,263.24v-8.67h1.25v1.25h.08c.7-1.01,1.68-1.51,2.96-1.51,1.04,0,1.83,.29,2.37,.88,.54,.58,.81,1.4,.81,2.44v5.61h-1.27v-5.53c0-.72-.19-1.29-.56-1.7-.38-.41-.91-.61-1.59-.61-.74,0-1.38,.27-1.94,.81-.54,.52-.81,1.17-.81,1.94v5.08h-1.28Z"/>
    <path d="M697.1,263.24v-1.39h-.07c-.8,1.1-1.9,1.65-3.3,1.65-1.21,0-2.23-.43-3.08-1.29s-1.27-1.96-1.27-3.3,.42-2.42,1.25-3.29c.85-.87,1.88-1.3,3.1-1.3,1.41,0,2.48,.54,3.23,1.63h.08v-1.37h1.28v8.67h-1.22Zm-3.18-.81c.91,0,1.67-.33,2.27-.99,.61-.66,.92-1.51,.92-2.53s-.31-1.85-.92-2.51c-.61-.66-1.37-.99-2.27-.99s-1.69,.33-2.32,.99c-.62,.64-.94,1.48-.94,2.51s.31,1.87,.94,2.53c.63,.66,1.4,.99,2.32,.99Z"/>
    <path d="M701.9,251.34v11.9h-1.28v-11.9h1.28Z"/>
    <path d="M709.96,251.34v11.9h-1.35v-11.9h1.35Z"/>
    <path d="M712.4,263.24v-8.67h1.25v1.25h.08c.7-1.01,1.68-1.51,2.96-1.51,1.04,0,1.83,.29,2.37,.88,.54,.58,.81,1.4,.81,2.44v5.61h-1.27v-5.53c0-.72-.19-1.29-.56-1.7-.38-.41-.91-.61-1.59-.61-.74,0-1.38,.27-1.94,.81-.54,.52-.81,1.17-.81,1.94v5.08h-1.28Z"/>
    <path d="M725.35,259.38l-1.43-.39c-.64-.16-1.15-.42-1.53-.79-.38-.37-.56-.86-.56-1.45,0-.7,.28-1.28,.83-1.74s1.29-.69,2.22-.69c.82,0,1.55,.21,2.17,.63,.64,.42,.97,1.04,.99,1.88h-1.25c-.02-.46-.21-.82-.58-1.07-.36-.25-.8-.37-1.32-.37s-.98,.12-1.3,.37c-.32,.24-.49,.57-.49,.98,0,.33,.12,.59,.36,.78,.24,.19,.59,.34,1.07,.45l1.51,.44c.8,.18,1.4,.46,1.81,.84,.41,.38,.62,.91,.62,1.59,0,.79-.3,1.43-.9,1.92-.6,.49-1.41,.74-2.43,.74s-1.81-.24-2.46-.73c-.65-.48-1-1.24-1.05-2.28h1.25c0,.63,.22,1.11,.63,1.44s.96,.5,1.63,.5,1.16-.14,1.51-.43c.36-.29,.54-.66,.54-1.12,0-.41-.15-.72-.44-.94-.29-.22-.76-.4-1.42-.56Z"/>
    <path d="M731.06,261.18v-5.56h-1.5v-1.05h1.5v-2.38h1.27v2.38h2.28v1.05h-2.28v5.51c0,.43,.09,.75,.27,.95s.5,.3,.96,.3,.9-.07,1.38-.21v1.09c-.54,.14-1.05,.21-1.52,.21-.82,0-1.42-.18-1.8-.53-.37-.35-.56-.94-.56-1.75Z"/>
    <path d="M737.98,252.86c-.16,.17-.37,.26-.61,.26s-.46-.09-.63-.26c-.16-.17-.24-.38-.24-.61s.08-.44,.24-.62c.17-.17,.38-.26,.63-.26s.45,.09,.61,.26c.17,.17,.26,.38,.26,.62s-.09,.44-.26,.61Zm.03,1.72v8.67h-1.28v-8.67h1.28Z"/>
    <path d="M741.14,261.18v-5.56h-1.5v-1.05h1.5v-2.38h1.27v2.38h2.28v1.05h-2.28v5.51c0,.43,.09,.75,.27,.95s.5,.3,.96,.3,.9-.07,1.38-.21v1.09c-.54,.14-1.05,.21-1.52,.21-.82,0-1.42-.18-1.8-.53-.37-.35-.56-.94-.56-1.75Z"/>
    <path d="M746.81,260.18v-5.6h1.28v5.52c0,.72,.18,1.29,.54,1.7,.36,.41,.85,.62,1.49,.62,.7,0,1.31-.27,1.85-.8,.53-.56,.8-1.21,.8-1.95v-5.08h1.28v8.67h-1.25v-1.2h-.08c-.61,.97-1.56,1.46-2.84,1.46-1,0-1.76-.29-2.28-.88-.52-.59-.78-1.4-.78-2.44Z"/>
    <path d="M757.16,261.18v-5.56h-1.5v-1.05h1.5v-2.38h1.27v2.38h2.28v1.05h-2.28v5.51c0,.43,.09,.75,.27,.95s.5,.3,.96,.3,.9-.07,1.38-.21v1.09c-.54,.14-1.05,.21-1.52,.21-.82,0-1.42-.18-1.8-.53-.37-.35-.56-.94-.56-1.75Z"/>
    <path d="M771.1,259.32h-7.49c.08,.98,.43,1.75,1.04,2.29,.61,.55,1.33,.82,2.16,.82,.69,0,1.28-.17,1.79-.5,.51-.33,.88-.79,1.11-1.36h1.32c-.3,.92-.83,1.64-1.57,2.16-.74,.51-1.62,.77-2.65,.77-1.26,0-2.33-.43-3.2-1.28-.86-.86-1.29-1.96-1.29-3.31s.42-2.42,1.27-3.29c.87-.87,1.94-1.3,3.21-1.3,1.16,0,2.17,.38,3.03,1.14,.88,.75,1.33,1.78,1.33,3.1,0,.34-.02,.59-.07,.76Zm-4.29-3.91c-.82,0-1.52,.25-2.09,.76-.58,.5-.93,1.19-1.06,2.07h6.28c-.1-.89-.45-1.58-1.05-2.08-.61-.5-1.3-.75-2.08-.75Z"/>
    <path d="M776.7,258.91c0-1.32,.43-2.4,1.29-3.26,.87-.88,1.95-1.33,3.25-1.33s2.36,.43,3.23,1.3c.87,.87,1.3,1.96,1.3,3.29s-.43,2.43-1.3,3.3-1.94,1.29-3.23,1.29-2.38-.44-3.25-1.31c-.86-.86-1.29-1.95-1.29-3.28Zm4.54,3.52c.92,0,1.68-.33,2.29-.99,.62-.66,.94-1.5,.94-2.53s-.31-1.87-.92-2.51c-.61-.66-1.38-.99-2.31-.99s-1.71,.33-2.33,.99c-.61,.65-.92,1.49-.92,2.51s.31,1.87,.92,2.53c.63,.66,1.4,.99,2.33,.99Z"/>
    <path d="M787.58,263.24v-8.67h1.25v1.25h.08c.7-1.01,1.68-1.51,2.96-1.51,1.04,0,1.83,.29,2.37,.88,.54,.58,.81,1.4,.81,2.44v5.61h-1.27v-5.53c0-.72-.19-1.29-.56-1.7-.38-.41-.91-.61-1.59-.61-.74,0-1.38,.27-1.94,.81-.54,.52-.81,1.17-.81,1.94v5.08h-1.28Z"/>
    <path d="M803.26,260.05l-1.25,3.2h-1.48l4.71-11.9h1.56l4.72,11.9h-1.48l-1.25-3.2h-5.54Zm1.87-4.85l-1.43,3.68h4.66l-1.43-3.69c-.35-.93-.64-1.71-.85-2.32h-.08c-.13,.43-.42,1.21-.87,2.34Z"/>
    <path d="M819.72,262.74v-1.15h-.08c-.7,1.01-1.77,1.52-3.2,1.52-1.17,0-2.16-.43-2.98-1.28-.8-.87-1.2-1.91-1.2-3.11s.39-2.23,1.17-3.1c.79-.87,1.79-1.3,3.01-1.3,1.41,0,2.48,.52,3.23,1.56h.08v-1.3h1.24v8.14c0,1.23-.37,2.19-1.1,2.89s-1.73,1.05-3,1.05c-1.11,0-2.03-.24-2.76-.71-.73-.47-1.19-1.16-1.39-2.06h1.33c.11,.54,.42,.95,.93,1.25,.51,.3,1.14,.45,1.9,.45,.89,0,1.58-.25,2.08-.74s.74-1.2,.74-2.11Zm.12-4.02c0-.95-.29-1.74-.88-2.36-.59-.64-1.34-.96-2.27-.96s-1.65,.32-2.26,.96c-.58,.63-.87,1.42-.87,2.36s.3,1.74,.89,2.37c.6,.64,1.35,.96,2.24,.96s1.65-.32,2.25-.96c.6-.63,.9-1.42,.9-2.37Z"/>
    <path d="M824.54,252.86c-.16,.17-.37,.26-.61,.26s-.46-.09-.63-.26c-.16-.17-.24-.38-.24-.61s.08-.44,.24-.62c.17-.17,.38-.26,.63-.26s.45,.09,.61,.26c.17,.17,.26,.38,.26,.62s-.09,.44-.26,.61Zm.03,1.72v8.67h-1.28v-8.67h1.28Z"/>
    <path d="M826.88,263.24v-8.67h1.24v1.25h.08c.7-1.01,1.68-1.51,2.96-1.51,1.04,0,1.83,.29,2.37,.88,.54,.58,.81,1.4,.81,2.44v5.61h-1.27v-5.53c0-.72-.19-1.29-.56-1.7-.38-.41-.91-.61-1.59-.61-.74,0-1.38,.27-1.94,.81-.54,.52-.81,1.17-.81,1.94v5.08h-1.28Z"/>
    <path d="M843.57,262.74v-1.15h-.08c-.7,1.01-1.77,1.52-3.2,1.52-1.17,0-2.16-.43-2.98-1.28-.8-.87-1.2-1.91-1.2-3.11s.39-2.23,1.17-3.1c.79-.87,1.79-1.3,3.01-1.3,1.41,0,2.48,.52,3.23,1.56h.08v-1.3h1.24v8.14c0,1.23-.37,2.19-1.1,2.89s-1.73,1.05-3,1.05c-1.11,0-2.03-.24-2.76-.71-.73-.47-1.19-1.16-1.39-2.06h1.33c.11,.54,.42,.95,.93,1.25,.51,.3,1.14,.45,1.9,.45,.89,0,1.58-.25,2.08-.74s.74-1.2,.74-2.11Zm.12-4.02c0-.95-.29-1.74-.88-2.36-.59-.64-1.34-.96-2.27-.96s-1.65,.32-2.26,.96c-.58,.63-.87,1.42-.87,2.36s.3,1.74,.89,2.37c.6,.64,1.35,.96,2.24,.96s1.65-.32,2.25-.96c.6-.63,.9-1.42,.9-2.37Z"/>
  </g>
  <g transform="matrix(1, 0, 0, 1, 0, -178.15274)">
    <path d="M199.87,263.24l-3.76-11.9h1.5l2.19,7.46,.76,2.74h.08l.39-1.69,2.25-8.52h1.53l2.21,8.47c.11,.39,.19,.72,.24,.99l.18,.75h.09l.76-2.76,2.18-7.45h1.51l-3.75,11.9h-1.47l-2.7-10.37h-.07l-2.67,10.37h-1.46Z"/>
    <path d="M212.43,258.91c0-1.32,.43-2.4,1.29-3.26,.87-.89,1.95-1.33,3.25-1.33s2.36,.43,3.23,1.3c.87,.87,1.3,1.96,1.3,3.29s-.43,2.43-1.3,3.3-1.94,1.29-3.23,1.29-2.38-.44-3.25-1.31c-.86-.86-1.29-1.95-1.29-3.28Zm4.54,3.52c.92,0,1.68-.33,2.29-.99,.63-.66,.94-1.5,.94-2.53s-.31-1.87-.92-2.51c-.61-.66-1.38-.99-2.31-.99s-1.71,.33-2.33,.99c-.61,.65-.92,1.49-.92,2.51s.31,1.87,.92,2.53c.62,.66,1.4,.99,2.33,.99Z"/>
    <path d="M222.8,258.91c0-1.32,.43-2.4,1.29-3.26,.87-.89,1.95-1.33,3.25-1.33s2.36,.43,3.23,1.3c.87,.87,1.3,1.96,1.3,3.29s-.43,2.43-1.3,3.3-1.94,1.29-3.23,1.29-2.38-.44-3.25-1.31c-.86-.86-1.29-1.95-1.29-3.28Zm4.54,3.52c.92,0,1.68-.33,2.29-.99,.63-.66,.94-1.5,.94-2.53s-.31-1.87-.92-2.51c-.61-.66-1.38-.99-2.31-.99s-1.71,.33-2.33,.99c-.61,.65-.92,1.49-.92,2.51s.31,1.87,.92,2.53c.62,.66,1.4,.99,2.33,.99Z"/>
    <path d="M240.87,263.24v-1.38h-.08c-.8,1.09-1.9,1.64-3.31,1.64-1.21,0-2.23-.43-3.08-1.29-.85-.86-1.27-1.96-1.27-3.3s.42-2.42,1.25-3.29c.85-.87,1.88-1.3,3.1-1.3,1.42,0,2.5,.55,3.25,1.64h.07v-4.62h1.28v11.9h-1.2Zm-3.2-.81c.91,0,1.67-.33,2.28-.99,.61-.66,.92-1.51,.92-2.53s-.31-1.85-.92-2.51c-.61-.66-1.37-.99-2.28-.99s-1.69,.33-2.32,.99c-.62,.64-.94,1.48-.94,2.51s.31,1.87,.94,2.53c.62,.66,1.4,.99,2.32,.99Z"/>
    <path d="M248,259.77v-.34h1.36v.37c0,.85,.22,1.49,.67,1.93,.45,.44,1.04,.66,1.76,.66s1.31-.24,1.76-.71c.45-.47,.67-1.13,.67-1.96v-8.38h1.36v8.35c0,1.2-.33,2.14-1,2.83-.67,.69-1.6,1.03-2.79,1.03s-2.08-.33-2.77-1c-.68-.67-1.02-1.59-1.02-2.78Z"/>
    <path d="M257.39,258.91c0-1.32,.43-2.4,1.29-3.26,.87-.89,1.95-1.33,3.25-1.33s2.36,.43,3.23,1.3c.87,.87,1.3,1.96,1.3,3.29s-.43,2.43-1.3,3.3-1.94,1.29-3.23,1.29-2.38-.44-3.25-1.31c-.86-.86-1.29-1.95-1.29-3.28Zm4.54,3.52c.92,0,1.68-.33,2.29-.99,.63-.66,.94-1.5,.94-2.53s-.31-1.87-.92-2.51c-.61-.66-1.38-.99-2.31-.99s-1.71,.33-2.33,.99c-.61,.65-.92,1.49-.92,2.51s.31,1.87,.92,2.53c.62,.66,1.4,.99,2.33,.99Z"/>
    <path d="M269.54,263.24h-1.28v-11.9h1.28v4.49h.08c.66-1.01,1.64-1.51,2.94-1.51,1.04,0,1.83,.29,2.36,.87s.8,1.39,.8,2.44v5.61h-1.27v-5.53c0-.72-.19-1.29-.56-1.7-.38-.41-.91-.61-1.59-.61-.74,0-1.38,.27-1.94,.81-.54,.52-.81,1.17-.81,1.94v5.08Z"/>
    <path d="M278.03,263.24v-8.67h1.24v1.25h.08c.7-1.01,1.68-1.51,2.96-1.51,1.04,0,1.83,.29,2.37,.88,.54,.58,.81,1.4,.81,2.44v5.61h-1.27v-5.53c0-.72-.19-1.29-.56-1.7-.38-.41-.91-.61-1.59-.61-.74,0-1.38,.27-1.94,.81-.54,.52-.81,1.17-.81,1.94v5.08h-1.28Z"/>
    <path d="M290.98,259.38l-1.43-.39c-.64-.15-1.15-.42-1.53-.79-.38-.37-.56-.86-.56-1.45,0-.7,.28-1.28,.83-1.74,.55-.46,1.29-.69,2.22-.69,.83,0,1.55,.21,2.18,.63,.64,.42,.97,1.04,.99,1.88h-1.25c-.02-.46-.21-.82-.58-1.07s-.8-.37-1.32-.37-.98,.12-1.3,.37c-.32,.24-.49,.57-.49,.98,0,.33,.12,.59,.36,.78,.24,.19,.59,.34,1.07,.45l1.51,.44c.8,.18,1.4,.46,1.81,.84,.41,.38,.62,.91,.62,1.59,0,.79-.3,1.43-.9,1.92-.6,.49-1.41,.74-2.43,.74s-1.81-.24-2.47-.73c-.65-.48-1-1.24-1.05-2.28h1.25c0,.63,.22,1.11,.64,1.44s.96,.5,1.63,.5,1.16-.14,1.51-.43c.36-.28,.54-.66,.54-1.12,0-.41-.14-.72-.44-.94-.29-.22-.76-.4-1.42-.56Z"/>
    <path d="M295.37,258.91c0-1.32,.43-2.4,1.29-3.26,.87-.89,1.95-1.33,3.25-1.33s2.36,.43,3.23,1.3c.87,.87,1.3,1.96,1.3,3.29s-.43,2.43-1.3,3.3-1.94,1.29-3.23,1.29-2.38-.44-3.25-1.31c-.86-.86-1.29-1.95-1.29-3.28Zm4.54,3.52c.92,0,1.68-.33,2.29-.99,.63-.66,.94-1.5,.94-2.53s-.31-1.87-.92-2.51c-.61-.66-1.38-.99-2.31-.99s-1.71,.33-2.33,.99c-.61,.65-.92,1.49-.92,2.51s.31,1.87,.92,2.53c.62,.66,1.4,.99,2.33,.99Z"/>
    <path d="M306.24,263.24v-8.67h1.24v1.25h.08c.7-1.01,1.68-1.51,2.96-1.51,1.04,0,1.83,.29,2.37,.88,.54,.58,.81,1.4,.81,2.44v5.61h-1.27v-5.53c0-.72-.19-1.29-.56-1.7-.38-.41-.91-.61-1.59-.61-.74,0-1.38,.27-1.94,.81-.54,.52-.81,1.17-.81,1.94v5.08h-1.28Z"/>
    <path d="M321.75,263.24h-1.35v-11.9h6.83v1.18h-5.48v4.22h4.63v1.17h-4.63v5.34Z"/>
    <path d="M328.28,258.91c0-1.32,.43-2.4,1.29-3.26,.87-.89,1.95-1.33,3.25-1.33s2.36,.43,3.23,1.3c.87,.87,1.3,1.96,1.3,3.29s-.43,2.43-1.3,3.3-1.94,1.29-3.23,1.29-2.38-.44-3.25-1.31c-.86-.86-1.29-1.95-1.29-3.28Zm4.54,3.52c.92,0,1.68-.33,2.29-.99,.63-.66,.94-1.5,.94-2.53s-.31-1.87-.92-2.51c-.61-.66-1.38-.99-2.31-.99s-1.71,.33-2.33,.99c-.61,.65-.92,1.49-.92,2.51s.31,1.87,.92,2.53c.62,.66,1.4,.99,2.33,.99Z"/>
    <path d="M339.15,260.18v-5.6h1.28v5.52c0,.72,.18,1.29,.54,1.7,.36,.41,.85,.62,1.49,.62,.7,0,1.31-.27,1.85-.8,.53-.56,.8-1.21,.8-1.95v-5.08h1.28v8.67h-1.25v-1.2h-.08c-.61,.97-1.56,1.46-2.84,1.46-1,0-1.76-.29-2.28-.88-.52-.59-.78-1.4-.78-2.44Z"/>
    <path d="M348.68,263.24v-8.67h1.24v1.25h.08c.7-1.01,1.68-1.51,2.96-1.51,1.04,0,1.83,.29,2.37,.88,.54,.58,.81,1.4,.81,2.44v5.61h-1.27v-5.53c0-.72-.19-1.29-.56-1.7-.38-.41-.91-.61-1.59-.61-.74,0-1.38,.27-1.94,.81-.54,.52-.81,1.17-.81,1.94v5.08h-1.28Z"/>
    <path d="M365.65,263.24v-1.38h-.08c-.8,1.09-1.9,1.64-3.31,1.64-1.21,0-2.23-.43-3.08-1.29-.85-.86-1.27-1.96-1.27-3.3s.42-2.42,1.25-3.29c.85-.87,1.88-1.3,3.1-1.3,1.42,0,2.5,.55,3.25,1.64h.07v-4.62h1.28v11.9h-1.2Zm-3.2-.81c.91,0,1.67-.33,2.28-.99,.61-.66,.92-1.51,.92-2.53s-.31-1.85-.92-2.51c-.61-.66-1.37-.99-2.28-.99s-1.69,.33-2.32,.99c-.62,.64-.94,1.48-.94,2.51s.31,1.87,.94,2.53c.62,.66,1.4,.99,2.32,.99Z"/>
    <path d="M376.37,263.24v-1.39h-.07c-.8,1.1-1.9,1.65-3.3,1.65-1.21,0-2.23-.43-3.08-1.29-.85-.86-1.27-1.96-1.27-3.3s.42-2.42,1.25-3.29c.85-.87,1.88-1.3,3.1-1.3,1.41,0,2.48,.54,3.23,1.63h.08v-1.37h1.28v8.67h-1.22Zm-3.18-.81c.91,0,1.67-.33,2.28-.99,.61-.66,.92-1.51,.92-2.53s-.31-1.85-.92-2.51c-.61-.66-1.37-.99-2.28-.99s-1.69,.33-2.32,.99c-.62,.64-.94,1.48-.94,2.51s.31,1.87,.94,2.53c.62,.66,1.4,.99,2.32,.99Z"/>
    <path d="M380.72,261.18v-5.56h-1.5v-1.05h1.5v-2.38h1.27v2.38h2.28v1.05h-2.28v5.51c0,.43,.09,.75,.27,.95s.5,.3,.96,.3,.9-.07,1.38-.21v1.09c-.54,.14-1.05,.21-1.52,.21-.82,0-1.42-.18-1.8-.53-.37-.35-.56-.94-.56-1.75Z"/>
    <path d="M387.64,252.86c-.16,.17-.37,.26-.61,.26s-.46-.09-.63-.26c-.16-.17-.24-.38-.24-.61s.08-.44,.24-.61c.17-.17,.38-.26,.63-.26s.45,.09,.61,.26c.17,.17,.26,.38,.26,.61s-.09,.44-.26,.61Zm.03,1.72v8.67h-1.28v-8.67h1.28Z"/>
    <path d="M389.47,258.91c0-1.32,.43-2.4,1.29-3.26,.87-.89,1.95-1.33,3.25-1.33s2.36,.43,3.23,1.3c.87,.87,1.3,1.96,1.3,3.29s-.43,2.43-1.3,3.3-1.94,1.29-3.23,1.29-2.38-.44-3.25-1.31c-.86-.86-1.29-1.95-1.29-3.28Zm4.54,3.52c.92,0,1.68-.33,2.29-.99,.63-.66,.94-1.5,.94-2.53s-.31-1.87-.92-2.51c-.61-.66-1.38-.99-2.31-.99s-1.71,.33-2.33,.99c-.61,.65-.92,1.49-.92,2.51s.31,1.87,.92,2.53c.62,.66,1.4,.99,2.33,.99Z"/>
    <path d="M400.35,263.24v-8.67h1.24v1.25h.08c.7-1.01,1.68-1.51,2.96-1.51,1.04,0,1.83,.29,2.37,.88,.54,.58,.81,1.4,.81,2.44v5.61h-1.27v-5.53c0-.72-.19-1.29-.56-1.7-.38-.41-.91-.61-1.59-.61-.74,0-1.38,.27-1.94,.81-.54,.52-.81,1.17-.81,1.94v5.08h-1.28Z"/>
  </g>
  <text class="footer-logo-text-3" style="white-space: pre;" x="414.02" y="85.087"><tspan x="414.02" y="85.087" style="font-size: 17px; word-spacing: 0px;"></tspan></text>
  <text class="footer-logo-text-3" style="white-space: pre;" x="625.02" y="84.557"><tspan x="625.02" y="84.557" style="font-size: 17px; word-spacing: 0px;"></tspan></text>
  <g transform="matrix(1, 0, 0, 1, 0, -178.15274)">
    <path d="M817.72,224.38v-1.2h9.1v1.2h-3.88v10.71h-1.36v-10.71h-3.86Z"/>
    <path d="M829.58,235.09h-1.28v-11.9h1.28v4.49h.08c.66-1.01,1.64-1.51,2.94-1.51,1.04,0,1.83,.29,2.36,.87,.53,.58,.8,1.39,.8,2.44v5.61h-1.27v-5.53c0-.72-.19-1.29-.56-1.7-.38-.41-.91-.61-1.59-.61-.74,0-1.38,.27-1.94,.81-.54,.52-.81,1.17-.81,1.94v5.08Z"/>
    <path d="M846.34,231.17h-7.49c.08,.98,.43,1.75,1.04,2.29,.61,.55,1.33,.82,2.16,.82,.69,0,1.28-.17,1.79-.5,.51-.33,.88-.79,1.11-1.36h1.32c-.3,.92-.83,1.64-1.57,2.16-.74,.51-1.62,.77-2.65,.77-1.26,0-2.33-.43-3.2-1.28-.86-.86-1.29-1.96-1.29-3.31s.42-2.42,1.27-3.29c.87-.87,1.94-1.3,3.21-1.3,1.16,0,2.17,.38,3.03,1.14,.88,.75,1.33,1.78,1.33,3.1,0,.34-.02,.59-.07,.76Zm-4.29-3.91c-.82,0-1.52,.25-2.09,.76-.58,.5-.93,1.19-1.06,2.07h6.28c-.1-.89-.45-1.58-1.05-2.08-.61-.5-1.3-.75-2.08-.75Z"/>
    <path d="M853.94,235.09h-1.35v-11.9h4.72c1.1,0,1.96,.31,2.58,.92,.63,.61,.94,1.41,.94,2.39,0,1.41-.7,2.33-2.11,2.79v.07c1.26,.27,1.88,1.16,1.88,2.66s.19,2.47,.58,3.08h-1.43c-.34-.67-.53-1.61-.55-2.82,0-.28-.02-.53-.05-.74-.03-.21-.1-.43-.2-.65-.1-.22-.24-.41-.4-.55-.17-.14-.4-.25-.69-.34s-.64-.12-1.04-.11h-2.88v5.21Zm3.22-10.72h-3.22v4.35h3.22c.69,0,1.25-.2,1.66-.61,.42-.41,.63-.93,.63-1.56s-.21-1.16-.61-1.56c-.41-.41-.97-.61-1.68-.61Z"/>
    <path d="M862.28,230.76c0-1.32,.43-2.4,1.29-3.26,.87-.88,1.95-1.33,3.25-1.33s2.36,.43,3.23,1.3c.87,.87,1.3,1.96,1.3,3.29s-.43,2.43-1.3,3.3c-.86,.86-1.94,1.29-3.23,1.29s-2.38-.44-3.25-1.31-1.29-1.95-1.29-3.28Zm4.54,3.52c.92,0,1.68-.33,2.29-.99,.63-.66,.94-1.5,.94-2.53s-.31-1.87-.92-2.51c-.61-.66-1.38-.99-2.31-.99s-1.71,.33-2.33,.99c-.61,.65-.92,1.49-.92,2.51s.31,1.87,.92,2.53c.62,.66,1.4,.99,2.33,.99Z"/>
    <path d="M874.36,235.09h-1.21v-11.9h1.28v4.62h.07c.74-1.1,1.82-1.64,3.25-1.64,1.2,0,2.23,.43,3.08,1.3,.85,.87,1.28,1.96,1.28,3.29s-.43,2.43-1.29,3.3c-.85,.86-1.87,1.29-3.06,1.29-1.39,0-2.5-.55-3.31-1.65h-.07v1.39Zm.9-6.85c-.61,.66-.91,1.5-.91,2.51s.3,1.87,.91,2.53c.62,.66,1.39,.99,2.3,.99s1.67-.33,2.29-.99c.63-.66,.94-1.5,.94-2.53s-.31-1.87-.94-2.51c-.62-.66-1.39-.99-2.29-.99s-1.67,.33-2.3,.99Z"/>
    <path d="M892.12,231.17h-7.49c.08,.98,.43,1.75,1.04,2.29,.61,.55,1.33,.82,2.16,.82,.69,0,1.28-.17,1.79-.5,.51-.33,.88-.79,1.11-1.36h1.32c-.3,.92-.83,1.64-1.57,2.16-.74,.51-1.62,.77-2.65,.77-1.26,0-2.33-.43-3.2-1.28-.86-.86-1.29-1.96-1.29-3.31s.42-2.42,1.27-3.29c.87-.87,1.94-1.3,3.21-1.3,1.16,0,2.17,.38,3.03,1.14,.88,.75,1.33,1.78,1.33,3.1,0,.34-.02,.59-.07,.76Zm-4.29-3.91c-.82,0-1.52,.25-2.09,.76-.58,.5-.93,1.19-1.06,2.07h6.28c-.1-.89-.45-1.58-1.05-2.08-.61-.5-1.3-.75-2.08-.75Z"/>
    <path d="M895.26,231.69v3.4h-1.28v-8.67h1.21v2.17h.07c.37-.75,.9-1.32,1.62-1.73s1.51-.62,2.37-.66v1.25c-1.15,.02-2.1,.37-2.86,1.05-.76,.68-1.14,1.73-1.14,3.16Z"/>
    <path d="M901.59,233.03v-5.56h-1.5v-1.05h1.5v-2.38h1.27v2.38h2.28v1.05h-2.28v5.51c0,.43,.09,.75,.27,.95s.5,.3,.95,.3,.9-.07,1.38-.21v1.09c-.54,.14-1.05,.21-1.52,.21-.83,0-1.42-.18-1.8-.53-.37-.35-.56-.94-.56-1.75Z"/>
  </g>
</svg>