<svg id="logo_white" data-name="logo_white" xmlns="http://www.w3.org/2000/svg" viewBox="0 0 267.1 87.16">
    <defs>
        <style>.logowhite-1{fill:#ffffff;}.logowhite-2{fill:#ffffff;}.logowhite-3{fill:#ffffff;}.logowhite-4{fill:#ffffff;}.logowhite-5{fill:#ffffff;}.logowhite-6{fill:#ffffff;fill-opacity:0.8;}</style>
    </defs>
    <path class="logowhite-1" d="M73.64,56.41h0A20.31,20.31,0,0,0,53.36,76.69a2.53,2.53,0,0,0,0,.28h6.86a2.53,2.53,0,0,1,0-.28A13.43,13.43,0,0,1,73.64,63.27h0A13.44,13.44,0,0,1,87.07,76.69a2.53,2.53,0,0,1,0,.28A13.43,13.43,0,0,1,73.64,90.12V97A20.3,20.3,0,0,0,93.92,77c0-.09,0-.18,0-.28A20.31,20.31,0,0,0,73.64,56.41Z" transform="translate(-30.09 -33.14)" />
    <path class="logowhite-2" d="M129.51,77.36c0-13.77,10-23.76,23.58-23.76s19.43,8.29,19.43,12.54c0,3.86-5.29,4.62-5.57,4.15-2.07-5-5.94-8.87-13.67-8.87-8.49,0-14.9,6.7-14.9,15.94s6.31,16.13,14.9,16.13c7.64,0,11.6-3.87,13.67-8.87.28-.47,5.57.19,5.57,4.25s-6,12.44-19.43,12.44C139.41,101.31,129.51,91.32,129.51,77.36Z" transform="translate(-30.09 -33.14)" />
    <path class="logowhite-2" d="M178.17,77.64c0-13.76,9.81-24,23.2-24,13.11,0,21.79,9.24,21.79,22.82v.75c0,2-.66,2.74-2.83,2.74H186.85c.66,8.39,6.88,14,15.47,14,7.92,0,11.88-3.49,14.24-7.55.18-.18,4.9.66,4.9,4.63s-7,10.27-19.33,10.27C187.79,101.31,178.17,91.79,178.17,77.64Zm8.77-4H214.1c-.47-7.83-5.28-12.92-12.82-12.92S188.07,66,186.94,73.59Z" transform="translate(-30.09 -33.14)" />
    <path class="logowhite-2" d="M231.36,39.83c0-3.4,2.07-5.28,5.66-5.28s5.47,1.88,5.47,5.28-2,5.18-5.57,5.18S231.36,43.13,231.36,39.83Zm.85,56.2V58.78c0-3.39,1.79-4.52,4.24-4.52h1c2.45,0,4.15,1,4.15,4.52V96c0,3.4-1.7,4.44-4.15,4.44h-1C234,100.47,232.21,99.43,232.21,96Z" transform="translate(-30.09 -33.14)" />
    <path class="logowhite-2" d="M250.79,77.46c0-14.34,9-23.86,21.5-23.86,7.35,0,12.92,3.39,15.56,7.45V36.34c0-.29,1.6-1,3.39-1,2.93,0,5.95,1.51,5.95,8V96c0,3.4-1.7,4.44-4.15,4.44h-1c-2.45,0-4.15-1-4.15-4.44V92.54c-3.58,5.47-8.77,8.77-15.93,8.77C259.84,101.31,250.79,91.79,250.79,77.46Zm37.15,2.82V70.67c-2.35-5.76-7-9.34-13.95-9.34-8.49,0-14.15,6.41-14.15,16.13,0,9.43,5.85,16.12,14,16.12C281.34,93.58,287.94,88,287.94,80.28Z" transform="translate(-30.09 -33.14)" />
    <path class="logowhite-3" d="M49.22,77H41.88a31.6,31.6,0,0,0,6,18.29l6-4.24A24.3,24.3,0,0,1,49.22,77Z" transform="translate(-30.09 -33.14)" />
    <path class="logowhite-4" d="M73.64,44.92v7.34A24.45,24.45,0,0,1,98.07,76.69V77a24.45,24.45,0,0,1-24.43,24.13h0a24.33,24.33,0,0,1-18-8L50.15,98a31.67,31.67,0,0,0,23.49,10.44h0A31.81,31.81,0,0,0,105.41,77c0-.1,0-.2,0-.3A31.81,31.81,0,0,0,73.64,44.92Z" transform="translate(-30.09 -33.14)" />
    <path class="logowhite-5" d="M73.64,40.85h0V33.14h0a43.48,43.48,0,0,0-33,15.19l5.9,5A35.73,35.73,0,0,1,73.64,40.85Z" transform="translate(-30.09 -33.14)" />
    <path class="logowhite-6" d="M109.48,77a35.89,35.89,0,0,1-35.84,35.54h0a35.73,35.73,0,0,1-26.81-12.11c-.47-.53-.92-1.06-1.35-1.61A35.68,35.68,0,0,1,37.81,77v-.3a35.7,35.7,0,0,1,7-21.23l-6.41-4.28a43.24,43.24,0,0,0-8.29,25.51V77a43.33,43.33,0,0,0,9.27,26.51c.53.67,1.07,1.33,1.64,2a43.42,43.42,0,0,0,32.64,14.77h0A43.61,43.61,0,0,0,117.2,77Z" transform="translate(-30.09 -33.14)" />
</svg>