<svg width="180" height="54" viewBox="0 0 180 54" fill="none" xmlns="http://www.w3.org/2000/svg">
<path d="M16.3702 32.3793C5.64229 17.0557 15.7941 11.5953 19.1465 11.5953C23.7633 11.3181 33.1839 14.2267 24.4963 32.4632C23.9213 33.6703 22.4916 34.2593 21.1577 34.1661C19.1652 34.0269 16.7526 34.3019 16.7526 35.9228C16.7526 37.4159 21.3251 37.685 22.0224 37.7173C22.0837 37.7202 22.1416 37.7197 22.2028 37.7238C22.3974 37.7369 22.8727 37.806 23.3452 38.1604C24.3101 38.8841 23.7545 40.6957 22.3027 41.2638C20.0999 42.1258 17.2267 41.0723 15.9817 39.8272" stroke="#7AA4CD" stroke-width="1.33711" stroke-linecap="round"/>
<rect x="14.8301" y="23.5508" width="1.34081" height="9.54525" rx="0.670406" transform="rotate(-29.0422 14.8301 23.5508)" fill="#7AA4CD"/>
<rect x="23.5977" y="22.875" width="1.34081" height="9.54525" rx="0.670406" transform="rotate(29.3904 23.5977 22.875)" fill="#7AA4CD"/>
<path d="M46.7027 21.6633L48.4616 16.3117H50.2018L47.501 23.5781H46.291L46.7027 21.6633ZM44.8003 16.3117L46.528 21.6446L46.9646 23.5781H45.7421L43.0539 16.3117H44.8003ZM54.1345 16.3117V23.5781H52.4816V16.3117H54.1345ZM60.6245 16.3117V23.5781H58.9716V16.3117H60.6245ZM63.0196 16.3117V17.6153H56.6201V16.3117H63.0196ZM68.4679 18.002L66.4096 23.5781H64.738L67.6384 16.3117H68.7611L68.4679 18.002ZM70.4264 23.5781L68.3432 17.9958L68.05 16.3117H69.1852L72.0918 23.5781H70.4264ZM70.3578 20.8774V22.0812H66.2724V20.8774H70.3578ZM79.3053 22.2808V23.5781H75.3633V22.2808H79.3053ZM75.9184 16.3117V23.5781H74.2656V16.3117H75.9184ZM90.3954 21.6571C90.3954 21.5281 90.3704 21.4117 90.3205 21.3078C90.2748 21.2038 90.1978 21.1103 90.0897 21.0271C89.9816 20.9439 89.8319 20.8649 89.6407 20.7901C89.4535 20.7152 89.2186 20.6445 88.9358 20.578C88.4909 20.4699 88.1021 20.3514 87.7695 20.2225C87.4368 20.0936 87.1582 19.9418 86.9337 19.7672C86.7133 19.5925 86.547 19.3867 86.4347 19.1497C86.3266 18.9085 86.2725 18.6278 86.2725 18.3076C86.2725 17.9999 86.3391 17.7193 86.4721 17.4656C86.6093 17.2078 86.8006 16.9853 87.046 16.7982C87.2954 16.6111 87.5886 16.4677 87.9254 16.3679C88.2664 16.2639 88.6385 16.2119 89.0419 16.2119C89.6282 16.2119 90.1417 16.3055 90.5825 16.4926C91.0274 16.6797 91.3725 16.9417 91.6179 17.2785C91.8632 17.6112 91.9859 18.0062 91.9859 18.4636H90.333C90.333 18.2723 90.2831 18.0997 90.1833 17.9459C90.0877 17.7879 89.9442 17.6611 89.7529 17.5654C89.5616 17.4698 89.3246 17.422 89.0419 17.422C88.7716 17.422 88.5471 17.4635 88.3683 17.5467C88.1936 17.6257 88.0626 17.7297 87.9753 17.8586C87.8921 17.9833 87.8506 18.1164 87.8506 18.2577C87.8506 18.3742 87.8755 18.4802 87.9254 18.5758C87.9795 18.6673 88.0626 18.7526 88.1749 18.8316C88.2913 18.9064 88.4431 18.9792 88.6302 19.0499C88.8173 19.1164 89.044 19.185 89.3101 19.2557C89.7508 19.3555 90.1376 19.474 90.4702 19.6112C90.807 19.7443 91.0856 19.9044 91.306 20.0915C91.5305 20.2786 91.6989 20.4969 91.8112 20.7464C91.9235 20.9959 91.9796 21.2849 91.9796 21.6134C91.9796 21.9377 91.9131 22.2288 91.78 22.4866C91.647 22.7403 91.4536 22.9565 91.2 23.1353C90.9505 23.3099 90.6511 23.4451 90.3018 23.5407C89.9567 23.6322 89.57 23.6779 89.1417 23.6779C88.7591 23.6779 88.3828 23.6322 88.0127 23.5407C87.6427 23.4492 87.3079 23.3078 87.0085 23.1166C86.7091 22.9211 86.47 22.6737 86.2912 22.3743C86.1124 22.0749 86.023 21.7173 86.023 21.3015H87.6822C87.6822 21.5094 87.7154 21.6882 87.782 21.8379C87.8526 21.9876 87.9524 22.1103 88.0813 22.2059C88.2144 22.2974 88.3766 22.366 88.5678 22.4118C88.7591 22.4533 88.9753 22.4741 89.2165 22.4741C89.4993 22.4741 89.728 22.4346 89.9026 22.3556C90.0773 22.2766 90.202 22.1747 90.2769 22.05C90.3559 21.9253 90.3954 21.7943 90.3954 21.6571ZM98.1328 16.3117V23.5781H96.4799V16.3117H98.1328ZM100.528 16.3117V17.6153H94.1285V16.3117H100.528ZM105.976 18.002L103.918 23.5781H102.246L105.147 16.3117H106.269L105.976 18.002ZM107.935 23.5781L105.852 17.9958L105.558 16.3117H106.694L109.6 23.5781H107.935ZM107.866 20.8774V22.0812H103.781V20.8774H107.866ZM114.917 16.3117V23.5781H113.265V16.3117H114.917ZM117.313 16.3117V17.6153H110.913V16.3117H117.313ZM121.457 16.3117V23.5781H119.805V16.3117H121.457ZM128.478 21.6571C128.478 21.5281 128.453 21.4117 128.403 21.3078C128.357 21.2038 128.28 21.1103 128.172 21.0271C128.064 20.9439 127.914 20.8649 127.723 20.7901C127.536 20.7152 127.301 20.6445 127.018 20.578C126.573 20.4699 126.184 20.3514 125.852 20.2225C125.519 20.0936 125.24 19.9418 125.016 19.7672C124.795 19.5925 124.629 19.3867 124.517 19.1497C124.409 18.9085 124.355 18.6278 124.355 18.3076C124.355 17.9999 124.421 17.7193 124.554 17.4656C124.692 17.2078 124.883 16.9853 125.128 16.7982C125.378 16.6111 125.671 16.4677 126.008 16.3679C126.349 16.2639 126.721 16.2119 127.124 16.2119C127.71 16.2119 128.224 16.3055 128.665 16.4926C129.11 16.6797 129.455 16.9417 129.7 17.2785C129.945 17.6112 130.068 18.0062 130.068 18.4636H128.415C128.415 18.2723 128.365 18.0997 128.265 17.9459C128.17 17.7879 128.026 17.6611 127.835 17.5654C127.644 17.4698 127.407 17.422 127.124 17.422C126.854 17.422 126.629 17.4635 126.45 17.5467C126.276 17.6257 126.145 17.7297 126.057 17.8586C125.974 17.9833 125.933 18.1164 125.933 18.2577C125.933 18.3742 125.958 18.4802 126.008 18.5758C126.062 18.6673 126.145 18.7526 126.257 18.8316C126.373 18.9064 126.525 18.9792 126.712 19.0499C126.9 19.1164 127.126 19.185 127.392 19.2557C127.833 19.3555 128.22 19.474 128.552 19.6112C128.889 19.7443 129.168 19.9044 129.388 20.0915C129.613 20.2786 129.781 20.4969 129.893 20.7464C130.006 20.9959 130.062 21.2849 130.062 21.6134C130.062 21.9377 129.995 22.2288 129.862 22.4866C129.729 22.7403 129.536 22.9565 129.282 23.1353C129.033 23.3099 128.733 23.4451 128.384 23.5407C128.039 23.6322 127.652 23.6779 127.224 23.6779C126.841 23.6779 126.465 23.6322 126.095 23.5407C125.725 23.4492 125.39 23.3078 125.091 23.1166C124.791 22.9211 124.552 22.6737 124.373 22.3743C124.195 22.0749 124.105 21.7173 124.105 21.3015H125.764C125.764 21.5094 125.798 21.6882 125.864 21.8379C125.935 21.9876 126.035 22.1103 126.164 22.2059C126.297 22.2974 126.459 22.366 126.65 22.4118C126.841 22.4533 127.058 22.4741 127.299 22.4741C127.581 22.4741 127.81 22.4346 127.985 22.3556C128.159 22.2766 128.284 22.1747 128.359 22.05C128.438 21.9253 128.478 21.7943 128.478 21.6571ZM136.215 16.3117V23.5781H134.562V16.3117H136.215ZM138.61 16.3117V17.6153H132.211V16.3117H138.61ZM142.755 16.3117V23.5781H141.102V16.3117H142.755ZM150.212 21.1269H151.871C151.833 21.6342 151.686 22.0791 151.428 22.4617C151.17 22.8442 150.81 23.1436 150.349 23.3598C149.891 23.5719 149.345 23.6779 148.708 23.6779C148.201 23.6779 147.748 23.5968 147.349 23.4347C146.95 23.2725 146.609 23.0396 146.326 22.7361C146.047 22.4284 145.833 22.0583 145.683 21.6259C145.538 21.1934 145.465 20.7048 145.465 20.1601V19.736C145.465 19.1913 145.542 18.7027 145.696 18.2702C145.85 17.8336 146.068 17.4635 146.351 17.16C146.633 16.8523 146.972 16.6174 147.367 16.4552C147.767 16.2889 148.214 16.2057 148.708 16.2057C149.365 16.2057 149.918 16.318 150.368 16.5425C150.821 16.767 151.172 17.0768 151.422 17.4719C151.675 17.8627 151.827 18.3076 151.877 18.8066H150.224C150.203 18.5571 150.141 18.3347 150.037 18.1392C149.933 17.9438 149.773 17.79 149.557 17.6777C149.345 17.5654 149.062 17.5093 148.708 17.5093C148.446 17.5093 148.216 17.5571 148.016 17.6527C147.816 17.7442 147.65 17.8835 147.517 18.0706C147.384 18.2536 147.284 18.4844 147.218 18.763C147.151 19.0374 147.118 19.3597 147.118 19.7297V20.1601C147.118 20.526 147.147 20.8483 147.205 21.1269C147.268 21.4013 147.363 21.6321 147.492 21.8192C147.621 22.0063 147.785 22.1477 147.985 22.2434C148.189 22.339 148.43 22.3868 148.708 22.3868C149.037 22.3868 149.307 22.3411 149.519 22.2496C149.731 22.1581 149.894 22.0188 150.006 21.8317C150.122 21.6404 150.191 21.4055 150.212 21.1269ZM158.442 21.6571C158.442 21.5281 158.417 21.4117 158.367 21.3078C158.321 21.2038 158.244 21.1103 158.136 21.0271C158.028 20.9439 157.878 20.8649 157.687 20.7901C157.5 20.7152 157.265 20.6445 156.982 20.578C156.537 20.4699 156.149 20.3514 155.816 20.2225C155.483 20.0936 155.205 19.9418 154.98 19.7672C154.76 19.5925 154.593 19.3867 154.481 19.1497C154.373 18.9085 154.319 18.6278 154.319 18.3076C154.319 17.9999 154.385 17.7193 154.519 17.4656C154.656 17.2078 154.847 16.9853 155.092 16.7982C155.342 16.6111 155.635 16.4677 155.972 16.3679C156.313 16.2639 156.685 16.2119 157.088 16.2119C157.675 16.2119 158.188 16.3055 158.629 16.4926C159.074 16.6797 159.419 16.9417 159.664 17.2785C159.91 17.6112 160.032 18.0062 160.032 18.4636H158.379C158.379 18.2723 158.33 18.0997 158.23 17.9459C158.134 17.7879 157.991 17.6611 157.799 17.5654C157.608 17.4698 157.371 17.422 157.088 17.422C156.818 17.422 156.593 17.4635 156.415 17.5467C156.24 17.6257 156.109 17.7297 156.022 17.8586C155.939 17.9833 155.897 18.1164 155.897 18.2577C155.897 18.3742 155.922 18.4802 155.972 18.5758C156.026 18.6673 156.109 18.7526 156.221 18.8316C156.338 18.9064 156.49 18.9792 156.677 19.0499C156.864 19.1164 157.09 19.185 157.356 19.2557C157.797 19.3555 158.184 19.474 158.517 19.6112C158.853 19.7443 159.132 19.9044 159.352 20.0915C159.577 20.2786 159.745 20.4969 159.858 20.7464C159.97 20.9959 160.026 21.2849 160.026 21.6134C160.026 21.9377 159.96 22.2288 159.826 22.4866C159.693 22.7403 159.5 22.9565 159.246 23.1353C158.997 23.3099 158.698 23.4451 158.348 23.5407C158.003 23.6322 157.616 23.6779 157.188 23.6779C156.806 23.6779 156.429 23.6322 156.059 23.5407C155.689 23.4492 155.354 23.3078 155.055 23.1166C154.756 22.9211 154.516 22.6737 154.338 22.3743C154.159 22.0749 154.069 21.7173 154.069 21.3015H155.729C155.729 21.5094 155.762 21.6882 155.828 21.8379C155.899 21.9876 155.999 22.1103 156.128 22.2059C156.261 22.2974 156.423 22.366 156.614 22.4118C156.806 22.4533 157.022 22.4741 157.263 22.4741C157.546 22.4741 157.774 22.4346 157.949 22.3556C158.124 22.2766 158.248 22.1747 158.323 22.05C158.402 21.9253 158.442 21.7943 158.442 21.6571Z" fill="#4E6F8E"/>
<path d="M38.9802 31.3117V38.5781H37.3273V31.3117H38.9802ZM48.3081 31.3117V38.5781H46.6552L43.5803 33.7567V38.5781H41.9274V31.3117H43.5803L46.6552 36.1331V31.3117H48.3081ZM54.6858 31.3117V38.5781H53.0329V31.3117H54.6858ZM57.0809 31.3117V32.6153H50.6815V31.3117H57.0809ZM64.7248 37.2808V38.5781H60.5583V37.2808H64.7248ZM61.1134 31.3117V38.5781H59.4605V31.3117H61.1134ZM64.1884 34.1746V35.472H60.5583V34.1746H64.1884ZM64.7248 31.3117V32.6153H60.5583V31.3117H64.7248ZM73.3292 34.7235V37.68C73.2045 37.8172 73.0132 37.9648 72.7554 38.1228C72.5017 38.2767 72.1732 38.4076 71.7699 38.5158C71.3666 38.6239 70.88 38.6779 70.3104 38.6779C69.8072 38.6779 69.3478 38.601 68.9319 38.4471C68.5161 38.2933 68.1585 38.0667 67.8591 37.7673C67.5597 37.4637 67.329 37.0937 67.1668 36.6571C67.0046 36.2204 66.9235 35.7215 66.9235 35.1601V34.7297C66.9235 34.1684 67.0026 33.6715 67.1606 33.239C67.3186 32.8024 67.5431 32.4324 67.8342 32.1288C68.1253 31.8253 68.4704 31.5966 68.8696 31.4427C69.2729 31.2847 69.7178 31.2057 70.2043 31.2057C70.8946 31.2057 71.458 31.3117 71.8946 31.5238C72.3354 31.7317 72.6701 32.0207 72.8988 32.3908C73.1275 32.7608 73.2689 33.185 73.323 33.6632H71.7262C71.6888 33.422 71.614 33.2162 71.5017 33.0457C71.3936 32.871 71.2376 32.738 71.0339 32.6465C70.8343 32.555 70.5744 32.5093 70.2542 32.5093C69.9964 32.5093 69.7636 32.555 69.5557 32.6465C69.3478 32.738 69.171 32.8773 69.0255 33.0644C68.88 33.2474 68.7698 33.4761 68.6949 33.7505C68.6201 34.0249 68.5827 34.3472 68.5827 34.7173V35.1601C68.5827 35.526 68.6201 35.8483 68.6949 36.1269C68.7739 36.4055 68.8904 36.6383 69.0442 36.8255C69.1981 37.0084 69.3893 37.1477 69.618 37.2434C69.8509 37.339 70.117 37.3868 70.4164 37.3868C70.7782 37.3868 71.0568 37.3494 71.2522 37.2745C71.4476 37.1955 71.5869 37.1248 71.6701 37.0625V35.8836H70.1856V34.7235H73.3292ZM75.9895 31.3117H78.9397C79.3847 31.3117 79.7859 31.3595 80.1435 31.4552C80.5053 31.5467 80.8109 31.686 81.0604 31.8731C81.3141 32.056 81.5074 32.2847 81.6405 32.5592C81.7735 32.8295 81.8401 33.1434 81.8401 33.501C81.8401 33.9085 81.7694 34.2536 81.628 34.5364C81.4866 34.8191 81.2891 35.052 81.0355 35.235C80.7818 35.4138 80.4845 35.5614 80.1435 35.6778L79.6071 35.9834H77.0561L77.0436 34.6798H78.9585C79.2287 34.6798 79.4554 34.6383 79.6383 34.5551C79.8213 34.4719 79.9585 34.3534 80.05 34.1996C80.1414 34.0457 80.1872 33.8648 80.1872 33.6569C80.1872 33.4407 80.1394 33.2557 80.0437 33.1018C79.9523 32.9438 79.813 32.8232 79.6258 32.7401C79.4429 32.6569 79.2142 32.6153 78.9397 32.6153H77.6486V38.5781H75.9895V31.3117ZM80.3494 38.5781L78.578 35.3659L80.3244 35.3535L82.127 38.5033V38.5781H80.3494ZM86.3154 31.3117V38.5781H84.6625V31.3117H86.3154ZM92.8054 31.3117V38.5781H91.1525V31.3117H92.8054ZM95.2005 31.3117V32.6153H88.8011V31.3117H95.2005ZM100.025 35.3036L102.002 31.3117H103.799L101.123 36.183H100.212L100.025 35.3036ZM98.7964 31.3117L100.786 35.341L100.58 36.183H99.6759L97.0001 31.3117H98.7964ZM101.204 35.1663V38.5781H99.5511V35.1663H101.204ZM113.673 36.0832H111.683V34.7796H113.673C113.972 34.7796 114.217 34.736 114.408 34.6487C114.6 34.5613 114.741 34.4428 114.833 34.2931C114.924 34.1393 114.97 33.9667 114.97 33.7754C114.97 33.5675 114.924 33.3763 114.833 33.2016C114.741 33.027 114.6 32.8856 114.408 32.7775C114.217 32.6694 113.972 32.6153 113.673 32.6153H112.275V38.5781H110.622V31.3117H113.673C114.288 31.3117 114.814 31.4178 115.251 31.6298C115.691 31.8419 116.028 32.133 116.261 32.503C116.498 32.869 116.616 33.2889 116.616 33.763C116.616 34.1123 116.55 34.4304 116.417 34.7173C116.284 35 116.09 35.2433 115.837 35.447C115.583 35.6508 115.273 35.8088 114.907 35.9211C114.546 36.0292 114.134 36.0832 113.673 36.0832ZM119.183 31.3117H122.133C122.578 31.3117 122.98 31.3595 123.337 31.4552C123.699 31.5467 124.005 31.686 124.254 31.8731C124.508 32.056 124.701 32.2847 124.834 32.5592C124.967 32.8295 125.034 33.1434 125.034 33.501C125.034 33.9085 124.963 34.2536 124.822 34.5364C124.68 34.8191 124.483 35.052 124.229 35.235C123.976 35.4138 123.678 35.5614 123.337 35.6778L122.801 35.9834H120.25L120.237 34.6798H122.152C122.422 34.6798 122.649 34.6383 122.832 34.5551C123.015 34.4719 123.152 34.3534 123.244 34.1996C123.335 34.0457 123.381 33.8648 123.381 33.6569C123.381 33.4407 123.333 33.2557 123.237 33.1018C123.146 32.9438 123.007 32.8232 122.82 32.7401C122.637 32.6569 122.408 32.6153 122.133 32.6153H120.842V38.5781H119.183V31.3117ZM123.543 38.5781L121.772 35.3659L123.518 35.3535L125.321 38.5033V38.5781H123.543ZM134.187 34.7859V35.1102C134.187 35.6632 134.106 36.1602 133.944 36.6009C133.786 37.0375 133.559 37.4118 133.264 37.7236C132.969 38.0313 132.617 38.2683 132.21 38.4347C131.802 38.5968 131.351 38.6779 130.856 38.6779C130.362 38.6779 129.91 38.5968 129.503 38.4347C129.095 38.2683 128.742 38.0313 128.443 37.7236C128.143 37.4118 127.912 37.0375 127.75 36.6009C127.588 36.1602 127.507 35.6632 127.507 35.1102V34.7859C127.507 34.2328 127.588 33.738 127.75 33.3014C127.912 32.8606 128.141 32.4843 128.436 32.1725C128.732 31.8606 129.083 31.6236 129.49 31.4614C129.898 31.2951 130.349 31.2119 130.844 31.2119C131.339 31.2119 131.79 31.2951 132.197 31.4614C132.605 31.6236 132.956 31.8606 133.251 32.1725C133.551 32.4843 133.782 32.8606 133.944 33.3014C134.106 33.738 134.187 34.2328 134.187 34.7859ZM132.534 35.1102V34.7734C132.534 34.4116 132.495 34.0915 132.416 33.8129C132.341 33.5301 132.231 33.2931 132.085 33.1018C131.944 32.9105 131.767 32.765 131.555 32.6652C131.347 32.5613 131.11 32.5093 130.844 32.5093C130.578 32.5093 130.339 32.5613 130.127 32.6652C129.919 32.765 129.742 32.9105 129.596 33.1018C129.455 33.2931 129.347 33.5301 129.272 33.8129C129.197 34.0915 129.16 34.4116 129.16 34.7734V35.1102C129.16 35.472 129.197 35.7942 129.272 36.077C129.347 36.3556 129.457 36.5926 129.603 36.788C129.752 36.9835 129.931 37.1332 130.139 37.2371C130.351 37.3369 130.59 37.3868 130.856 37.3868C131.123 37.3868 131.36 37.3369 131.567 37.2371C131.775 37.1332 131.95 36.9835 132.091 36.788C132.237 36.5926 132.347 36.3556 132.422 36.077C132.497 35.7942 132.534 35.472 132.534 35.1102ZM139.935 36.2142V31.3117H141.588V36.2142C141.588 36.734 141.473 37.1789 141.245 37.549C141.016 37.9149 140.706 38.1956 140.315 38.391C139.929 38.5823 139.496 38.6779 139.018 38.6779C138.49 38.6779 138.022 38.5948 137.615 38.4284C137.211 38.2579 136.895 38.0001 136.667 37.655C136.442 37.3057 136.33 36.8629 136.33 36.3265H137.989C137.989 36.5718 138.028 36.7735 138.107 36.9315C138.186 37.0853 138.303 37.1997 138.457 37.2745C138.61 37.3494 138.798 37.3868 139.018 37.3868C139.213 37.3868 139.378 37.3431 139.511 37.2558C139.648 37.1685 139.752 37.0396 139.823 36.8691C139.897 36.6945 139.935 36.4762 139.935 36.2142ZM149.668 37.2808V38.5781H145.502V37.2808H149.668ZM146.057 31.3117V38.5781H144.404V31.3117H146.057ZM149.132 34.1746V35.472H145.502V34.1746H149.132ZM149.668 31.3117V32.6153H145.502V31.3117H149.668ZM156.557 36.1269H158.216C158.179 36.6342 158.031 37.0791 157.774 37.4617C157.516 37.8442 157.156 38.1436 156.695 38.3598C156.237 38.5719 155.69 38.6779 155.054 38.6779C154.547 38.6779 154.094 38.5968 153.694 38.4347C153.295 38.2725 152.954 38.0396 152.672 37.7361C152.393 37.4284 152.179 37.0583 152.029 36.6259C151.884 36.1934 151.811 35.7048 151.811 35.1601V34.736C151.811 34.1913 151.888 33.7027 152.042 33.2702C152.195 32.8336 152.414 32.4635 152.696 32.16C152.979 31.8523 153.318 31.6174 153.713 31.4552C154.112 31.2889 154.559 31.2057 155.054 31.2057C155.711 31.2057 156.264 31.318 156.713 31.5425C157.167 31.767 157.518 32.0768 157.767 32.4719C158.021 32.8627 158.173 33.3076 158.223 33.8066H156.57C156.549 33.5571 156.487 33.3347 156.383 33.1392C156.279 32.9438 156.119 32.79 155.902 32.6777C155.69 32.5654 155.408 32.5093 155.054 32.5093C154.792 32.5093 154.561 32.5571 154.362 32.6527C154.162 32.7442 153.996 32.8835 153.863 33.0706C153.73 33.2536 153.63 33.4844 153.563 33.763C153.497 34.0374 153.464 34.3597 153.464 34.7297V35.1601C153.464 35.526 153.493 35.8483 153.551 36.1269C153.613 36.4013 153.709 36.6321 153.838 36.8192C153.967 37.0063 154.131 37.1477 154.331 37.2434C154.534 37.339 154.776 37.3868 155.054 37.3868C155.383 37.3868 155.653 37.3411 155.865 37.2496C156.077 37.1581 156.239 37.0188 156.352 36.8317C156.468 36.6404 156.537 36.4055 156.557 36.1269ZM164.257 31.3117V38.5781H162.604V31.3117H164.257ZM166.652 31.3117V32.6153H160.253V31.3117H166.652Z" fill="#4E6F8E"/>
</svg>
